<?xml version="1.0" standalone="no"?>
<!DOCTYPE svg PUBLIC "-//W3C//DTD SVG 1.1//EN" "http://www.w3.org/Graphics/SVG/1.1/DTD/svg11.dtd" >
<svg xmlns="http://www.w3.org/2000/svg">
<metadata>
This is a custom SVG webfont generated by Font Squirrel.
Designer    : MicroPress Inc., with final additions and corrections provided by Coen Hoffman, Elsevier (retired)
Foundry URL : http://www.stixfonts.org
</metadata>
<defs>
<font id="webfontZXtFAA5Q" horiz-adv-x="685" >
<font-face units-per-em="1000" ascent="750" descent="-250" />
<missing-glyph horiz-adv-x="250" />
<glyph unicode="IJ" horiz-adv-x="747" d="M728 662v-19q-61 -5 -76.5 -20.5t-15.5 -73.5v-364q0 -199 -167 -199q-46 0 -73.5 19t-27.5 53q0 20 14.5 36t34.5 16q33 0 49 -42q2 -5 5 -14l5 -12q1 -5 4 -9.5t7 -6.5t10 -2q22 0 29.5 15.5t7.5 54.5v456q0 59 -15 73.5t-78 19.5v19h287zM315 0h-297v19q63 2 80 18.5 t17 74.5v439q0 58 -16 73t-81 19v19h297v-19q-63 -3 -80.5 -19t-17.5 -73v-439q0 -56 18 -73.5t80 -19.5v-19z" />
<glyph unicode="ij" horiz-adv-x="538" d="M453 457v-457q0 -107 -43.5 -162.5t-126.5 -55.5q-41 0 -67 15.5t-26 39.5q0 16 12 27.5t29 11.5q23 0 48 -32q23 -28 42 -28q23 0 34 18q14 25 14 121v379q0 60 -32 60q-24 0 -40 -3l-5 -1v16q80 25 156 54zM454 632q0 -22 -15 -36.5t-37 -14.5q-21 0 -35.5 14.5 t-14.5 36.5q0 21 15 36t36 15t36 -15t15 -36zM180 632q0 -22 -15 -36.5t-37 -14.5q-21 0 -35.5 14.5t-14.5 36.5q0 21 15 36t36 15q22 0 36.5 -15t14.5 -36zM253 0h-237v15q52 3 65.5 18t13.5 71v227q0 35 -7 49t-26 14q-24 0 -42 -5v16l155 55l4 -4v-351q0 -56 12.5 -71 t61.5 -19v-15z" />
<glyph unicode="&#xfb00;" horiz-adv-x="605" d="M187 450h189q1 61 8 94.5t26 66.5q42 72 141 72q45 0 74.5 -17.5t29.5 -44.5q0 -17 -12 -29t-30 -12q-24 0 -45 36q-24 39 -53 39q-56 0 -56 -89v-116h115v-32h-115v-315q0 -56 15.5 -71t77.5 -17v-15h-245v15q43 3 55.5 19t12.5 70v314h-188v-314q0 -57 11 -71t57 -18 v-15h-235v15q54 3 68.5 18.5t14.5 70.5v314h-82v32h82q1 60 8 93.5t27 67.5q42 72 141 72q44 0 70.5 -17.5t26.5 -44.5q0 -17 -12 -29t-30 -12q-12 0 -18.5 6.5t-19.5 29.5q-24 39 -53 39q-56 0 -56 -89v-116z" />
<glyph unicode="&#xfb01;" horiz-adv-x="558" d="M523 0h-220v15q46 4 57 18t11 66v261q0 38 -16.5 47.5t-86.5 9.5h-84v-327q0 -42 13.5 -57t54.5 -18v-15h-220v15q42 1 55 17t13 64v321h-67v33h68q9 80 21.5 116t50.5 70q55 47 147 47q59 0 92 -18t33 -50q0 -41 -35 -41q-14 0 -28 13t-25 29t-29 29t-39 13 q-45 0 -75 -32q-20 -20 -25 -47t-5 -84v-45h154q46 0 114 11l5 -4q-2 -53 -2 -99v-259q0 -47 14.5 -63.5t53.5 -20.5v-15z" />
<glyph unicode="&#xfb02;" horiz-adv-x="556" d="M522 0h-215v15q39 4 52.5 17.5t13.5 53.5v332h-188v-337q0 -37 14 -49.5t56 -16.5v-15h-224v15q45 4 57.5 19.5t12.5 72.5v311h-70v32h72q0 78 12.5 118t52.5 76q44 39 100 39q21 0 58.5 -12.5t52.5 -12.5q5 0 33 12.5t40 12.5l5 -2v-598q0 -40 12.5 -52t52.5 -16v-15z M373 450v142q-7 -8 -18 -8q-18 0 -27.5 7.5t-22.5 29.5q-21 35 -53 35q-67 0 -67 -156v-50h188z" />
<glyph unicode="&#xfb03;" horiz-adv-x="832" d="M797 0h-220v15q46 4 57 18t11 66v261q0 38 -16.5 48t-86.5 10h-84v-328q0 -42 13.5 -57t54.5 -18v-15h-220v15q46 4 57 18t11 63v322h-187v-315q0 -55 11.5 -69t56.5 -19v-15h-235v15q54 3 68.5 18t14.5 70v315h-82v32h82q1 60 8 93t27 67q42 72 141 72q44 0 71 -17.5 t27 -44.5q0 -17 -12 -29t-30 -12q-12 0 -19 7t-20 29q-15 23 -24 31.5t-25 8.5q-60 0 -60 -90v-115h188q9 80 21.5 116t50.5 70q55 47 147 47q59 0 92 -18t33 -50q0 -41 -35 -41q-17 0 -34.5 20t-39 40.5t-47.5 20.5q-47 0 -75 -29q-20 -20 -25 -47t-5 -84v-45h154 q46 0 114 11l5 -4q-2 -53 -2 -99v-259q0 -47 14.5 -63.5t53.5 -20.5v-15z" />
<glyph unicode="&#xfb04;" horiz-adv-x="830" d="M796 0h-215v15q39 4 52.5 17.5t13.5 53.5v332h-188v-337q0 -37 14 -49.5t56 -16.5v-15h-224v15q45 4 57.5 19.5t12.5 72.5v311h-188v-314q0 -56 16 -71.5t77 -17.5v-15h-260v15q54 3 68.5 18.5t14.5 70.5v314h-82v32h82q1 60 8 93.5t27 67.5q42 72 141 72 q45 0 74.5 -17.5t29.5 -44.5q0 -17 -12 -29t-30 -12q-24 0 -45 36q-24 39 -53 39q-56 0 -56 -89v-116h190q0 78 12.5 118t52.5 76q44 39 100 39q21 0 58.5 -12.5t52.5 -12.5q5 0 33 12.5t40 12.5l5 -2v-598q0 -40 12.5 -52t52.5 -16v-15zM647 450v142q-7 -8 -18 -8 q-18 0 -27.5 7.5t-22.5 29.5q-21 34 -53 34q-67 0 -67 -155v-50h188z" />
<glyph unicode="fj" horiz-adv-x="541" d="M452 461l5 -4q-2 -66 -2 -99v-358q0 -96 -39.5 -157t-130.5 -61q-33 0 -63 13t-30 42q0 17 12 28t29 11q21 0 46 -30t44 -30q21 0 34 18q14 21 14 121v405q0 28 -6 38q-13 19 -78 19h-19h-84v-327q0 -42 13.5 -57t54.5 -18v-15h-220v15q43 1 55.5 18t12.5 63v321h-67v33 h68q11 89 23 120q16 37 49 66q54 47 147 47q20 0 38.5 -2.5t39.5 -9t34 -21t13 -35.5q0 -41 -35 -41q-14 0 -28 13t-25 29t-29 29t-39 13q-45 0 -75 -32q-30 -31 -30 -105v-26v-45h154q44 0 114 11z" />
<glyph unicode=" "  horiz-adv-x="250" />
<glyph unicode="&#x09;" horiz-adv-x="250" />
<glyph unicode="&#xa0;" horiz-adv-x="250" />
<glyph unicode="!" horiz-adv-x="333" d="M175 176l-42 381q-3 30 -3 43q0 76 53 76q25 0 39 -22t14 -59q0 -16 -2 -38l-45 -381h-14zM236 42q0 -22 -15.5 -36.5t-38.5 -14.5q-22 0 -37 14.5t-15 37.5t15.5 38.5t37.5 15.5t37.5 -16t15.5 -39z" />
<glyph unicode="&#x22;" horiz-adv-x="408" d="M299 431h-21q-32 174 -32 202q0 19 12 31t31 12q18 0 30 -12t12 -29q0 -13 -4.5 -41l-12.5 -77zM130 431h-21q-32 174 -32 202q0 19 12 31t31 12q18 0 30 -11.5t12 -29.5q0 -50 -32 -204z" />
<glyph unicode="#" horiz-adv-x="500" d="M495 405h-104l-20 -134h99v-55h-108l-31 -216h-58l31 216h-134l-33 -216h-58l33 216h-106v55h115l21 134h-109v55h117l31 202h58l-31 -202h133l30 202h58l-30 -202h96v-55zM333 405h-133l-21 -134h134z" />
<glyph unicode="$" horiz-adv-x="500" d="M264 637v-246q85 -46 118 -71.5t55 -59.5q21 -32 21 -90q0 -81 -49.5 -119t-144.5 -51v-87h-34v87q-64 0 -104 11.5t-82 39.5v130h15q16 -74 60 -113.5t111 -39.5v282q-105 59 -141.5 100t-36.5 103q0 70 51 108t127 43v63h34v-63q115 -7 161 -53v-111h-15 q-15 62 -50.5 96t-95.5 41zM230 407v230q-104 -21 -104 -105q0 -33 20.5 -57.5t83.5 -67.5zM264 293v-265q62 13 88 39.5t26 79.5q0 46 -23 76t-91 70z" />
<glyph unicode="%" horiz-adv-x="747" d="M686 213q0 -91 -50 -161.5t-114 -70.5q-51 0 -86 40t-35 98q0 80 58.5 145.5t130.5 65.5q46 0 71 -30.5t25 -86.5zM663 215q0 39 -17.5 63t-45.5 24q-29 0 -49 -23q-33 -35 -55.5 -93.5t-22.5 -109.5q0 -29 16 -48.5t40 -19.5q52 0 93 63.5t41 143.5zM621 706l-430 -724 h-47l394 658q-28 -32 -54.5 -44.5t-66.5 -12.5q-35 0 -76 14q4 -23 4 -44q0 -52 -22 -104t-58 -86q-38 -37 -86 -37q-50 0 -84 39.5t-34 97.5q0 85 58 149t135 64q26 0 60 -28q47 -39 96 -39q46 0 72 15t95 82h44zM321 569q0 22 -4.5 30t-20.5 16q-23 11 -44 34 q-31 -15 -44 -26.5t-28 -36.5q-48 -76 -48 -163q0 -31 15.5 -50.5t41.5 -19.5q53 0 92.5 65t39.5 151z" />
<glyph unicode="&#x26;" horiz-adv-x="778" d="M735 111l15 -11q-22 -54 -61 -83.5t-90 -29.5q-82 0 -170 91q-56 -49 -105.5 -70t-110.5 -21q-82 0 -126.5 38t-44.5 112q0 61 40.5 117.5t116.5 100.5l38 22q-35 85 -35 149q0 66 43.5 108t108.5 42q61 0 99 -33t38 -91q0 -55 -34.5 -93t-120.5 -75q56 -121 132 -206 q50 67 71 106.5t21 73.5q0 23 -14 33t-51 14v21h216v-21q-35 0 -54.5 -13t-39.5 -46l-39 -62l-43 -71q-19 -30 -44 -63q37 -47 72.5 -69.5t79.5 -22.5q29 0 48.5 11.5t43.5 41.5zM438 556q0 37 -22 62.5t-56 25.5q-35 0 -57 -23t-22 -60q0 -40 8 -70.5t32 -74.5q63 29 90 62 t27 78zM404 104q-86 101 -152 239q-65 -42 -91.5 -79.5t-26.5 -89.5q0 -62 34.5 -98t89.5 -36q64 0 146 64z" />
<glyph unicode="'" horiz-adv-x="180" d="M101 431h-21q-32 174 -32 203q0 18 12.5 30t30.5 12q20 0 31 -11t11 -29q0 -45 -32 -205z" />
<glyph unicode="(" horiz-adv-x="333" d="M304 -161l-12 -16q-116 66 -180 182t-64 247q0 277 247 424l9 -16q-102 -87 -136 -171.5t-34 -233.5q0 -148 35 -240t135 -176z" />
<glyph unicode=")" horiz-adv-x="333" d="M29 660l12 16q114 -68 179 -184t65 -245q0 -273 -247 -424l-9 16q103 85 136.5 169.5t33.5 235.5q0 152 -33.5 243.5t-136.5 172.5z" />
<glyph unicode="*" horiz-adv-x="500" d="M268 471l9 -6q37 -24 96 -34q34 -5 47 -14.5t13 -28.5q0 -17 -10 -28t-26 -11q-25 0 -60 44q-23 28 -69 58l-8 5v-9q0 -56 20 -110q9 -25 9 -33q0 -15 -12.5 -27t-27.5 -12q-14 0 -25 11t-11 25t12 47q16 43 16 99v9q-40 -25 -52 -36q-12 -12 -41 -45q-22 -25 -43 -25 q-17 0 -27 10t-10 26q0 19 14.5 29t48.5 16q35 7 53.5 14t49.5 26q-43 26 -97 37q-37 8 -52 18t-15 28q0 16 9 26.5t24 10.5q20 0 49 -32q42 -47 89 -73v13q0 41 -15 91q-11 33 -11 52q0 14 10.5 24t25.5 10t26 -10.5t11 -25.5q0 -16 -11 -47q-17 -45 -17 -83v-24 q34 20 58 42q5 5 18 20l22 22q8 8 18.5 15.5t18.5 7.5q17 0 27 -10.5t10 -27.5q0 -20 -11.5 -29.5t-40.5 -13.5q-56 -9 -112 -41z" />
<glyph unicode="+" d="M636 220h-261v-261h-66v261h-261v66h261v261h66v-261h261v-66z" />
<glyph unicode="," horiz-adv-x="250" d="M83 -141l-10 19q83 56 83 107q0 13 -14 13q-4 0 -13.5 -2t-15.5 -2q-58 0 -58 51q0 26 16.5 41.5t43.5 15.5q34 0 57 -24.5t23 -62.5q0 -46 -30.5 -89t-81.5 -67z" />
<glyph unicode="-" horiz-adv-x="333" d="M285 194h-246v63h246v-63z" />
<glyph unicode="." horiz-adv-x="250" d="M181 43q0 -22 -16.5 -38t-39.5 -16t-39 16t-16 39t16.5 39.5t39.5 16.5q22 0 38.5 -17t16.5 -40z" />
<glyph unicode="/" horiz-adv-x="278" d="M287 676l-228 -690h-68l229 690h67z" />
<glyph unicode="0" horiz-adv-x="500" d="M476 330q0 -67 -13 -126.5t-38.5 -109.5t-70.5 -79t-104 -29q-61 0 -107 31t-71 83t-36.5 111t-11.5 125q0 93 23 167.5t76.5 123.5t130.5 49q98 0 160 -96t62 -250zM380 325q0 158 -33.5 241.5t-98.5 83.5q-62 0 -95 -84t-33 -237q0 -154 33 -235.5t97 -81.5 q63 0 96.5 81.5t33.5 231.5z" />
<glyph unicode="1" horiz-adv-x="500" d="M394 0h-276v15q55 3 75 20.5t20 59.5v449q0 49 -30 49q-14 0 -45 -12l-27 -10v14l179 91l9 -3v-597q0 -33 20 -47t75 -14v-15z" />
<glyph unicode="2" horiz-adv-x="500" d="M474 137l-54 -137h-391v12l178 189q70 73 100 134t30 126q0 67 -37 104t-102 37q-54 0 -85.5 -28t-61.5 -102l-21 5q17 93 68.5 146t139.5 53q83 0 134 -50t51 -126q0 -113 -128 -248l-165 -176h234q33 0 52.5 13t43.5 54z" />
<glyph unicode="3" horiz-adv-x="500" d="M61 510l-16 4q23 75 72 118.5t124 43.5q70 0 113 -38t43 -99q0 -82 -93 -138q55 -24 83 -53q44 -49 44 -129t-46 -140q-34 -46 -97.5 -69.5t-134.5 -23.5q-112 0 -112 57q0 16 12 26t29 10q25 0 61 -26q44 -31 86 -31q55 0 92.5 44.5t37.5 108.5q0 115 -104 145 q-31 10 -102 10v14q56 19 84 36q81 46 81 134q0 50 -28.5 76t-79.5 26q-90 0 -149 -106z" />
<glyph unicode="4" horiz-adv-x="500" d="M473 167h-103v-167h-78v167h-280v64l314 445h44v-445h103v-64zM292 231v343l-240 -343h240z" />
<glyph unicode="5" horiz-adv-x="500" d="M438 681l-36 -85q-6 -13 -27 -13h-194l-40 -85q110 -21 159 -45.5t91 -82.5q35 -48 35 -127q0 -72 -23.5 -121t-74.5 -87q-68 -49 -170 -49q-57 0 -92 17t-35 45q0 38 45 38q36 0 74 -31q39 -32 71 -32q52 0 93.5 52t41.5 117q0 96 -67 150q-87 70 -213 70q-12 0 -12 8 l1 5l109 237h207q17 0 26.5 5t21.5 21z" />
<glyph unicode="6" horiz-adv-x="500" d="M446 684l2 -16q-118 -19 -197 -95.5t-99 -189.5q58 45 127 45q88 0 138.5 -56t50.5 -153q0 -98 -51 -160q-59 -73 -159 -73q-122 0 -177 101q-47 86 -47 192q0 164 109 276q62 64 127.5 90.5t175.5 38.5zM378 188q0 194 -135 194q-50 0 -83 -26.5t-33 -89.5 q0 -117 36.5 -184.5t105.5 -67.5q53 0 81 47.5t28 126.5z" />
<glyph unicode="7" horiz-adv-x="500" d="M449 646l-212 -654h-65l198 596h-215q-43 0 -64 -15t-53 -67l-18 9l60 147h369v-16z" />
<glyph unicode="8" horiz-adv-x="500" d="M445 155q0 -77 -53.5 -123t-143.5 -46q-84 0 -138 46t-54 117q0 53 26 90.5t104 92.5q-75 62 -99.5 100t-24.5 88q0 71 54.5 113.5t139.5 42.5q73 0 120.5 -41.5t47.5 -101.5q0 -55 -28.5 -88t-105.5 -74q90 -60 122.5 -107t32.5 -109zM355 533q0 52 -29 83.5t-80 31.5 t-80.5 -26.5t-29.5 -72.5t29.5 -83.5t95.5 -76.5q51 30 72.5 63.5t21.5 80.5zM271 272l-59 40q-44 -36 -62 -70.5t-18 -83.5q0 -68 34.5 -106t92.5 -38q49 0 79.5 30.5t30.5 79.5q0 45 -23 79t-75 69z" />
<glyph unicode="9" horiz-adv-x="500" d="M59 -22l-3 20q115 20 194.5 97t109.5 199q-58 -57 -150 -57q-81 0 -130.5 56t-49.5 147q0 101 59.5 168.5t148.5 67.5q95 0 157 -76q64 -80 64 -206q0 -88 -30.5 -165.5t-89.5 -131.5q-62 -56 -121 -80.5t-159 -38.5zM362 355v39q0 254 -132 254q-47 0 -73 -34 q-15 -20 -25 -60t-10 -80q0 -89 33.5 -141.5t89.5 -52.5q40 0 78.5 19.5t38.5 55.5z" />
<glyph unicode=":" horiz-adv-x="278" d="M192 403q0 -23 -16 -39t-39 -16t-39.5 16.5t-16.5 38.5q0 24 16 40t40 16q22 0 38.5 -16.5t16.5 -39.5zM192 44q0 -22 -16 -38.5t-39 -16.5t-39.5 16.5t-16.5 38.5q0 24 16 40t40 16q22 0 38.5 -16.5t16.5 -39.5z" />
<glyph unicode=";" horiz-adv-x="278" d="M191 403q0 -23 -16.5 -39t-38.5 -16q-23 0 -39.5 16.5t-16.5 38.5q0 24 16 40t40 16q22 0 38.5 -16.5t16.5 -39.5zM107 -141l-10 19q83 54 83 106q0 5 -4 9.5t-10 4.5q-3 0 -13 -2t-15 -2q-58 0 -58 52q0 24 17 40t42 16q34 0 57 -24.5t23 -64.5q0 -47 -30 -88t-82 -66z " />
<glyph unicode="&#x3c;" d="M621 -24l-565 273v10l565 275v-65l-432 -215l432 -215v-63z" />
<glyph unicode="=" d="M637 320h-589v66h589v-66zM637 120h-589v66h589v-66z" />
<glyph unicode="&#x3e;" d="M621 249l-565 -273v63l432 215l-432 215v65l565 -275v-10z" />
<glyph unicode="?" horiz-adv-x="444" d="M244 164h-17q2 72 44 177q51 126 51 187q0 51 -31.5 84.5t-77.5 33.5q-36 0 -65 -19t-29 -43q0 -19 19 -38.5t19 -35.5q0 -19 -11 -31t-30 -12q-21 0 -34.5 18t-13.5 48q0 62 46 102.5t118 40.5q75 0 128.5 -43.5t53.5 -114.5q0 -45 -20 -82.5t-85 -114.5 q-49 -59 -65 -157zM290 45q0 -22 -15 -37.5t-37 -15.5q-25 0 -39.5 15.5t-14.5 37.5q0 23 15.5 38t38.5 15q21 0 36.5 -16t15.5 -37z" />
<glyph unicode="@" horiz-adv-x="921" d="M688 73l12 -30q-120 -57 -218 -57q-157 0 -261.5 97t-104.5 244q0 84 38 158t103 122q93 69 224 69q139 0 233.5 -84.5t94.5 -208.5q0 -97 -55 -168.5t-129 -71.5q-34 0 -59.5 20.5t-29.5 52.5h-2q-50 -72 -125 -72q-38 0 -63 30.5t-25 81.5q0 96 66 182q53 70 128 70 q54 0 73 -52h2l9 38h69l-65 -254q-2 -10 -2 -17q0 -47 42 -47q49 0 87.5 60.5t38.5 136.5q0 112 -84.5 192t-202.5 80q-140 0 -220 -115q-62 -89 -62 -208q0 -131 79.5 -214t207.5 -83q102 0 201 48zM572 404q0 60 -46 60q-51 0 -98 -70q-36 -54 -36 -120q0 -40 16 -63.5 t44 -23.5q44 0 76 58q44 83 44 159z" />
<glyph unicode="A" horiz-adv-x="722" d="M707 0h-255v19q40 0 55 9q14 7 14 24q0 26 -19 70l-41 94h-262l-46 -114q-9 -23 -9 -42q0 -23 16.5 -32t53.5 -9v-19h-199v19q42 4 61 30.5t65 136.5l206 488h20l246 -563q22 -52 39.5 -70t54.5 -22v-19zM447 257l-116 275l-115 -275h231z" />
<glyph unicode="B" horiz-adv-x="667" d="M422 349v-1q75 -12 122 -55q49 -44 49 -115q0 -83 -65 -130.5t-174 -47.5h-337v19q59 2 77.5 19.5t18.5 74.5v437q0 58 -17 73.5t-79 19.5v19h280q129 0 195.5 -43.5t66.5 -123.5q0 -68 -41 -104q-29 -25 -96 -42zM215 366h92q150 0 150 124q0 64 -44.5 99.5t-132.5 35.5 h-41q-24 0 -24 -32v-227zM215 326v-244q0 -25 13.5 -35t48.5 -10q68 0 100 7.5t63 35.5q38 33 38 99q0 76 -47 107q-11 8 -22 13.5t-19.5 9t-22.5 6.5l-21 5q-8 1 -27 2l-28 2q-9 0 -35.5 1t-40.5 1z" />
<glyph unicode="C" horiz-adv-x="667" d="M614 131l19 -18q-89 -127 -273 -127q-145 0 -236 89q-96 94 -96 250q0 146 90 247q94 104 243 104q64 0 119 -15q63 -18 69 -18q33 0 42 33h20l9 -227h-23q-16 72 -52 111q-71 76 -161 76q-111 0 -175.5 -81.5t-64.5 -213.5q0 -161 72 -239q67 -72 178 -72q66 0 114 23 t106 78z" />
<glyph unicode="D" horiz-adv-x="722" d="M16 662h270q195 0 300 -91q99 -85 99 -237q0 -183 -136 -270q-99 -64 -252 -64h-281v19q58 4 73 20.5t15 75.5v435q0 58 -15 73.5t-73 19.5v19zM206 583v-499q0 -27 9.5 -37t38.5 -10q78 0 126 11t92 41q104 70 104 239q0 145 -95 228q-43 38 -94 53.5t-128 15.5 q-29 0 -41 -9t-12 -33z" />
<glyph unicode="E" horiz-adv-x="611" d="M597 169l-46 -169h-539v19q57 4 72 20.5t15 74.5v436q0 56 -15.5 73t-71.5 20v19h530l4 -143h-25q-11 67 -39 86t-115 19h-131q-22 0 -28.5 -6.5t-6.5 -29.5v-220h151q63 0 83.5 18t29.5 78h23v-234h-23q-9 63 -29 80t-84 17h-151v-243q0 -30 21 -38.5t80 -8.5h36 q107 0 152 26t79 106h28z" />
<glyph unicode="F" horiz-adv-x="556" d="M546 519h-25q-11 68 -37.5 86.5t-116.5 18.5h-132q-21 0 -27.5 -7.5t-6.5 -31.5v-217h142q63 0 84.5 18t28.5 77h23v-233h-23q-6 61 -27 79t-86 18h-142v-215q0 -57 16.5 -73.5t74.5 -19.5v-19h-281v19q57 4 72.5 21.5t15.5 82.5v428q0 55 -15 71.5t-72 20.5v19h529z" />
<glyph unicode="G" horiz-adv-x="722" d="M709 354v-18q-44 -4 -57 -18t-13 -62v-200q-86 -70 -254 -70q-78 0 -149.5 28t-120.5 79q-83 87 -83 234q0 166 107 263q94 86 239 86q64 0 133 -23q27 -10 44 -10q16 0 28 9.5t17 23.5h22l8 -211h-23q-32 78 -71 116q-58 55 -146 55q-100 0 -167 -69q-77 -77 -77 -243 q0 -138 72 -218t191 -80q57 0 95 18t38 43v157q0 58 -14.5 72.5t-74.5 19.5v18h256z" />
<glyph unicode="H" horiz-adv-x="722" d="M703 0h-279v19q58 4 73 22.5t15 82.5v191h-303v-202q0 -55 16 -73t71 -21l1 -19h-279v19q59 4 74 21.5t15 81.5v426q0 58 -15.5 74t-73.5 21v19h280v-19q-56 -5 -72.5 -21.5t-16.5 -73.5v-189h303v189q0 58 -15.5 74t-73.5 21v19h280v-19q-56 -5 -72.5 -21.5t-16.5 -73.5 v-437q0 -53 16.5 -70.5t72.5 -21.5v-19z" />
<glyph unicode="I" horiz-adv-x="333" d="M315 0h-297v19q63 2 80 18.5t17 74.5v439q0 58 -16 73t-81 19v19h297v-19q-63 -3 -80.5 -19t-17.5 -73v-439q0 -56 18 -73.5t80 -19.5v-19z" />
<glyph unicode="J" horiz-adv-x="373" d="M354 662v-19q-61 -5 -76.5 -20.5t-15.5 -73.5v-364q0 -199 -167 -199q-46 0 -73.5 19t-27.5 53q0 20 14.5 36t34.5 16q33 0 49 -42q2 -5 5 -14l5 -12q1 -5 4 -9.5t7 -6.5t10 -2q22 0 29.5 15.5t7.5 54.5v456q0 59 -15 73.5t-78 19.5v19h287z" />
<glyph unicode="K" horiz-adv-x="722" d="M723 0h-303v19l27 1q42 1 42 24q0 18 -32.5 56.5t-104.5 113.5l-100 103l-26 -21v-185q0 -56 16 -71.5t73 -20.5v-19h-282v19q59 3 75 22t16 84v424q0 56 -16 73t-74 21v19h282v-19q-61 -4 -75.5 -20t-14.5 -75v-200l178 164q43 40 60.5 61t17.5 38q0 16 -8.5 23t-32.5 8 l-25 1v19h259v-19q-51 -4 -77.5 -17.5t-78.5 -63.5l-186 -178l234 -256q62 -68 91.5 -88.5t64.5 -20.5v-19z" />
<glyph unicode="L" horiz-adv-x="611" d="M598 174l-48 -174h-538v19q55 3 71 21t16 75v431q0 59 -14.5 76t-72.5 21v19h283v-19q-61 -4 -77.5 -20.5t-16.5 -74.5v-464q0 -28 17.5 -36.5t72.5 -8.5h70q121 0 169 61q20 27 42 74h26z" />
<glyph unicode="M" horiz-adv-x="889" d="M864 0h-280v19q59 4 74.5 22.5t15.5 81.5v449l-255 -572h-14l-252 549v-398q0 -81 17 -105t76 -27v-19h-234v19q44 3 63 13t26.5 35.5t7.5 83.5v398q0 57 -17 73.5t-78 20.5v19h198l231 -502l221 502h199v-19q-54 -1 -70.5 -19t-16.5 -74v-438q0 -53 16.5 -71t71.5 -22 v-19z" />
<glyph unicode="N" horiz-adv-x="722" d="M707 662v-19q-51 -5 -66 -18q-16 -14 -22.5 -38t-6.5 -80v-518h-18l-441 549v-388q0 -76 17 -99.5t76 -31.5v-19h-234v19q62 7 79.5 29.5t17.5 101.5v440q-26 32 -44 42.5t-53 10.5v19h170l386 -483v340q0 76 -19 98q-12 13 -26.5 17.5t-52.5 8.5v19h237z" />
<glyph unicode="O" horiz-adv-x="722" d="M688 331q0 -154 -91 -249.5t-236 -95.5q-146 0 -236.5 96t-90.5 252q0 152 90.5 247t236.5 95t236.5 -97.5t90.5 -247.5zM574 337q0 85 -24 152.5t-67 103.5q-56 47 -123 47q-85 0 -143 -67q-32 -36 -50.5 -102.5t-18.5 -138.5q0 -182 90 -265q49 -45 124 -45 q78 0 129 48q83 80 83 267z" />
<glyph unicode="P" horiz-adv-x="557" d="M16 662h259q142 0 217 -63q50 -42 50 -119q0 -80 -57 -131q-42 -38 -86 -49.5t-128 -11.5q-29 0 -69 3v-179q0 -57 16.5 -73.5t77.5 -19.5v-19h-280v19q58 4 71 21t13 82v429q0 56 -14.5 72t-69.5 20v19zM202 589v-258q34 -3 61 -3q81 0 125.5 39.5t44.5 107.5 q0 81 -46 115.5t-150 34.5q-21 0 -28 -7.5t-7 -28.5z" />
<glyph unicode="Q" horiz-adv-x="722" d="M701 -177h-48q-249 0 -347 124l-41 52q-60 21 -93.5 42.5t-61.5 58.5q-76 101 -76 232q0 156 92 250t235 94q144 0 235.5 -94.5t91.5 -248.5q0 -88 -26 -152t-82 -117q-31 -31 -65.5 -46t-88.5 -25q53 -76 119.5 -111.5t155.5 -40.5v-18zM574 338q0 86 -24 153.5 t-67 103.5q-54 45 -125 45q-86 0 -144 -71q-30 -35 -48 -99t-18 -135q0 -154 58 -235q24 -35 67.5 -56.5t87.5 -21.5q87 0 149 72q30 34 47 101t17 143z" />
<glyph unicode="R" horiz-adv-x="667" d="M660 0h-162l-238 308l-56 -2v-194q0 -57 15.5 -73t73.5 -20v-19h-276v19q57 5 71 22t14 83v427q0 56 -14 72t-71 20v19h272q137 0 209 -59q49 -40 49 -120q0 -136 -181 -164l200 -253q21 -26 40 -35t54 -12v-19zM204 583v-240q72 1 107 8t70 26q57 32 57 114 q0 134 -183 134q-27 0 -39 -8.5t-12 -33.5z" />
<glyph unicode="S" horiz-adv-x="556" d="M469 463h-25q-17 62 -41 94q-61 78 -145 78q-46 0 -73.5 -26.5t-27.5 -68.5q0 -20 10 -39t21.5 -32.5t40.5 -33.5t47 -31l60 -35q81 -47 118 -93.5t37 -102.5q0 -83 -58 -135t-146 -52q-65 0 -118 23q-26 11 -47 11q-12 0 -20 -9t-8 -24h-22l-29 212h22q67 -177 206 -177 q53 0 86 31.5t33 80.5q0 47 -29 79q-48 52 -168 116q-122 65 -122 172q0 80 49 127.5t125 47.5q53 0 105 -22q27 -12 44 -12q26 0 32 34h21z" />
<glyph unicode="T" horiz-adv-x="611" d="M593 492h-24q-16 82 -45 105t-109 23h-59v-509q0 -57 17 -73t79 -19v-19h-292v19q63 4 78.5 21t15.5 83v497h-60q-81 0 -109.5 -23.5t-43.5 -104.5h-24l7 170h562z" />
<glyph unicode="U" horiz-adv-x="722" d="M705 662v-19q-61 -6 -77.5 -29.5t-16.5 -97.5v-255q0 -77 -11 -121t-43 -81q-64 -73 -202 -73q-109 0 -170 46q-81 60 -81 217v310q0 50 -15.5 65t-74.5 19v19h283v-19q-60 -5 -75.5 -21.5t-15.5 -72.5v-312q0 -65 8 -100t36 -62q47 -45 128 -45q101 0 152 59 q23 28 30 61.5t7 99.5v263q0 78 -17 102t-77 28v19h232z" />
<glyph unicode="V" horiz-adv-x="722" d="M697 662v-19q-31 -1 -51 -19.5t-41 -71.5l-222 -563h-15l-244 544q-32 71 -51 90t-57 20v19h265v-19l-28 -2q-45 -3 -45 -31q0 -20 39 -107l152 -342l147 369q19 48 19 72q0 7 -1.5 12.5t-3.5 9.5t-7.5 7t-8.5 4.5t-11 3t-11.5 2t-14 1.5t-14.5 1v19h204z" />
<glyph unicode="W" horiz-adv-x="944" d="M932 662v-19q-40 -8 -54.5 -19.5t-28.5 -50.5q-114 -306 -204 -584h-15l-160 423l-154 -423h-15q-34 101 -101 285l-91 249q-25 72 -45.5 95.5t-58.5 24.5v19h244v-19q-37 -1 -50.5 -8t-13.5 -23q0 -17 11 -47l144 -376l104 283l-28 75q-24 65 -41 80t-61 16v19h265v-19 q-77 -2 -77 -35q0 -13 17 -58l143 -364l126 339q17 48 17 77q0 40 -70 41v19h197z" />
<glyph unicode="X" horiz-adv-x="722" d="M704 0h-296v19l26 2q50 3 50 29q0 22 -51 98l-95 141l-119 -149q-53 -66 -53 -89q0 -15 16.5 -22t59.5 -10v-19h-232v19q39 4 63.5 23t81.5 91l156 195l-106 155q-70 102 -101 128.5t-82 31.5v19h301v-19l-29 -1q-23 -1 -34.5 -7t-11.5 -22q0 -6 1.5 -12.5t6.5 -15.5 l8 -17l12 -20l15 -22l19 -28l21 -30l44 -64l112 140q40 49 40 67q0 17 -14 24t-54 8v19h237v-19q-48 -3 -76 -21.5t-76 -77.5l-143 -177l192 -274q29 -42 50 -55.5t61 -18.5v-19z" />
<glyph unicode="Y" horiz-adv-x="722" d="M703 662v-19q-44 -4 -69.5 -25t-68.5 -87l-148 -228v-192q0 -57 19 -73t84 -19v-19h-306v19q68 5 84.5 21.5t16.5 82.5v171l-131 192q-68 100 -97 127.5t-65 29.5v19h279v-19l-24 -1q-47 -1 -47 -26q0 -21 18 -47l146 -221l145 222q14 21 14 42q-1 17 -15.5 23.5 t-52.5 7.5v19h218z" />
<glyph unicode="Z" horiz-adv-x="612" d="M598 176l-25 -176h-563v15l437 609h-214q-99 0 -134 -35q-18 -19 -25.5 -37.5t-15.5 -60.5h-26l21 171h525v-15l-432 -609h252q78 0 117 28q23 16 34 37.5t26 72.5h23z" />
<glyph unicode="[" horiz-adv-x="333" d="M299 -156h-211v818h211v-25h-83q-26 0 -39 -11t-13 -37v-666q0 -54 52 -54h83v-25z" />
<glyph unicode="\" horiz-adv-x="278" d="M287 -14h-68l-228 690h67z" />
<glyph unicode="]" horiz-adv-x="333" d="M245 -156h-211v25h88q26 0 36.5 11t10.5 35v668q0 54 -51 54h-84v25h211v-818z" />
<glyph unicode="^" horiz-adv-x="469" d="M446 297h-68l-143 289l-143 -289h-68l181 365h60z" />
<glyph unicode="_" horiz-adv-x="500" d="M500 -125h-500v50h500v-50z" />
<glyph unicode="`" horiz-adv-x="333" d="M242 507h-40l-154 96q-30 19 -30 43q0 32 36 32q21 0 43 -23z" />
<glyph unicode="a" horiz-adv-x="444" d="M442 66v-28q-38 -48 -90 -48q-57 0 -64 73h-1q-64 -73 -145 -73q-47 0 -76 27.5t-29 76.5q0 70 70 117q48 32 180 81v54q0 45 -21.5 67.5t-56.5 22.5q-30 0 -50 -14.5t-20 -34.5q0 -9 3 -20t3 -22q0 -15 -13.5 -28t-32.5 -13q-17 0 -30 13t-13 33q0 48 51 80 q47 30 115 30q81 0 118 -45q18 -21 23 -42.5t5 -68.5v-191q0 -66 31 -66q20 0 43 19zM287 127v141q-92 -32 -128 -66q-34 -31 -34 -77q0 -38 19 -57.5t50 -19.5q33 0 58 16q21 15 28 28t7 35z" />
<glyph unicode="b" horiz-adv-x="500" d="M153 681v-305q16 38 52.5 61t82.5 23q79 0 129.5 -63t50.5 -157q0 -110 -67 -180t-167 -70q-61 0 -113 20.5t-52 45.5v510q0 37 -9 47.5t-40 10.5q-7 0 -17 -2v17l30 9l115 35zM153 318v-244q0 -23 28.5 -37.5t68.5 -14.5q59 0 93 43q37 46 37 132q0 98 -39 153 q-33 47 -89 47q-40 0 -69.5 -23.5t-29.5 -55.5z" />
<glyph unicode="c" horiz-adv-x="444" d="M398 156l14 -9q-43 -84 -82 -115q-51 -42 -115 -42q-83 0 -136.5 62.5t-53.5 159.5q0 127 84 197q62 51 135 51q63 0 108.5 -30.5t45.5 -72.5q0 -17 -14 -29.5t-33 -12.5q-35 0 -48 46l-6 22q-8 28 -20 38t-39 10q-61 0 -98.5 -48t-37.5 -126q0 -86 43 -140.5t112 -54.5 q43 0 74 21t67 73z" />
<glyph unicode="d" horiz-adv-x="500" d="M491 42l-147 -52l-4 3v64q-48 -67 -128 -67q-83 0 -134 59.5t-51 155.5q0 106 61 180.5t147 74.5q54 0 105 -43v156q0 31 -9 41t-37 10q-14 0 -22 -1v16q91 24 147 44l5 -2v-567q0 -35 8.5 -46t35.5 -11q6 0 23 1v-16zM340 102v230q0 40 -30.5 70t-71.5 30q-57 0 -91 -51 t-34 -136q0 -92 37.5 -147.5t100.5 -55.5q47 0 74 32q15 17 15 28z" />
<glyph unicode="e" horiz-adv-x="444" d="M408 164l16 -7q-60 -167 -209 -167q-88 0 -139 61.5t-51 165.5q0 107 57 175t150 68q90 0 139 -69q29 -40 34 -114h-308q4 -63 12.5 -96t33.5 -67q42 -55 111 -55q49 0 82.5 24t71.5 81zM99 309h204q-9 63 -29.5 89t-68.5 26q-42 0 -70 -29.5t-36 -85.5z" />
<glyph unicode="f" horiz-adv-x="333" d="M21 450h82q1 60 8 93.5t27 67.5q42 72 141 72q45 0 74.5 -17.5t29.5 -44.5q0 -17 -12 -29t-30 -12q-24 0 -45 36q-24 39 -53 39q-56 0 -56 -89v-116h122v-32h-122v-314q0 -56 16 -71.5t77 -17.5v-15h-260v15q54 3 68.5 18.5t14.5 70.5v314h-82v32z" />
<glyph unicode="g" horiz-adv-x="500" d="M470 388h-83q19 -43 19 -84q0 -77 -52 -116t-104 -39q-11 0 -38 3l-19 2q-20 -6 -40 -27t-20 -36q0 -23 78 -27l129 -6q55 -2 88 -31t33 -76q0 -58 -60 -105q-83 -64 -200 -64q-72 0 -122.5 28.5t-50.5 68.5q0 28 22 55.5t76 66.5q-32 15 -42.5 26t-10.5 27q0 29 46 69 q23 19 43 40q-50 25 -71.5 56t-21.5 78q0 68 48.5 115.5t118.5 47.5q40 0 80 -15l22 -8q29 -10 55 -10h77v-39zM152 338v-3q0 -72 28.5 -116.5t74.5 -44.5q34 0 54 24.5t20 65.5q0 66 -30 121q-25 47 -73 47q-35 0 -54.5 -25t-19.5 -69zM433 -64q0 28 -27.5 38.5t-96.5 10.5 q-99 0 -162 13q-30 -36 -39.5 -52.5t-9.5 -33.5q0 -33 39.5 -53t105.5 -20q85 0 137.5 26.5t52.5 70.5z" />
<glyph unicode="h" horiz-adv-x="500" d="M487 0h-212v15q44 5 56 20t12 67v198q0 106 -74 106q-30 0 -55 -14t-57 -49v-241q0 -52 12 -67t56 -20v-15h-216v15q43 6 53.5 20t10.5 67v471q0 32 -9.5 41.5t-41.5 9.5q-9 0 -12 -1v16l27 8q77 23 115 36l5 -3v-304q35 45 69 64.5t78 19.5q123 0 123 -159v-199 q0 -52 9.5 -65.5t50.5 -21.5v-15z" />
<glyph unicode="i" horiz-adv-x="278" d="M180 632q0 -22 -15 -36.5t-37 -14.5q-21 0 -35.5 14.5t-14.5 36.5q0 21 15 36t36 15q22 0 36.5 -15t14.5 -36zM253 0h-237v15q52 3 65.5 18t13.5 71v227q0 35 -7 49t-26 14q-24 0 -42 -5v16l155 55l4 -4v-351q0 -56 12.5 -71t61.5 -19v-15z" />
<glyph unicode="j" horiz-adv-x="278" d="M193 457v-457q0 -107 -43.5 -162.5t-126.5 -55.5q-41 0 -67 15.5t-26 39.5q0 16 12 27.5t29 11.5q23 0 48 -32q23 -28 42 -28q23 0 34 18q14 25 14 121v379q0 60 -32 60q-24 0 -40 -3l-5 -1v16q80 25 156 54zM194 632q0 -22 -15 -36.5t-37 -14.5q-21 0 -35.5 14.5 t-14.5 36.5q0 21 15 36t36 15t36 -15t15 -36z" />
<glyph unicode="k" horiz-adv-x="500" d="M505 0h-218v15h19q21 0 21 15q0 9 -11 23l-150 198v-184q0 -26 12.5 -38t42.5 -13l20 -1v-15h-234v15q54 9 64.5 18.5t10.5 48.5v482q0 36 -9 48.5t-34 12.5q-6 0 -32 -2v16l30 8q60 16 125 36l4 -2v-420l137 122q23 21 23 35q0 10 -10.5 13.5t-39.5 4.5v14h204v-15 q-50 0 -88.5 -21.5t-127.5 -104.5l-29 -27l153 -194q54 -69 117 -73v-15z" />
<glyph unicode="l" horiz-adv-x="278" d="M257 0h-236v15q47 4 62 19.5t15 57.5v469q0 36 -9 50t-33 14q-21 0 -37 -2v16q95 23 158 44l5 -4v-592q0 -42 14 -55.5t61 -16.5v-15z" />
<glyph unicode="m" horiz-adv-x="778" d="M775 0h-218v15q42 4 53.5 17.5t11.5 57.5v206q0 60 -17.5 86t-59.5 26q-35 0 -59.5 -14t-47.5 -47v-252q0 -48 14.5 -63.5t57.5 -16.5v-15h-224v15q44 3 56 14.5t12 56.5v211q0 111 -65 111q-28 0 -59.5 -12.5t-46.5 -30.5q-13 -15 -13 -17v-278q0 -32 14 -42.5t54 -12.5 v-15h-222v15q42 1 56 15.5t14 57.5v248q0 37 -8 51.5t-27 14.5q-15 0 -32 -4v17q68 19 139 45l8 -3v-74h2q45 47 79.5 62t73.5 15q79 0 106 -84q78 84 163 84q116 0 116 -180v-203q0 -33 10 -45.5t33 -14.5l26 -2v-15z" />
<glyph unicode="n" horiz-adv-x="500" d="M485 0h-208l1 15q37 3 49.5 21.5t12.5 68.5v199q0 101 -73 101q-25 0 -47 -12t-56 -45v-276q0 -30 13.5 -42t51.5 -15v-15h-211v15q38 3 50 18.5t12 60.5v243q0 37 -7 51t-28 14q-20 0 -29 -4v17q70 20 137 45l8 -3v-78h1q71 81 144 81q57 0 87.5 -40t30.5 -114v-221 q0 -40 12 -53t49 -17v-15z" />
<glyph unicode="o" horiz-adv-x="500" d="M470 231q0 -105 -62.5 -173t-162.5 -68q-92 0 -154 67.5t-62 170.5q0 104 62 168t163 64q93 0 154.5 -63.5t61.5 -165.5zM380 204q0 114 -50 178q-40 50 -95 50q-52 0 -84 -42.5t-32 -116.5q0 -128 53 -205q34 -50 90 -50q55 0 86.5 49.5t31.5 136.5z" />
<glyph unicode="p" horiz-adv-x="500" d="M159 458v-77q63 79 144 79q73 0 120 -60t47 -153q0 -109 -60.5 -183t-149.5 -74q-31 0 -52.5 9t-48.5 34v-157q0 -47 16 -60.5t72 -14.5v-18h-242v17q44 4 57 17t13 52v468q0 35 -8 46t-33 11q-16 0 -25 -1v16q70 21 144 51zM159 334v-246q0 -22 34.5 -44t69.5 -22 q54 0 87.5 51t33.5 134q0 88 -33.5 140.5t-89.5 52.5q-35 0 -68.5 -22t-33.5 -44z" />
<glyph unicode="q" horiz-adv-x="500" d="M488 -217h-236v17q53 4 71 19t18 57v188q-68 -74 -157 -74q-70 0 -115 60t-45 155q0 108 63.5 181.5t156.5 73.5q56 0 116 -35l54 32h11v-598q0 -32 12 -43.5t51 -15.5v-17zM341 127v206q0 98 -93 98q-64 0 -101 -51t-37 -139q0 -52 15.5 -96.5t40.5 -66.5q30 -27 75 -27 q53 0 88 32q12 11 12 44z" />
<glyph unicode="r" horiz-adv-x="333" d="M160 458v-92q38 54 63.5 74t56.5 20q26 0 40.5 -14t14.5 -39q0 -21 -10.5 -33t-28.5 -12q-19 0 -40 20q-16 15 -26 15q-21 0 -45.5 -29t-24.5 -53v-225q0 -43 17 -58t68 -17v-15h-240v15q48 9 59.5 20t11.5 49v250q0 33 -7.5 46.5t-26.5 13.5q-16 0 -35 -4v16 q63 20 148 54z" />
<glyph unicode="s" horiz-adv-x="389" d="M156 301l104 -63q50 -30 69 -56t19 -67q0 -50 -41.5 -87.5t-98.5 -37.5q-47 0 -73 9q-27 9 -46 9q-17 0 -24 -12h-13v157h16q16 -73 46 -107t81 -34q37 0 60 21t23 53q0 46 -53 75l-54 30q-120 67 -120 145q0 58 37.5 90.5t100.5 32.5q44 0 67 -11q18 -8 28 -8q7 0 16 10 h11l5 -136h-15q-17 68 -42.5 95.5t-70.5 27.5q-34 0 -54.5 -17t-20.5 -51q0 -17 11.5 -36.5t31.5 -31.5z" />
<glyph unicode="t" horiz-adv-x="278" d="M266 77l13 -11q-48 -76 -121 -76q-88 0 -88 127v301h-53q-4 3 -4 7q0 8 17 19q38 22 97 107q2 3 9.5 12.5t10.5 15.5q7 0 7 -13v-116h101v-32h-101v-286q0 -48 12 -69t40 -21q30 0 60 35z" />
<glyph unicode="u" horiz-adv-x="500" d="M480 50v-14q-78 -21 -137 -45l-5 3v82h-2q-63 -86 -143 -86q-57 0 -89.5 35t-32.5 93v251q0 37 -13 51t-49 16v14h146v-323q0 -34 20.5 -56.5t50.5 -22.5q49 0 84 31q13 12 18 22.5t5 35.5v231q0 39 -14 50.5t-60 14.5v17h158v-343q0 -35 11.5 -46t45.5 -11h6z" />
<glyph unicode="v" horiz-adv-x="500" d="M477 450v-15q-23 -2 -34 -15t-31 -63l-128 -321q-20 -50 -28 -50t-18 26q-2 3 -4 10t-4 11l-120 287q-32 76 -47 94.5t-44 20.5v15h196v-15q-26 -2 -36 -8t-10 -19q0 -16 9 -38l102 -256l99 259q6 15 6 30q0 28 -47 32v15h139z" />
<glyph unicode="w" horiz-adv-x="722" d="M694 450v-15q-15 -5 -22 -14.5t-19 -39.5l-138 -346q-20 -49 -28 -49q-5 0 -8.5 6.5t-15.5 36.5l-91 236l-112 -240q-18 -39 -25 -39q-9 0 -26 44l-135 342q-15 39 -25 50t-28 13v15h180v-15q-26 -3 -36 -10t-10 -23q0 -15 6 -30l99 -261l91 199l-20 56q-14 40 -27.5 53 t-41.5 16v15h203v-15q-35 -5 -46.5 -12t-11.5 -23t17 -60l84 -224l90 222q17 42 17 67q0 12 -9.5 18.5t-34.5 11.5v15h123z" />
<glyph unicode="x" horiz-adv-x="500" d="M479 0h-201v15q25 2 32.5 6.5t7.5 17.5q0 9 -6 18l-91 140l-79 -123q-20 -31 -20 -41q0 -18 40 -18v-15h-145v15q25 2 38.5 11.5t34.5 39.5l114 165l-94 144q-23 35 -39 47.5t-38 12.5h-9v15h207v-15q-43 -1 -43 -22t46 -89q13 -18 14 -20q5 6 30 44q5 9 12 19t10.5 16 t7.5 12t5.5 10.5t1.5 7.5q0 19 -40 22v15h158v-15q-51 -2 -81 -44l-83 -120l128 -196q39 -60 82 -60v-15z" />
<glyph unicode="y" horiz-adv-x="500" d="M475 450v-15q-18 -2 -29 -13t-21 -38l-150 -409q-39 -106 -78.5 -149.5t-96.5 -43.5q-32 0 -51 16.5t-19 41.5q0 19 12.5 32.5t30.5 13.5q29 0 52 -13q13 -7 26 -7q21 0 50 44q14 20 27 57t13 51q0 13 -42 101l-132 282q-13 29 -53 35v14h205v-15q-32 -1 -44.5 -7 t-12.5 -20q0 -11 13 -41l112 -250l97 276q4 9 4 18q0 24 -46 24v15h133z" />
<glyph unicode="z" horiz-adv-x="444" d="M418 136l-15 -136h-376v15l266 405h-135q-47 0 -63.5 -16.5t-23.5 -71.5h-18l4 118h346v-15l-269 -405h133q84 0 106 27q14 17 27 83z" />
<glyph unicode="{" horiz-adv-x="480" d="M350 -170v-11q-84 1 -121 25q-44 28 -44 115v177q0 52 -17.5 75t-67.5 39q50 15 67.5 38t17.5 75v178q0 87 44 114q38 24 121 25v-11q-52 -13 -71.5 -40t-19.5 -83v-168q0 -62 -19 -88t-75 -41q56 -14 75 -40t19 -88v-168q0 -56 19.5 -83t71.5 -40z" />
<glyph unicode="|" horiz-adv-x="200" d="M133 -14h-66v690h66v-690z" />
<glyph unicode="}" horiz-adv-x="480" d="M295 540v-177q0 -52 17.5 -75t67.5 -38q-50 -16 -67.5 -39t-17.5 -75v-178q0 -87 -44 -114q-38 -24 -121 -25v11q52 13 71.5 40t19.5 83v168q0 62 19 88t75 41q-56 14 -75 39.5t-19 88.5v168q0 56 -19.5 83t-71.5 40v11q84 -1 121 -25q44 -28 44 -115z" />
<glyph unicode="~" horiz-adv-x="541" d="M466 325l36 -51q-32 -47 -61 -66.5t-64 -19.5q-10 0 -17.5 0.5t-16.5 3.5l-14 4q-5 1 -15 6l-16 7q-4 2 -19 10.5t-22 11.5q-50 25 -97 25q-26 0 -48.5 -19.5t-35.5 -53.5l-36 50q44 87 125 87q25 0 46 -6t71 -28l18 -8q15 -8 25.5 -12.5t26 -9t26.5 -4.5q31 0 49.5 18 t38.5 55z" />
<glyph unicode="&#xa1;" horiz-adv-x="330" d="M202 417q0 -23 -15.5 -39t-38.5 -16q-22 0 -37 16t-15 39q0 22 15 36.5t38 14.5t38 -14.5t15 -36.5zM156 282l44 -381q2 -18 2 -39q0 -35 -14.5 -57.5t-38.5 -22.5q-53 0 -53 79q0 14 2 38l45 383h13z" />
<glyph unicode="&#xa2;" horiz-adv-x="500" d="M435 164l13 -8q-25 -52 -43.5 -78t-44.5 -49q-44 -38 -102 -38q-26 0 -57 9l-49 -138h-34l51 150q-50 28 -74 64q-42 61 -42 143q0 101 63.5 171t156.5 70q21 0 51 -5l44 124h35l-47 -135q75 -30 75 -84q0 -20 -12 -32.5t-31 -12.5t-32 11.5t-26 40.5l-101 -291 q31 -12 59 -12q44 0 76 22t71 78zM198 98l115 323q-23 9 -47 9q-61 0 -98.5 -46.5t-37.5 -123.5q0 -54 15.5 -91t52.5 -71z" />
<glyph unicode="&#xa3;" horiz-adv-x="500" d="M344 328h-121q1 -20 1 -61q0 -31 -25 -156q84 -35 149 -35q68 0 113 49q15 16 23 16q6 0 6 -5q0 -14 -14.5 -42.5t-30.5 -45.5q-52 -55 -122 -55q-33 0 -63.5 13t-81.5 48q-30 -36 -51 -49t-47 -13q-31 0 -49.5 16.5t-18.5 45.5q0 34 25 55t66 21q22 0 46 -5q3 12 3 21 q0 47 -16 149l-5 33h-108v45h107q-7 36 -7 69q0 107 53 170.5t142 63.5q56 0 93 -26.5t37 -66.5q0 -23 -14 -38t-36 -15t-30 13.5t-9 53.5q-1 52 -56 52q-45 0 -70 -36t-25 -101q0 -44 11 -139h125v-45zM142 76q0 7 -17.5 12.5t-36.5 5.5q-50 0 -50 -37q0 -17 11.5 -27 t30.5 -10q28 0 47 25q15 18 15 31z" />
<glyph unicode="&#xa4;" horiz-adv-x="500" d="M522 40l-48 -50l-98 98q-59 -41 -125 -41q-68 0 -127 41l-96 -98l-50 50l98 96q-41 59 -41 126q0 69 41 126l-98 98l50 48l96 -96q61 39 127 39q69 0 125 -39l98 96l48 -48l-96 -98q39 -58 39 -125q0 -66 -39 -127zM397 264q0 62 -43 105.5t-105 43.5q-60 0 -103 -44 t-43 -106q0 -63 43.5 -107.5t104.5 -44.5q62 0 104 44.5t42 108.5z" />
<glyph unicode="&#xa5;" horiz-adv-x="500" d="M512 662v-19q-39 -8 -65.5 -32t-52.5 -75l-92 -184h146v-40h-166l-7 -14v-76h173v-40h-173v-73q0 -53 16 -71t64 -19v-19h-244v19q50 2 64.5 20.5t14.5 80.5v62h-174v40h174v76l-7 14h-167v40h144l-95 173q-41 74 -62 95t-56 23v19h243v-19q-36 -1 -50.5 -7t-14.5 -21 q0 -20 13 -46l118 -221l112 220q14 26 14 45q0 13 -14.5 21.5t-36.5 8.5h-14v19h195z" />
<glyph unicode="&#xa6;" horiz-adv-x="200" d="M133 400h-66v276h66v-276zM133 -14h-66v276h66v-276z" />
<glyph unicode="&#xa7;" horiz-adv-x="500" d="M200 513l137 -113q89 -74 89 -155q0 -55 -33 -87.5t-89 -32.5h-12q56 -49 75 -78t19 -68q0 -57 -39.5 -92t-104.5 -35q-58 0 -98 29t-40 71q0 23 15.5 38.5t38.5 15.5q20 0 34 -12t14 -30q0 -22 -23 -41q-11 -9 -11 -15q0 -14 21.5 -24.5t49.5 -10.5q40 0 63.5 21 t23.5 56q0 29 -20.5 55.5t-68.5 59.5q-92 63 -131.5 114.5t-39.5 106.5q0 51 32.5 85t81.5 34q16 0 26 -1q-60 50 -80 80t-20 70q0 55 38.5 88.5t100.5 33.5q55 0 91.5 -28t36.5 -70q0 -25 -13.5 -39t-37.5 -14q-21 0 -34 12t-13 31q0 26 26 44q8 7 8 11q0 14 -18 23t-44 9 q-38 0 -61.5 -19.5t-23.5 -51.5q0 -42 34 -71zM374 211q0 41 -53 94q-80 78 -131 78q-29 0 -48 -19t-19 -47q0 -42 46 -88q84 -83 136 -83q27 0 48 20t21 45z" />
<glyph unicode="&#xa8;" horiz-adv-x="333" d="M316 572q0 -20 -15 -34.5t-36 -14.5q-20 0 -34 14.5t-14 35.5q0 20 14.5 34.5t34.5 14.5t35 -15t15 -35zM117 572q0 -20 -15 -34.5t-36 -14.5q-20 0 -34 14.5t-14 35.5q0 20 14.5 34.5t34.5 14.5t35 -15t15 -35z" />
<glyph unicode="&#xa9;" horiz-adv-x="760" d="M547 248l-17 -76q-2 -10 -52.5 -20.5t-95.5 -10.5q-88 0 -140 51.5t-52 136.5q0 92 61 147.5t160 55.5q55 0 107 -22q13 -6 13 -17v-71h-17q-6 44 -34 67t-70 23q-66 0 -104.5 -48.5t-38.5 -126.5q0 -82 40.5 -129t107.5 -47q41 0 68.5 20.5t47.5 66.5h16zM722 330 q0 -145 -99 -244.5t-242 -99.5q-144 0 -243.5 100t-99.5 244q0 146 100.5 246t247.5 100q139 0 237.5 -101.5t98.5 -244.5zM667 334q0 124 -85.5 212t-204.5 88q-115 0 -199.5 -90.5t-84.5 -212.5q0 -124 85 -213.5t203 -89.5t202 90t84 216z" />
<glyph unicode="&#xaa;" horiz-adv-x="276" d="M270 442v-18q-31 -30 -59 -30q-20 0 -30 10t-15 34q-47 -44 -91 -44q-31 0 -51 19t-20 49q0 32 22 51q20 17 41 27t90 36v30q0 42 -36 42q-17 0 -31 -7t-14 -16q0 -2 2 -14q1 -3 1 -8q0 -10 -9 -17.5t-22 -7.5q-14 0 -23 9t-9 22q0 29 30.5 48t77.5 19q105 0 105 -96 v-115q0 -21 2.5 -28t10.5 -7q15 0 28 12zM158 474v77q-53 -19 -72 -33t-19 -33q0 -18 11 -31t27 -13q19 0 42 11q11 10 11 22z" />
<glyph unicode="&#xab;" horiz-adv-x="500" d="M42 227l81 73l48 44l56 53q22 19 26 19q11 0 11 -11q0 -6 -50 -72l-84 -106q23 -27 84 -107q50 -65 50 -76t-12 -11q-4 0 -27 21l-54 54l-48 46zM234 227l81 73l48 44l56 53q22 19 26 19q11 0 11 -11q0 -6 -50 -72l-84 -106q23 -27 84 -107q50 -65 50 -76t-12 -11 q-4 0 -27 21l-54 54l-48 46z" />
<glyph unicode="&#xac;" horiz-adv-x="600" d="M552 115h-66v212h-438v66h504v-278z" />
<glyph unicode="&#xad;" horiz-adv-x="333" d="M285 194h-246v63h246v-63z" />
<glyph unicode="&#xae;" horiz-adv-x="760" d="M567 152h-64q-28 0 -71 79q-15 27 -52 83h-48v-92q0 -35 7 -44t40 -11v-15h-160l1 15q35 3 41.5 11t6.5 44v230q0 33 -7 41.5t-40 11.5v15h172q56 0 87 -26.5t31 -71.5q0 -32 -20 -59t-59 -39l57 -79q39 -53 78 -85v-8zM332 333h43q32 0 50.5 24t18.5 61q0 83 -74 83h-38 v-168zM722 329q0 -144 -99 -243.5t-242 -99.5q-145 0 -244 100t-99 246q0 145 100.5 244.5t246.5 99.5q140 0 238.5 -101.5t98.5 -245.5zM667 330q0 127 -84.5 215.5t-204.5 88.5q-115 0 -200 -90.5t-85 -212.5q0 -124 85 -213.5t203 -89.5q117 0 201.5 89.5t84.5 212.5z " />
<glyph unicode="&#xaf;" horiz-adv-x="333" d="M322 547h-311v54h311v-54z" />
<glyph unicode="&#xb0;" horiz-adv-x="400" d="M343 533q0 -60 -41.5 -101.5t-101.5 -41.5q-61 0 -102 41.5t-41 102.5q0 60 42 101t103 41q58 0 99.5 -42t41.5 -101zM304 534q0 44 -31.5 76t-74.5 32q-41 0 -71.5 -32.5t-30.5 -76.5q0 -45 30.5 -77t73.5 -32t73.5 32.5t30.5 77.5z" />
<glyph unicode="&#xb1;" d="M637 242h-262v-209h-66v209h-261v66h261v194h66v-194h262v-66zM637 -87h-589v66h589v-66z" />
<glyph unicode="&#xb2;" horiz-adv-x="300" d="M296 355l-39 -85h-251v24l101 108q78 84 78 138q0 32 -20.5 54t-50.5 22q-54 0 -88 -74l-25 15q22 64 55 91.5t95 27.5q58 0 92 -30.5t34 -78.5q0 -37 -19 -70.5t-67 -80.5l-84 -81h113q40 0 58 27z" />
<glyph unicode="&#xb3;" horiz-adv-x="300" d="M204 511v-2q43 -11 65 -41.5t22 -68.5q0 -60 -52 -98.5t-135 -38.5q-40 0 -65.5 16t-25.5 40q0 31 37 31q15 0 41 -19q27 -20 51 -20q30 0 49 20t19 51q0 39 -23.5 60.5t-65.5 21.5q-4 0 -28 -3v29q52 18 73.5 37.5t21.5 46.5q0 47 -56 47q-27 0 -46.5 -13t-39.5 -45 l-25 19q27 51 58.5 73t76.5 22q46 0 77 -24t31 -59q0 -52 -60 -82z" />
<glyph unicode="&#xb4;" horiz-adv-x="333" d="M93 507l147 148q23 23 42 23q35 0 35 -32q0 -23 -30 -42l-154 -97h-40z" />
<glyph unicode="&#xb5;" horiz-adv-x="500" d="M430 450v-354q0 -69 31 -69q19 0 51 29v-9q-26 -33 -43.5 -45t-45.5 -12q-30 0 -52.5 24t-23.5 66h-2q-49 -90 -131 -90q-43 0 -71 17.5t-52 56.5q1 -24 19 -100.5t18 -104.5q0 -77 -48 -77q-21 0 -32.5 21.5t-11.5 55.5q0 29 12 107t12 88v396h88v-295q0 -51 22 -77 t62 -26q79 0 110 63v335h88z" />
<glyph unicode="&#xb6;" horiz-adv-x="592" d="M532 -154h-154v794h-58v-794h-155v22q58 4 73.5 22t15.5 81v302q-99 8 -146.5 52.5t-47.5 145.5q0 98 50 144.5t159 46.5h263v-19q-56 -5 -72 -24.5t-16 -76.5v-583q0 -54 15.5 -70.5t72.5 -20.5v-22zM254 295v345q-69 -7 -93.5 -43.5t-24.5 -123.5t27 -129t91 -49z" />
<glyph unicode="&#xb7;" horiz-adv-x="250" d="M181 253q0 -22 -16.5 -38t-39.5 -16t-39 16t-16 39t16.5 39.5t39.5 16.5q22 0 38.5 -17t16.5 -40z" />
<glyph unicode="&#xb8;" horiz-adv-x="333" d="M174 0l-25 -65q15 3 26 3q41 0 63.5 -18t22.5 -51q0 -39 -33.5 -61.5t-91.5 -22.5q-45 0 -84 16l14 31q36 -12 65 -12q25 0 40 12t15 32q0 19 -12 27.5t-41 8.5q-17 0 -28 -4l-7 5l41 99h35z" />
<glyph unicode="&#xb9;" horiz-adv-x="300" d="M248 270h-191v24q32 2 42.5 9t10.5 24v254q0 30 -9 30q-12 0 -42 -14v24l118 55l14 -4v-339q0 -20 13 -29.5t44 -9.5v-24z" />
<glyph unicode="&#xba;" horiz-adv-x="310" d="M304 542q0 -63 -43.5 -105.5t-109.5 -42.5q-63 0 -104 39t-41 100q0 64 42 103.5t111 39.5q64 0 104.5 -37.5t40.5 -96.5zM231 516q0 56 -23 91.5t-60 35.5q-31 0 -50 -20.5t-19 -53.5q0 -63 25 -108q19 -34 56 -34q71 0 71 89z" />
<glyph unicode="&#xbb;" horiz-adv-x="500" d="M265 222l-81 -73l-47 -45l-58 -52q-21 -19 -25 -19q-11 0 -11 11q0 6 50 72l84 106q-23 27 -84 107q-50 65 -50 76t12 11q4 0 26 -22l56 -53l47 -46zM458 222l-81 -73l-47 -45l-58 -52q-21 -19 -25 -19q-11 0 -11 11q0 6 50 72l84 106q-23 27 -84 107q-50 65 -50 76 t12 11q4 0 26 -22l56 -53l47 -46z" />
<glyph unicode="&#xbc;" horiz-adv-x="750" d="M632 676l-450 -690h-49l453 690h46zM713 90h-55v-90h-70v90h-180v49l203 266h47v-258h55v-57zM588 147v179l-135 -179h135zM223 270h-181v24q32 2 42.5 9t10.5 24v254q0 30 -9 30q-12 0 -42 -14v24l108 55l14 -4v-339q0 -20 13 -29.5t44 -9.5v-24z" />
<glyph unicode="&#xbd;" horiz-adv-x="750" d="M741 85l-39 -85h-251v24l101 108q78 84 78 138q0 32 -20.5 54t-50.5 22q-54 0 -88 -74l-25 15q22 64 55 91.5t95 27.5q58 0 92 -30.5t34 -78.5q0 -37 -19 -70.5t-67 -80.5l-84 -81h113q40 0 58 27zM595 676l-450 -690h-49l453 690h46zM217 270h-181v24q32 2 42.5 9 t10.5 24v254q0 30 -9 30q-12 0 -42 -14v24l108 55l14 -4v-339q0 -20 13 -29.5t44 -9.5v-24z" />
<glyph unicode="&#xbe;" horiz-adv-x="750" d="M204 511v-2q43 -11 65 -41.5t22 -68.5q0 -60 -52 -98.5t-135 -38.5q-40 0 -65.5 16t-25.5 40q0 31 37 31q15 0 41 -19q27 -20 51 -20q30 0 49 20t19 51q0 39 -23.5 60.5t-65.5 21.5q-4 0 -28 -3v29q52 18 73.5 37.5t21.5 46.5q0 47 -56 47q-27 0 -46.5 -13t-39.5 -45 l-25 19q27 51 58.5 73t76.5 22q46 0 77 -24t31 -59q0 -52 -60 -82zM637 676l-450 -690h-49l453 690h46zM718 90h-55v-90h-70v90h-180v49l203 266h47v-258h55v-57zM593 147v179l-135 -179h135z" />
<glyph unicode="&#xbf;" horiz-adv-x="444" d="M260 416q0 -23 -15.5 -39t-38.5 -16q-22 0 -37 16t-15 39q0 22 15 36.5t38 14.5t38 -14.5t15 -36.5zM200 294h17q-2 -84 -58 -206q-37 -80 -37 -157q0 -50 31.5 -84.5t77.5 -34.5q36 0 65 19t29 43q0 11 -17 31q-21 24 -21 43t11 30t30 11q48 0 48 -62t-46.5 -103.5 t-115.5 -41.5q-41 0 -81.5 16t-66.5 42q-36 36 -36 97q0 45 20.5 83.5t84.5 119.5q49 61 65 154z" />
<glyph unicode="&#xc0;" horiz-adv-x="722" d="M451 757h-40l-154 96q-30 19 -30 43q0 32 36 32q21 0 43 -23zM707 0h-255v19q40 0 55 9q14 7 14 24q0 26 -19 70l-41 94h-262l-46 -114q-9 -23 -9 -42q0 -23 16.5 -32t53.5 -9v-19h-199v19q42 4 61 30.5t65 136.5l206 488h20l246 -563q22 -52 39.5 -70t54.5 -22v-19z M447 257l-116 275l-115 -275h231z" />
<glyph unicode="&#xc1;" horiz-adv-x="722" d="M276 757l147 148q23 23 42 23q35 0 35 -32q0 -23 -30 -42l-154 -97h-40zM707 0h-255v19q40 0 55 9q14 7 14 24q0 26 -19 70l-41 94h-262l-46 -114q-9 -23 -9 -42q0 -23 16.5 -32t53.5 -9v-19h-199v19q42 4 61 30.5t65 136.5l206 488h20l246 -563q22 -52 39.5 -70 t54.5 -22v-19zM447 257l-116 275l-115 -275h231z" />
<glyph unicode="&#xc2;" horiz-adv-x="722" d="M513 757h-34l-122 103l-121 -103h-34l124 167h62zM707 0h-255v19q40 0 55 9q14 7 14 24q0 26 -19 70l-41 94h-262l-46 -114q-9 -23 -9 -42q0 -23 16.5 -32t53.5 -9v-19h-199v19q42 4 61 30.5t65 136.5l206 488h20l246 -563q22 -52 39.5 -70t54.5 -22v-19zM447 257 l-116 275l-115 -275h231z" />
<glyph unicode="&#xc3;" horiz-adv-x="722" d="M707 0h-255v19q40 0 55 9q14 7 14 24q0 26 -19 70l-41 94h-262l-46 -114q-9 -23 -9 -42q0 -23 16.5 -32t53.5 -9v-19h-199v19q42 4 61 30.5t65 136.5l206 488h20l246 -563q22 -52 39.5 -70t54.5 -22v-19zM447 257l-116 275l-115 -275h231zM495 888h29q-16 -57 -40 -81.5 t-65 -24.5q-32 0 -81 24l-23 11q-24 11 -41 11q-35 0 -51 -46h-29q11 49 37.5 75t63.5 26q34 0 70 -18l24 -12q29 -15 53 -15q17 0 28.5 11t24.5 39z" />
<glyph unicode="&#xc4;" horiz-adv-x="722" d="M508 822q0 -20 -15 -34.5t-36 -14.5q-20 0 -34 14.5t-14 35.5q0 20 14.5 34.5t34.5 14.5t35 -15t15 -35zM309 822q0 -20 -15 -34.5t-36 -14.5q-20 0 -34 14.5t-14 35.5q0 20 14.5 34.5t34.5 14.5t35 -15t15 -35zM707 0h-255v19q40 0 55 9q14 7 14 24q0 26 -19 70l-41 94 h-262l-46 -114q-9 -23 -9 -42q0 -23 16.5 -32t53.5 -9v-19h-199v19q42 4 61 30.5t65 136.5l206 488h20l246 -563q22 -52 39.5 -70t54.5 -22v-19zM447 257l-116 275l-115 -275h231z" />
<glyph unicode="&#xc5;" horiz-adv-x="722" d="M459 861q0 -41 -29.5 -70t-71.5 -29q-41 0 -69.5 29t-28.5 71q0 41 29.5 70t71.5 29q40 0 69 -29.5t29 -70.5zM425 862q0 27 -19.5 46t-47.5 19q-26 0 -45 -19.5t-19 -45.5q0 -28 19 -47t45 -19q28 0 47.5 19t19.5 47zM707 0h-255v19q40 0 55 9q14 7 14 24q0 26 -19 70 l-41 94h-262l-46 -114q-9 -23 -9 -42q0 -23 16.5 -32t53.5 -9v-19h-199v19q42 4 61 30.5t65 136.5l206 488h20l246 -563q22 -52 39.5 -70t54.5 -22v-19zM447 257l-116 275l-115 -275h231z" />
<glyph unicode="&#xc6;" horiz-adv-x="889" d="M863 168l-44 -168h-509v19l17 2q45 5 58 22.5t13 68.5v148h-176q-92 -175 -92 -212q0 -23 67 -29h1v-19h-198v19q32 5 49 19.5t39 58.5l245 484q9 17 9 28q0 33 -90 33v20h564v-141h-23q-10 68 -42 86.5t-142 18.5h-84q-28 0 -28 -37v-223h104q77 0 107.5 19.5t31.5 78.5 h21v-235h-21q-7 59 -28.5 79.5t-73.5 20.5h-141v-235q0 -38 11 -47t59 -9h73q85 0 122.5 24t76.5 106h24zM398 299v319l-158 -319h158z" />
<glyph unicode="&#xc7;" horiz-adv-x="667" d="M614 131l19 -18q-43 -61 -115 -94t-158 -33q-15 0 -24 1l-20 -52q15 3 26 3q41 0 63.5 -18t22.5 -51q0 -39 -33.5 -61.5t-91.5 -22.5q-45 0 -84 16l14 31q36 -12 65 -12q25 0 40 12t15 32q0 19 -12 27.5t-41 8.5q-17 0 -28 -4l-7 5l37 89q-113 15 -186 91q-88 93 -88 248 q0 188 139 287q85 60 195 60q78 0 147 -24q29 -9 40 -9q32 0 41 33h21l9 -226h-23q-11 78 -74 132t-141 54q-108 0 -173 -79.5t-65 -210.5q0 -159 67 -238q66 -78 181 -78q62 0 114 24t108 77z" />
<glyph unicode="&#xc8;" horiz-adv-x="611" d="M402 757h-40l-154 96q-30 19 -30 43q0 32 36 32q21 0 43 -23zM597 169l-46 -169h-539v19q57 4 72 20.5t15 74.5v436q0 56 -15.5 73t-71.5 20v19h530l4 -143h-25q-11 67 -39 86t-115 19h-131q-22 0 -28.5 -6.5t-6.5 -29.5v-220h151q63 0 83.5 18t29.5 78h23v-234h-23 q-9 63 -29 80t-84 17h-151v-243q0 -30 21 -38.5t80 -8.5h36q107 0 152 26t79 106h28z" />
<glyph unicode="&#xc9;" horiz-adv-x="611" d="M245 757l147 148q23 23 42 23q35 0 35 -32q0 -23 -30 -42l-154 -97h-40zM597 169l-46 -169h-539v19q57 4 72 20.5t15 74.5v436q0 56 -15.5 73t-71.5 20v19h530l4 -143h-25q-11 67 -39 86t-115 19h-131q-22 0 -28.5 -6.5t-6.5 -29.5v-220h151q63 0 83.5 18t29.5 78h23 v-234h-23q-9 63 -29 80t-84 17h-151v-243q0 -30 21 -38.5t80 -8.5h36q107 0 152 26t79 106h28z" />
<glyph unicode="&#xca;" horiz-adv-x="611" d="M483 757h-34l-122 103l-121 -103h-34l124 167h62zM597 169l-46 -169h-539v19q57 4 72 20.5t15 74.5v436q0 56 -15.5 73t-71.5 20v19h530l4 -143h-25q-11 67 -39 86t-115 19h-131q-22 0 -28.5 -6.5t-6.5 -29.5v-220h151q63 0 83.5 18t29.5 78h23v-234h-23q-9 63 -29 80 t-84 17h-151v-243q0 -30 21 -38.5t80 -8.5h36q107 0 152 26t79 106h28z" />
<glyph unicode="&#xcb;" horiz-adv-x="611" d="M475 822q0 -20 -15 -34.5t-36 -14.5q-20 0 -34 14.5t-14 35.5q0 20 14.5 34.5t34.5 14.5t35 -15t15 -35zM276 822q0 -20 -15 -34.5t-36 -14.5q-20 0 -34 14.5t-14 35.5q0 20 14.5 34.5t34.5 14.5t35 -15t15 -35zM597 169l-46 -169h-539v19q57 4 72 20.5t15 74.5v436 q0 56 -15.5 73t-71.5 20v19h530l4 -143h-25q-11 67 -39 86t-115 19h-131q-22 0 -28.5 -6.5t-6.5 -29.5v-220h151q63 0 83.5 18t29.5 78h23v-234h-23q-9 63 -29 80t-84 17h-151v-243q0 -30 21 -38.5t80 -8.5h36q107 0 152 26t79 106h28z" />
<glyph unicode="&#xcc;" horiz-adv-x="333" d="M269 757h-40l-154 96q-30 19 -30 43q0 32 36 32q21 0 43 -23zM315 0h-297v19q63 2 80 18.5t17 74.5v439q0 58 -16 73t-81 19v19h297v-19q-63 -3 -80.5 -19t-17.5 -73v-439q0 -56 18 -73.5t80 -19.5v-19z" />
<glyph unicode="&#xcd;" horiz-adv-x="333" d="M64 757l147 148q23 23 42 23q35 0 35 -32q0 -23 -30 -42l-154 -97h-40zM315 0h-297v19q63 2 80 18.5t17 74.5v439q0 58 -16 73t-81 19v19h297v-19q-63 -3 -80.5 -19t-17.5 -73v-439q0 -56 18 -73.5t80 -19.5v-19z" />
<glyph unicode="&#xce;" horiz-adv-x="333" d="M321 757h-34l-122 103l-121 -103h-34l124 167h62zM307 0h-297v19q63 2 80 18.5t17 74.5v439q0 58 -16 73t-81 19v19h297v-19q-63 -3 -80.5 -19t-17.5 -73v-439q0 -56 18 -73.5t80 -19.5v-19z" />
<glyph unicode="&#xcf;" horiz-adv-x="333" d="M315 822q0 -20 -15 -34.5t-36 -14.5q-20 0 -34 14.5t-14 35.5q0 20 14.5 34.5t34.5 14.5t35 -15t15 -35zM116 822q0 -20 -15 -34.5t-36 -14.5q-20 0 -34 14.5t-14 35.5q0 20 14.5 34.5t34.5 14.5t35 -15t15 -35zM314 0h-297v19q63 2 80 18.5t17 74.5v439q0 58 -16 73 t-81 19v19h297v-19q-63 -3 -80.5 -19t-17.5 -73v-439q0 -56 18 -73.5t80 -19.5v-19z" />
<glyph unicode="&#xd0;" horiz-adv-x="722" d="M16 662h270q188 0 293.5 -86.5t105.5 -241.5q0 -76 -29 -142.5t-81 -109.5q-100 -82 -275 -82h-284v19q57 4 72.5 20t15.5 70v206h-83v44h83v194q0 55 -14.5 70t-73.5 20v19zM206 315v-237q0 -24 11 -32.5t40 -8.5q125 0 197 41q122 71 122 249q0 168 -122 250 q-70 48 -199 48q-29 0 -39 -8t-10 -31v-227h146v-44h-146z" />
<glyph unicode="&#xd1;" horiz-adv-x="722" d="M707 662v-19q-51 -5 -66 -18q-16 -14 -22.5 -38t-6.5 -80v-518h-18l-441 549v-388q0 -76 17 -99.5t76 -31.5v-19h-234v19q62 7 79.5 29.5t17.5 101.5v440q-26 32 -44 42.5t-53 10.5v19h170l386 -483v340q0 76 -19 98q-12 13 -26.5 17.5t-52.5 8.5v19h237zM489 888h29 q-16 -57 -40 -81.5t-65 -24.5q-32 0 -81 24l-23 11q-24 11 -41 11q-35 0 -51 -46h-29q11 49 37.5 75t63.5 26q34 0 70 -18l24 -12q29 -15 53 -15q17 0 28.5 11t24.5 39z" />
<glyph unicode="&#xd2;" horiz-adv-x="722" d="M450 757h-40l-154 96q-30 19 -30 43q0 32 36 32q21 0 43 -23zM688 331q0 -154 -91 -249.5t-236 -95.5q-146 0 -236.5 96t-90.5 252q0 152 90.5 247t236.5 95t236.5 -97.5t90.5 -247.5zM574 337q0 85 -24 152.5t-67 103.5q-56 47 -123 47q-85 0 -143 -67 q-32 -36 -50.5 -102.5t-18.5 -138.5q0 -182 90 -265q49 -45 124 -45q78 0 129 48q83 80 83 267z" />
<glyph unicode="&#xd3;" horiz-adv-x="722" d="M259 757l147 148q23 23 42 23q35 0 35 -32q0 -23 -30 -42l-154 -97h-40zM688 331q0 -154 -91 -249.5t-236 -95.5q-146 0 -236.5 96t-90.5 252q0 152 90.5 247t236.5 95t236.5 -97.5t90.5 -247.5zM574 337q0 85 -24 152.5t-67 103.5q-56 47 -123 47q-85 0 -143 -67 q-32 -36 -50.5 -102.5t-18.5 -138.5q0 -182 90 -265q49 -45 124 -45q78 0 129 48q83 80 83 267z" />
<glyph unicode="&#xd4;" horiz-adv-x="722" d="M510 757h-34l-122 103l-121 -103h-34l124 167h62zM688 331q0 -154 -91 -249.5t-236 -95.5q-146 0 -236.5 96t-90.5 252q0 152 90.5 247t236.5 95t236.5 -97.5t90.5 -247.5zM574 337q0 85 -24 152.5t-67 103.5q-56 47 -123 47q-85 0 -143 -67q-32 -36 -50.5 -102.5 t-18.5 -138.5q0 -182 90 -265q49 -45 124 -45q78 0 129 48q83 80 83 267z" />
<glyph unicode="&#xd5;" horiz-adv-x="722" d="M688 331q0 -154 -91 -249.5t-236 -95.5q-146 0 -236.5 96t-90.5 252q0 152 90.5 247t236.5 95t236.5 -97.5t90.5 -247.5zM574 337q0 85 -24 152.5t-67 103.5q-56 47 -123 47q-85 0 -143 -67q-32 -36 -50.5 -102.5t-18.5 -138.5q0 -182 90 -265q49 -45 124 -45 q78 0 129 48q83 80 83 267zM489 888h29q-16 -57 -40 -81.5t-65 -24.5q-32 0 -81 24l-23 11q-24 11 -41 11q-35 0 -51 -46h-29q11 49 37.5 75t63.5 26q34 0 70 -18l24 -12q29 -15 53 -15q17 0 28.5 11t24.5 39z" />
<glyph unicode="&#xd6;" horiz-adv-x="722" d="M503 822q0 -20 -15 -34.5t-36 -14.5q-20 0 -34 14.5t-14 35.5q0 20 14.5 34.5t34.5 14.5t35 -15t15 -35zM304 822q0 -20 -15 -34.5t-36 -14.5q-20 0 -34 14.5t-14 35.5q0 20 14.5 34.5t34.5 14.5t35 -15t15 -35zM688 331q0 -154 -91 -249.5t-236 -95.5q-146 0 -236.5 96 t-90.5 252q0 152 90.5 247t236.5 95t236.5 -97.5t90.5 -247.5zM574 337q0 85 -24 152.5t-67 103.5q-56 47 -123 47q-85 0 -143 -67q-32 -36 -50.5 -102.5t-18.5 -138.5q0 -182 90 -265q49 -45 124 -45q78 0 129 48q83 80 83 267z" />
<glyph unicode="&#xd7;" horiz-adv-x="640" d="M597 22l-46 -47l-231 230l-231 -230l-46 46l230 231l-230 231l47 46l230 -230l231 230l46 -45l-230 -232z" />
<glyph unicode="&#xd8;" horiz-adv-x="722" d="M658 734l-88 -130q57 -53 79 -99q39 -81 39 -173q0 -154 -91.5 -250t-237.5 -96q-91 0 -175 50l-79 -116h-49l95 139q-33 30 -49.5 50.5t-29.5 48.5q-38 78 -38 172q0 152 91.5 249t236.5 97q88 0 175 -49l72 107h49zM194 123l308 452q-62 65 -141 65q-98 0 -155.5 -83.5 t-57.5 -226.5q0 -120 46 -207zM527 540l-308 -452q60 -66 142 -66q99 0 156 82.5t57 225.5q0 120 -47 210z" />
<glyph unicode="&#xd9;" horiz-adv-x="722" d="M453 757h-40l-154 96q-30 19 -30 43q0 32 36 32q21 0 43 -23zM705 662v-19q-61 -6 -77.5 -29.5t-16.5 -97.5v-255q0 -77 -11 -121t-43 -81q-64 -73 -202 -73q-109 0 -170 46q-81 60 -81 217v310q0 50 -15.5 65t-74.5 19v19h283v-19q-60 -5 -75.5 -21.5t-15.5 -72.5v-312 q0 -65 8 -100t36 -62q47 -45 128 -45q101 0 152 59q23 28 30 61.5t7 99.5v263q0 78 -17 102t-77 28v19h232z" />
<glyph unicode="&#xda;" horiz-adv-x="722" d="M264 757l147 148q23 23 42 23q35 0 35 -32q0 -23 -30 -42l-154 -97h-40zM705 662v-19q-61 -6 -77.5 -29.5t-16.5 -97.5v-255q0 -77 -11 -121t-43 -81q-64 -73 -202 -73q-109 0 -170 46q-81 60 -81 217v310q0 50 -15.5 65t-74.5 19v19h283v-19q-60 -5 -75.5 -21.5 t-15.5 -72.5v-312q0 -65 8 -100t36 -62q47 -45 128 -45q101 0 152 59q23 28 30 61.5t7 99.5v263q0 78 -17 102t-77 28v19h232z" />
<glyph unicode="&#xdb;" horiz-adv-x="722" d="M511 757h-34l-122 103l-121 -103h-34l124 167h62zM705 662v-19q-61 -6 -77.5 -29.5t-16.5 -97.5v-255q0 -77 -11 -121t-43 -81q-64 -73 -202 -73q-109 0 -170 46q-81 60 -81 217v310q0 50 -15.5 65t-74.5 19v19h283v-19q-60 -5 -75.5 -21.5t-15.5 -72.5v-312 q0 -65 8 -100t36 -62q47 -45 128 -45q101 0 152 59q23 28 30 61.5t7 99.5v263q0 78 -17 102t-77 28v19h232z" />
<glyph unicode="&#xdc;" horiz-adv-x="722" d="M503 822q0 -20 -15 -34.5t-36 -14.5q-20 0 -34 14.5t-14 35.5q0 20 14.5 34.5t34.5 14.5t35 -15t15 -35zM304 822q0 -20 -15 -34.5t-36 -14.5q-20 0 -34 14.5t-14 35.5q0 20 14.5 34.5t34.5 14.5t35 -15t15 -35zM705 662v-19q-61 -6 -77.5 -29.5t-16.5 -97.5v-255 q0 -77 -11 -121t-43 -81q-64 -73 -202 -73q-109 0 -170 46q-81 60 -81 217v310q0 50 -15.5 65t-74.5 19v19h283v-19q-60 -5 -75.5 -21.5t-15.5 -72.5v-312q0 -65 8 -100t36 -62q47 -45 128 -45q101 0 152 59q23 28 30 61.5t7 99.5v263q0 78 -17 102t-77 28v19h232z" />
<glyph unicode="&#xdd;" horiz-adv-x="722" d="M266 757l147 148q23 23 42 23q35 0 35 -32q0 -23 -30 -42l-154 -97h-40zM703 662v-19q-44 -4 -69.5 -25t-68.5 -87l-148 -228v-192q0 -57 19 -73t84 -19v-19h-306v19q68 5 84.5 21.5t16.5 82.5v171l-131 192q-68 100 -97 127.5t-65 29.5v19h279v-19l-24 -1 q-47 -1 -47 -26q0 -21 18 -47l146 -221l145 222q14 21 14 42q-1 17 -15.5 23.5t-52.5 7.5v19h218z" />
<glyph unicode="&#xde;" horiz-adv-x="556" d="M202 532h80q120 0 190 -49t70 -132q0 -49 -26 -92t-70 -67q-61 -34 -175 -34q-29 0 -69 3v-52q0 -55 17.5 -71.5t76.5 -18.5v-19h-280v19q57 5 70.5 21.5t13.5 79.5v433q0 54 -14 69t-70 21v19h277v-19q-61 -5 -76.5 -24t-14.5 -87zM202 461v-260q33 -3 57 -3 q174 0 174 147q0 78 -47.5 113.5t-151.5 35.5q-19 0 -25.5 -6.5t-6.5 -26.5z" />
<glyph unicode="&#xdf;" horiz-adv-x="500" d="M73 84v370q0 116 43.5 172.5t134.5 56.5q78 0 124 -41t46 -111q0 -54 -28.5 -85.5t-108.5 -68.5q82 -16 122 -51q62 -53 62 -140q0 -83 -51.5 -139t-127.5 -56q-43 0 -70 20.5t-27 52.5q0 20 13 34t32 14q17 0 29 -11.5t13 -28.5l2 -22q1 -16 8 -23t21 -7q28 0 40 18 q24 33 24 112q0 202 -132 207q-32 1 -32 17q0 12 29 15q95 10 95 127q0 66 -24 103t-67 37q-40 0 -63 -29t-23 -78v-549h-145v15q38 3 49.5 16t11.5 53z" />
<glyph unicode="&#xe0;" horiz-adv-x="444" d="M442 66v-28q-38 -48 -90 -48q-57 0 -64 73h-1q-64 -73 -145 -73q-47 0 -76 27.5t-29 76.5q0 70 70 117q48 32 180 81v54q0 45 -21.5 67.5t-56.5 22.5q-30 0 -50 -14.5t-20 -34.5q0 -9 3 -20t3 -22q0 -15 -13.5 -28t-32.5 -13q-17 0 -30 13t-13 33q0 48 51 80 q47 30 115 30q81 0 118 -45q18 -21 23 -42.5t5 -68.5v-191q0 -66 31 -66q20 0 43 19zM287 127v141q-92 -32 -128 -66q-34 -31 -34 -77q0 -38 19 -57.5t50 -19.5q33 0 58 16q21 15 28 28t7 35zM317 507h-40l-154 96q-30 19 -30 43q0 32 36 32q21 0 43 -23z" />
<glyph unicode="&#xe1;" horiz-adv-x="444" d="M119 507l147 148q23 23 42 23q35 0 35 -32q0 -23 -30 -42l-154 -97h-40zM442 66v-28q-38 -48 -90 -48q-57 0 -64 73h-1q-64 -73 -145 -73q-47 0 -76 27.5t-29 76.5q0 70 70 117q48 32 180 81v54q0 45 -21.5 67.5t-56.5 22.5q-30 0 -50 -14.5t-20 -34.5q0 -9 3 -20t3 -22 q0 -15 -13.5 -28t-32.5 -13q-17 0 -30 13t-13 33q0 48 51 80q47 30 115 30q81 0 118 -45q18 -21 23 -42.5t5 -68.5v-191q0 -66 31 -66q20 0 43 19zM287 127v141q-92 -32 -128 -66q-34 -31 -34 -77q0 -38 19 -57.5t50 -19.5q33 0 58 16q21 15 28 28t7 35z" />
<glyph unicode="&#xe2;" horiz-adv-x="444" d="M381 507h-34l-122 103l-121 -103h-34l124 167h62zM442 66v-28q-38 -48 -90 -48q-57 0 -64 73h-1q-64 -73 -145 -73q-47 0 -76 27.5t-29 76.5q0 70 70 117q48 32 180 81v54q0 45 -21.5 67.5t-56.5 22.5q-30 0 -50 -14.5t-20 -34.5q0 -9 3 -20t3 -22q0 -15 -13.5 -28 t-32.5 -13q-17 0 -30 13t-13 33q0 48 51 80q47 30 115 30q81 0 118 -45q18 -21 23 -42.5t5 -68.5v-191q0 -66 31 -66q20 0 43 19zM287 127v141q-92 -32 -128 -66q-34 -31 -34 -77q0 -38 19 -57.5t50 -19.5q33 0 58 16q21 15 28 28t7 35z" />
<glyph unicode="&#xe3;" horiz-adv-x="444" d="M360 638h29q-16 -57 -40 -81.5t-65 -24.5q-32 0 -81 24l-23 11q-24 11 -41 11q-35 0 -51 -46h-29q11 49 37 75t64 26q34 0 70 -18l24 -12q28 -15 53 -15q17 0 28.5 11t24.5 39zM442 66v-28q-38 -48 -90 -48q-57 0 -64 73h-1q-64 -73 -145 -73q-47 0 -76 27.5t-29 76.5 q0 70 70 117q48 32 180 81v54q0 45 -21.5 67.5t-56.5 22.5q-30 0 -50 -14.5t-20 -34.5q0 -9 3 -20t3 -22q0 -15 -13.5 -28t-32.5 -13q-17 0 -30 13t-13 33q0 48 51 80q47 30 115 30q81 0 118 -45q18 -21 23 -42.5t5 -68.5v-191q0 -66 31 -66q20 0 43 19zM287 127v141 q-92 -32 -128 -66q-34 -31 -34 -77q0 -38 19 -57.5t50 -19.5q33 0 58 16q21 15 28 28t7 35z" />
<glyph unicode="&#xe4;" horiz-adv-x="444" d="M373 572q0 -20 -15 -34.5t-36 -14.5q-20 0 -34 14.5t-14 35.5q0 20 14.5 34.5t34.5 14.5t35 -15t15 -35zM174 572q0 -20 -15 -34.5t-36 -14.5q-20 0 -34 14.5t-14 35.5q0 20 14.5 34.5t34.5 14.5t35 -15t15 -35zM442 66v-28q-38 -48 -90 -48q-57 0 -64 73h-1 q-64 -73 -145 -73q-47 0 -76 27.5t-29 76.5q0 70 70 117q48 32 180 81v54q0 45 -21.5 67.5t-56.5 22.5q-30 0 -50 -14.5t-20 -34.5q0 -9 3 -20t3 -22q0 -15 -13.5 -28t-32.5 -13q-17 0 -30 13t-13 33q0 48 51 80q47 30 115 30q81 0 118 -45q18 -21 23 -42.5t5 -68.5v-191 q0 -66 31 -66q20 0 43 19zM287 127v141q-92 -32 -128 -66q-34 -31 -34 -77q0 -38 19 -57.5t50 -19.5q33 0 58 16q21 15 28 28t7 35z" />
<glyph unicode="&#xe5;" horiz-adv-x="444" d="M324 613q0 -41 -29.5 -70t-71.5 -29q-41 0 -69.5 29t-28.5 71q0 41 29.5 70t71.5 29q40 0 69 -29.5t29 -70.5zM290 614q0 27 -19.5 46t-47.5 19q-26 0 -45 -19.5t-19 -45.5q0 -28 19 -47t45 -19q28 0 47.5 19t19.5 47zM442 66v-28q-38 -48 -90 -48q-57 0 -64 73h-1 q-64 -73 -145 -73q-47 0 -76 27.5t-29 76.5q0 70 70 117q48 32 180 81v54q0 45 -21.5 67.5t-56.5 22.5q-30 0 -50 -14.5t-20 -34.5q0 -9 3 -20t3 -22q0 -15 -13.5 -28t-32.5 -13q-17 0 -30 13t-13 33q0 48 51 80q47 30 115 30q81 0 118 -45q18 -21 23 -42.5t5 -68.5v-191 q0 -66 31 -66q20 0 43 19zM287 127v141q-92 -32 -128 -66q-34 -31 -34 -77q0 -38 19 -57.5t50 -19.5q33 0 58 16q21 15 28 28t7 35z" />
<glyph unicode="&#xe6;" horiz-adv-x="667" d="M620 154l12 -5q-39 -84 -79 -116q-48 -40 -118 -40q-44 0 -74 16t-55 54q-50 -42 -81.5 -56t-70.5 -14q-51 0 -83.5 29.5t-32.5 77.5q0 21 1.5 35.5t7.5 33t17.5 31t31.5 25t49 20.5l129 36v63q0 49 -13.5 69.5t-47.5 20.5q-28 0 -48 -12.5t-20 -29.5q0 -7 1.5 -19.5 t1.5 -22.5q0 -21 -12 -33.5t-32 -12.5t-32 13t-12 35q0 46 46 77t113 31q37 0 63 -10.5t55 -36.5q34 27 59 37t60 10q76 0 114 -43t46 -140h-262q1 -75 6 -108t21 -62q13 -23 38.5 -36.5t56.5 -13.5q43 0 75.5 22t68.5 75zM355 307h166q-1 66 -19.5 94t-59.5 28 q-43 0 -63 -28t-24 -94zM274 201v52q-91 -33 -120 -58t-29 -70q0 -38 16.5 -62.5t49.5 -24.5q28 0 65 18t37 32l-1 1v2q-18 59 -18 110z" />
<glyph unicode="&#xe7;" horiz-adv-x="444" d="M398 156l14 -9q-39 -79 -82 -115.5t-104 -41.5l-21 -55q15 3 26 3q41 0 63.5 -18t22.5 -51q0 -39 -33.5 -61.5t-91.5 -22.5q-45 0 -84 16l14 31q36 -12 65 -12q25 0 40 12t15 32q0 19 -12 27.5t-41 8.5q-17 0 -28 -4l-7 5l38 91q-76 10 -121.5 70.5t-45.5 149.5 q0 128 84 197q62 51 135 51q63 0 108.5 -30.5t45.5 -72.5q0 -17 -14 -29.5t-33 -12.5q-35 0 -48 46l-6 22q-8 28 -20 38t-39 10q-61 0 -98.5 -48t-37.5 -126q0 -86 43 -140.5t112 -54.5q43 0 74 21t67 73z" />
<glyph unicode="&#xe8;" horiz-adv-x="444" d="M408 164l16 -7q-60 -167 -209 -167q-88 0 -139 61.5t-51 165.5q0 107 57 175t150 68q90 0 139 -69q29 -40 34 -114h-308q4 -63 12.5 -96t33.5 -67q42 -55 111 -55q49 0 82.5 24t71.5 81zM99 309h204q-9 63 -29.5 89t-68.5 26q-42 0 -70 -29.5t-36 -85.5zM310 507h-40 l-154 96q-30 19 -30 43q0 32 36 32q21 0 43 -23z" />
<glyph unicode="&#xe9;" horiz-adv-x="444" d="M116 507l147 148q23 23 42 23q35 0 35 -32q0 -23 -30 -42l-154 -97h-40zM408 164l16 -7q-60 -167 -209 -167q-88 0 -139 61.5t-51 165.5q0 107 57 175t150 68q90 0 139 -69q29 -40 34 -114h-308q4 -63 12.5 -96t33.5 -67q42 -55 111 -55q49 0 82.5 24t71.5 81zM99 309 h204q-9 63 -29.5 89t-68.5 26q-42 0 -70 -29.5t-36 -85.5z" />
<glyph unicode="&#xea;" horiz-adv-x="444" d="M380 507h-34l-122 103l-121 -103h-34l124 167h62zM408 164l16 -7q-60 -167 -209 -167q-88 0 -139 61.5t-51 165.5q0 107 57 175t150 68q90 0 139 -69q29 -40 34 -114h-308q4 -63 12.5 -96t33.5 -67q42 -55 111 -55q49 0 82.5 24t71.5 81zM99 309h204q-9 63 -29.5 89 t-68.5 26q-42 0 -70 -29.5t-36 -85.5z" />
<glyph unicode="&#xeb;" horiz-adv-x="444" d="M372 572q0 -20 -15 -34.5t-36 -14.5q-20 0 -34 14.5t-14 35.5q0 20 14.5 34.5t34.5 14.5t35 -15t15 -35zM173 572q0 -20 -15 -34.5t-36 -14.5q-20 0 -34 14.5t-14 35.5q0 20 14.5 34.5t34.5 14.5t35 -15t15 -35zM408 164l16 -7q-60 -167 -209 -167q-88 0 -139 61.5 t-51 165.5q0 107 57 175t150 68q90 0 139 -69q29 -40 34 -114h-308q4 -63 12.5 -96t33.5 -67q42 -55 111 -55q49 0 82.5 24t71.5 81zM99 309h204q-9 63 -29.5 89t-68.5 26q-42 0 -70 -29.5t-36 -85.5z" />
<glyph unicode="&#xec;" horiz-adv-x="278" d="M243 0h-237v15q52 3 65.5 18t13.5 71v227q0 35 -7 49t-26 14q-24 0 -42 -5v16l154 55l5 -4v-351q0 -56 12.5 -71t61.5 -19v-15zM230 507h-40l-154 96q-30 19 -30 43q0 32 36 32q21 0 43 -23z" />
<glyph unicode="&#xed;" horiz-adv-x="278" d="M253 0h-237v15q52 3 65.5 18t13.5 71v227q0 35 -7 49t-26 14q-24 0 -42 -5v16l154 55l5 -4v-351q0 -56 12.5 -71t61.5 -19v-15zM49 507l147 148q23 23 42 23q35 0 35 -32q0 -23 -30 -42l-154 -97h-40z" />
<glyph unicode="&#xee;" horiz-adv-x="278" d="M294 507h-34l-122 103l-121 -103h-34l124 167h62zM220 0h-237v15q52 3 65.5 18t13.5 71v227q0 35 -7 49t-26 14q-24 0 -42 -5v16l154 55l5 -4v-351q0 -56 12.5 -71t61.5 -19v-15z" />
<glyph unicode="&#xef;" horiz-adv-x="278" d="M227 0h-237v15q52 3 65.5 18t13.5 71v227q0 35 -7 49t-26 14q-24 0 -42 -5v16l154 55l5 -4v-351q0 -56 12.5 -71t61.5 -19v-15zM288 572q0 -20 -15 -34.5t-36 -14.5q-20 0 -34 14.5t-14 35.5q0 20 14.5 34.5t34.5 14.5t35 -15t15 -35zM89 572q0 -20 -15 -34.5t-36 -14.5 q-20 0 -34 14.5t-14 35.5q0 20 14.5 34.5t34.5 14.5t35 -15t15 -35z" />
<glyph unicode="&#xf0;" horiz-adv-x="500" d="M424 656l-91 -48q138 -116 138 -323q0 -113 -53 -198q-62 -97 -173 -97q-95 0 -155.5 62t-60.5 165q0 105 63 174t154 69q36 0 60.5 -12t60.5 -48q-11 56 -32.5 95.5t-64.5 79.5l-123 -65l-33 30l121 64q-49 41 -134 55l42 24q97 -6 153 -47l95 50zM381 202 q0 103 -40.5 166.5t-105.5 63.5q-50 0 -83 -43.5t-33 -107.5q0 -41 8 -84t23.5 -84.5t45 -68t67.5 -26.5q53 0 85.5 49.5t32.5 134.5z" />
<glyph unicode="&#xf1;" horiz-adv-x="500" d="M392 638h29q-16 -57 -40 -81.5t-65 -24.5q-32 0 -81 24l-23 11q-24 11 -41 11q-35 0 -51 -46h-29q11 49 37 75t64 26q34 0 70 -18l24 -12q28 -15 53 -15q17 0 28.5 11t24.5 39zM485 0h-208l1 15q37 3 49.5 21.5t12.5 68.5v199q0 101 -73 101q-25 0 -47 -12t-56 -45v-276 q0 -30 13.5 -42t51.5 -15v-15h-211v15q38 3 50 18.5t12 60.5v243q0 37 -7 51t-28 14q-20 0 -29 -4v17q70 20 137 45l8 -3v-78h1q71 81 144 81q57 0 87.5 -40t30.5 -114v-221q0 -40 12 -53t49 -17v-15z" />
<glyph unicode="&#xf2;" horiz-adv-x="500" d="M470 231q0 -105 -62.5 -173t-162.5 -68q-92 0 -154 67.5t-62 170.5q0 104 62 168t163 64q93 0 154.5 -63.5t61.5 -165.5zM380 204q0 114 -50 178q-40 50 -95 50q-52 0 -84 -42.5t-32 -116.5q0 -128 53 -205q34 -50 90 -50q55 0 86.5 49.5t31.5 136.5zM332 507h-40 l-154 96q-30 19 -30 43q0 32 36 32q21 0 43 -23z" />
<glyph unicode="&#xf3;" horiz-adv-x="500" d="M154 507l147 148q23 23 42 23q35 0 35 -32q0 -23 -30 -42l-154 -97h-40zM470 231q0 -105 -62.5 -173t-162.5 -68q-92 0 -154 67.5t-62 170.5q0 104 62 168t163 64q93 0 154.5 -63.5t61.5 -165.5zM380 204q0 114 -50 178q-40 50 -95 50q-52 0 -84 -42.5t-32 -116.5 q0 -128 53 -205q34 -50 90 -50q55 0 86.5 49.5t31.5 136.5z" />
<glyph unicode="&#xf4;" horiz-adv-x="500" d="M401 507h-34l-122 103l-121 -103h-34l124 167h62zM470 231q0 -105 -62.5 -173t-162.5 -68q-92 0 -154 67.5t-62 170.5q0 104 62 168t163 64q93 0 154.5 -63.5t61.5 -165.5zM380 204q0 114 -50 178q-40 50 -95 50q-52 0 -84 -42.5t-32 -116.5q0 -128 53 -205 q34 -50 90 -50q55 0 86.5 49.5t31.5 136.5z" />
<glyph unicode="&#xf5;" horiz-adv-x="500" d="M470 231q0 -105 -62.5 -173t-162.5 -68q-92 0 -154 67.5t-62 170.5q0 104 62 168t163 64q93 0 154.5 -63.5t61.5 -165.5zM380 204q0 114 -50 178q-40 50 -95 50q-52 0 -84 -42.5t-32 -116.5q0 -128 53 -205q34 -50 90 -50q55 0 86.5 49.5t31.5 136.5zM381 638h29 q-16 -57 -40 -81.5t-65 -24.5q-32 0 -81 24l-23 11q-24 11 -41 11q-35 0 -51 -46h-29q11 49 37.5 75t63.5 26q34 0 70 -18l24 -12q29 -15 53 -15q17 0 28.5 11t24.5 39z" />
<glyph unicode="&#xf6;" horiz-adv-x="500" d="M394 572q0 -20 -15 -34.5t-36 -14.5q-20 0 -34 14.5t-14 35.5q0 20 14.5 34.5t34.5 14.5t35 -15t15 -35zM195 572q0 -20 -15 -34.5t-36 -14.5q-20 0 -34 14.5t-14 35.5q0 20 14.5 34.5t34.5 14.5t35 -15t15 -35zM470 231q0 -105 -62.5 -173t-162.5 -68q-92 0 -154 67.5 t-62 170.5q0 104 62 168t163 64q93 0 154.5 -63.5t61.5 -165.5zM380 204q0 114 -50 178q-40 50 -95 50q-52 0 -84 -42.5t-32 -116.5q0 -128 53 -205q34 -50 90 -50q55 0 86.5 49.5t31.5 136.5z" />
<glyph unicode="&#xf7;" horiz-adv-x="564" d="M338 459q0 -22 -16.5 -38t-39.5 -16t-39 16t-16 39t16.5 39.5t39.5 16.5q22 0 38.5 -17t16.5 -40zM338 44q0 -22 -16.5 -38t-39.5 -16t-39 16t-16 39t16.5 39.5t39.5 16.5q22 0 38.5 -17t16.5 -40zM534 220h-504v66h504v-66z" />
<glyph unicode="&#xf8;" horiz-adv-x="500" d="M437 551l-65 -125q98 -67 98 -192q0 -104 -64 -174t-159 -70q-47 0 -93 21l-65 -123h-37l73 140q-45 36 -65 73q-31 57 -31 126q0 102 61.5 167.5t158.5 65.5q44 0 92 -18l57 109h39zM158 92l159 304q-37 36 -80 36q-53 0 -85.5 -42.5t-32.5 -112.5q0 -101 39 -185z M340 366l-161 -306q35 -42 82 -42q56 0 87.5 48.5t31.5 136.5q0 87 -40 163z" />
<glyph unicode="&#xf9;" horiz-adv-x="500" d="M480 50v-14q-78 -21 -137 -45l-5 3v82h-2q-63 -86 -143 -86q-57 0 -89.5 35t-32.5 93v251q0 37 -13 51t-49 16v14h146v-323q0 -34 20.5 -56.5t50.5 -22.5q49 0 84 31q13 12 18 22.5t5 35.5v231q0 39 -14 50.5t-60 14.5v17h158v-343q0 -35 11.5 -46t45.5 -11h6zM339 507 h-40l-154 96q-30 19 -30 43q0 32 36 32q21 0 43 -23z" />
<glyph unicode="&#xfa;" horiz-adv-x="500" d="M156 507l147 148q23 23 42 23q35 0 35 -32q0 -23 -30 -42l-154 -97h-40zM480 50v-14q-78 -21 -137 -45l-5 3v82h-2q-63 -86 -143 -86q-57 0 -89.5 35t-32.5 93v251q0 37 -13 51t-49 16v14h146v-323q0 -34 20.5 -56.5t50.5 -22.5q49 0 84 31q13 12 18 22.5t5 35.5v231 q0 39 -14 50.5t-60 14.5v17h158v-343q0 -35 11.5 -46t45.5 -11h6z" />
<glyph unicode="&#xfb;" horiz-adv-x="500" d="M401 507h-34l-122 103l-121 -103h-34l124 167h62zM480 50v-14q-78 -21 -137 -45l-5 3v82h-2q-63 -86 -143 -86q-57 0 -89.5 35t-32.5 93v251q0 37 -13 51t-49 16v14h146v-323q0 -34 20.5 -56.5t50.5 -22.5q49 0 84 31q13 12 18 22.5t5 35.5v231q0 39 -14 50.5t-60 14.5 v17h158v-343q0 -35 11.5 -46t45.5 -11h6z" />
<glyph unicode="&#xfc;" horiz-adv-x="500" d="M393 572q0 -20 -15 -34.5t-36 -14.5q-20 0 -34 14.5t-14 35.5q0 20 14.5 34.5t34.5 14.5t35 -15t15 -35zM194 572q0 -20 -15 -34.5t-36 -14.5q-20 0 -34 14.5t-14 35.5q0 20 14.5 34.5t34.5 14.5t35 -15t15 -35zM480 50v-14q-78 -21 -137 -45l-5 3v82h-2 q-63 -86 -143 -86q-57 0 -89.5 35t-32.5 93v251q0 37 -13 51t-49 16v14h146v-323q0 -34 20.5 -56.5t50.5 -22.5q49 0 84 31q13 12 18 22.5t5 35.5v231q0 39 -14 50.5t-60 14.5v17h158v-343q0 -35 11.5 -46t45.5 -11h6z" />
<glyph unicode="&#xfd;" horiz-adv-x="500" d="M143 507l147 148q23 23 42 23q35 0 35 -32q0 -23 -30 -42l-154 -97h-40zM475 450v-15q-18 -2 -29 -13t-21 -38l-150 -409q-39 -106 -78.5 -149.5t-96.5 -43.5q-32 0 -51 16.5t-19 41.5q0 19 12.5 32.5t30.5 13.5q29 0 52 -13q13 -7 26 -7q21 0 50 44q14 20 27 57t13 51 q0 13 -42 101l-132 282q-13 29 -53 35v14h205v-15q-32 -1 -44.5 -7t-12.5 -20q0 -11 13 -41l112 -250l97 276q4 9 4 18q0 24 -46 24v15h133z" />
<glyph unicode="&#xfe;" horiz-adv-x="500" d="M159 679v-299q59 80 144 80q78 0 122.5 -57t44.5 -156q0 -109 -60.5 -183t-149.5 -74q-31 0 -52.5 9t-48.5 34v-154q0 -48 15.5 -62.5t70.5 -15.5v-18h-240v18q44 4 57 17.5t13 53.5v696q0 33 -9.5 44.5t-39.5 11.5q-7 0 -17 -2v17q89 24 144 44zM159 332v-242 q0 -23 34 -45.5t69 -22.5q56 0 89 53.5t33 137.5q0 187 -123 187q-32 0 -67 -23t-35 -45z" />
<glyph unicode="&#xff;" horiz-adv-x="500" d="M396 572q0 -20 -15 -34.5t-36 -14.5q-20 0 -34 14.5t-14 35.5q0 20 14.5 34.5t34.5 14.5t35 -15t15 -35zM197 572q0 -20 -15 -34.5t-36 -14.5q-20 0 -34 14.5t-14 35.5q0 20 14.5 34.5t34.5 14.5t35 -15t15 -35zM475 450v-15q-18 -2 -29 -13t-21 -38l-150 -409 q-39 -106 -78.5 -149.5t-96.5 -43.5q-32 0 -51 16.5t-19 41.5q0 19 12.5 32.5t30.5 13.5q29 0 52 -13q13 -7 26 -7q21 0 50 44q14 20 27 57t13 51q0 13 -42 101l-132 282q-13 29 -53 35v14h205v-15q-32 -1 -44.5 -7t-12.5 -20q0 -11 13 -41l112 -250l97 276q4 9 4 18 q0 24 -46 24v15h133z" />
<glyph unicode="&#x100;" horiz-adv-x="722" d="M511 719h-311v54h311v-54zM707 0h-255v19q40 0 55 9q14 7 14 24q0 26 -19 70l-41 94h-262l-46 -114q-9 -23 -9 -42q0 -23 16.5 -32t53.5 -9v-19h-199v19q42 4 61 30.5t65 136.5l206 488h20l246 -563q22 -52 39.5 -70t54.5 -22v-19zM447 257l-116 275l-115 -275h231z" />
<glyph unicode="&#x101;" horiz-adv-x="444" d="M380 507h-311v54h311v-54zM442 66v-28q-38 -48 -90 -48q-57 0 -64 73h-1q-64 -73 -145 -73q-47 0 -76 27.5t-29 76.5q0 70 70 117q48 32 180 81v54q0 45 -21.5 67.5t-56.5 22.5q-30 0 -50 -14.5t-20 -34.5q0 -9 3 -20t3 -22q0 -15 -13.5 -28t-32.5 -13q-17 0 -30 13 t-13 33q0 48 51 80q47 30 115 30q81 0 118 -45q18 -21 23 -42.5t5 -68.5v-191q0 -66 31 -66q20 0 43 19zM287 127v141q-92 -32 -128 -66q-34 -31 -34 -77q0 -38 19 -57.5t50 -19.5q33 0 58 16q21 15 28 28t7 35z" />
<glyph unicode="&#x102;" horiz-adv-x="722" d="M470 876h29q-18 -157 -142 -157q-69 0 -104 41.5t-35 115.5h29q20 -97 112 -97q40 0 64.5 21.5t46.5 75.5zM707 0h-255v19q40 0 55 9q14 7 14 24q0 26 -19 70l-41 94h-262l-46 -114q-9 -23 -9 -42q0 -23 16.5 -32t53.5 -9v-19h-199v19q42 4 61 30.5t65 136.5l206 488h20 l246 -563q22 -52 39.5 -70t54.5 -22v-19zM447 257l-116 275l-115 -275h231z" />
<glyph unicode="&#x103;" horiz-adv-x="444" d="M343 664h29q-18 -157 -142 -157q-69 0 -104 41.5t-35 115.5h29q20 -97 112 -97q40 0 64.5 21.5t46.5 75.5zM442 66v-28q-38 -48 -90 -48q-57 0 -64 73h-1q-64 -73 -145 -73q-47 0 -76 27.5t-29 76.5q0 70 70 117q48 32 180 81v54q0 45 -21.5 67.5t-56.5 22.5 q-30 0 -50 -14.5t-20 -34.5q0 -9 3 -20t3 -22q0 -15 -13.5 -28t-32.5 -13q-17 0 -30 13t-13 33q0 48 51 80q47 30 115 30q81 0 118 -45q18 -21 23 -42.5t5 -68.5v-191q0 -66 31 -66q20 0 43 19zM287 127v141q-92 -32 -128 -66q-34 -31 -34 -77q0 -38 19 -57.5t50 -19.5 q33 0 58 16q21 15 28 28t7 35z" />
<glyph unicode="&#x104;" horiz-adv-x="722" d="M561 0h-109v19q40 0 55 9q14 7 14 24q0 26 -19 70l-41 94h-262l-46 -114q-9 -23 -9 -42q0 -23 16.5 -32t53.5 -9v-19h-199v19q42 4 61 30.5t65 136.5l206 488h20l246 -563q22 -52 39.5 -70t54.5 -22v-19h-100q-44 -35 -44 -70q0 -39 38 -39q32 0 71 36l20 -16 q-28 -41 -52.5 -58.5t-58.5 -17.5q-33 0 -53.5 19.5t-20.5 54.5q0 53 54 91zM447 257l-116 275l-115 -275h231z" />
<glyph unicode="&#x105;" horiz-adv-x="444" d="M452 -73l20 -16q-28 -41 -52.5 -58.5t-58.5 -17.5q-33 0 -53.5 19.5t-20.5 54.5q0 49 44 84q-37 11 -43 70h-1q-64 -73 -145 -73q-47 0 -76 27.5t-29 76.5q0 70 70 117q48 32 180 81v54q0 45 -21.5 67.5t-56.5 22.5q-30 0 -50 -14.5t-20 -34.5q0 -9 3 -20t3 -22 q0 -15 -13.5 -28t-32.5 -13q-17 0 -30 13t-13 33q0 48 51 80q47 30 115 30q81 0 118 -45q18 -21 23 -42.5t5 -68.5v-191q0 -66 31 -66q20 0 43 19v-28q-29 -37 -64 -45q-35 -32 -35 -63q0 -39 38 -39q32 0 71 36zM287 127v141q-92 -32 -128 -66q-34 -31 -34 -77 q0 -38 19 -57.5t50 -19.5q33 0 58 16q21 15 28 28t7 35z" />
<glyph unicode="&#x106;" horiz-adv-x="667" d="M293 719l147 148q23 23 42 23q35 0 35 -32q0 -23 -30 -42l-154 -97h-40zM614 131l19 -18q-89 -127 -273 -127q-145 0 -236 89q-96 94 -96 250q0 146 90 247q94 104 243 104q64 0 119 -15q63 -18 69 -18q33 0 42 33h20l9 -227h-23q-16 72 -52 111q-71 76 -161 76 q-111 0 -175.5 -81.5t-64.5 -213.5q0 -161 72 -239q67 -72 178 -72q66 0 114 23t106 78z" />
<glyph unicode="&#x107;" horiz-adv-x="444" d="M177 507l147 148q23 23 42 23q35 0 35 -32q0 -23 -30 -42l-154 -97h-40zM398 156l14 -9q-43 -84 -82 -115q-51 -42 -115 -42q-83 0 -136.5 62.5t-53.5 159.5q0 127 84 197q62 51 135 51q63 0 108.5 -30.5t45.5 -72.5q0 -17 -14 -29.5t-33 -12.5q-35 0 -48 46l-6 22 q-8 28 -20 38t-39 10q-61 0 -98.5 -48t-37.5 -126q0 -86 43 -140.5t112 -54.5q43 0 74 21t67 73z" />
<glyph unicode="&#x108;" horiz-adv-x="667" d="M510 719h-34l-122 103l-121 -103h-34l124 167h62zM614 131l19 -18q-89 -127 -273 -127q-145 0 -236 89q-96 94 -96 250q0 146 90 247q94 104 243 104q64 0 119 -15q63 -18 69 -18q33 0 42 33h20l9 -227h-23q-16 72 -52 111q-71 76 -161 76q-111 0 -175.5 -81.5 t-64.5 -213.5q0 -161 72 -239q67 -72 178 -72q66 0 114 23t106 78z" />
<glyph unicode="&#x109;" horiz-adv-x="444" d="M376 507h-34l-122 103l-121 -103h-34l124 167h62zM398 156l14 -9q-43 -84 -82 -115q-51 -42 -115 -42q-83 0 -136.5 62.5t-53.5 159.5q0 127 84 197q62 51 135 51q63 0 108.5 -30.5t45.5 -72.5q0 -17 -14 -29.5t-33 -12.5q-35 0 -48 46l-6 22q-8 28 -20 38t-39 10 q-61 0 -98.5 -48t-37.5 -126q0 -86 43 -140.5t112 -54.5q43 0 74 21t67 73z" />
<glyph unicode="&#x10a;" horiz-adv-x="667" d="M450 784q0 -21 -14.5 -35t-35.5 -14q-20 0 -34.5 14.5t-14.5 34.5q0 21 13.5 35.5t35.5 14.5q23 0 36.5 -14t13.5 -36zM614 131l19 -18q-89 -127 -273 -127q-145 0 -236 89q-96 94 -96 250q0 146 90 247q94 104 243 104q64 0 119 -15q63 -18 69 -18q33 0 42 33h20l9 -227 h-23q-16 72 -52 111q-71 76 -161 76q-111 0 -175.5 -81.5t-64.5 -213.5q0 -161 72 -239q67 -72 178 -72q66 0 114 23t106 78z" />
<glyph unicode="&#x10b;" horiz-adv-x="444" d="M301 572q0 -21 -14.5 -35t-35.5 -14q-20 0 -34.5 14.5t-14.5 34.5q0 21 13.5 35.5t35.5 14.5q23 0 36.5 -14t13.5 -36zM398 156l14 -9q-43 -84 -82 -115q-51 -42 -115 -42q-83 0 -136.5 62.5t-53.5 159.5q0 127 84 197q62 51 135 51q63 0 108.5 -30.5t45.5 -72.5 q0 -17 -14 -29.5t-33 -12.5q-35 0 -48 46l-6 22q-8 28 -20 38t-39 10q-61 0 -98.5 -48t-37.5 -126q0 -86 43 -140.5t112 -54.5q43 0 74 21t67 73z" />
<glyph unicode="&#x10c;" horiz-adv-x="667" d="M543 886l-124 -167h-64l-123 167h35l120 -103l121 103h35zM614 131l19 -18q-89 -127 -273 -127q-145 0 -236 89q-96 94 -96 250q0 146 90 247q94 104 243 104q64 0 119 -15q63 -18 69 -18q33 0 42 33h20l9 -227h-23q-16 72 -52 111q-71 76 -161 76q-111 0 -175.5 -81.5 t-64.5 -213.5q0 -161 72 -239q67 -72 178 -72q66 0 114 23t106 78z" />
<glyph unicode="&#x10d;" horiz-adv-x="444" d="M396 674l-124 -167h-64l-123 167h35l120 -103l121 103h35zM398 156l14 -9q-43 -84 -82 -115q-51 -42 -115 -42q-83 0 -136.5 62.5t-53.5 159.5q0 127 84 197q62 51 135 51q63 0 108.5 -30.5t45.5 -72.5q0 -17 -14 -29.5t-33 -12.5q-35 0 -48 46l-6 22q-8 28 -20 38 t-39 10q-61 0 -98.5 -48t-37.5 -126q0 -86 43 -140.5t112 -54.5q43 0 74 21t67 73z" />
<glyph unicode="&#x10e;" horiz-adv-x="722" d="M496 886l-124 -167h-64l-123 167h35l120 -103l121 103h35zM16 662h270q195 0 300 -91q99 -85 99 -237q0 -183 -136 -270q-99 -64 -252 -64h-281v19q58 4 73 20.5t15 75.5v435q0 58 -15 73.5t-73 19.5v19zM206 583v-499q0 -27 9.5 -37t38.5 -10q78 0 126 11t92 41 q104 70 104 239q0 145 -95 228q-43 38 -94 53.5t-128 15.5q-29 0 -41 -9t-12 -33z" />
<glyph unicode="&#x10f;" horiz-adv-x="586" d="M492 458l-9 19q82 56 82 107q0 13 -14 13q-2 0 -7 -2q-12 -2 -20 -2q-28 0 -43.5 13.5t-15.5 37.5q0 25 16.5 41t42.5 16q34 0 57 -25.5t23 -63.5q0 -45 -31 -87t-81 -67zM491 42l-147 -52l-4 3v64q-48 -67 -128 -67q-83 0 -134 59.5t-51 155.5q0 106 61 180.5t147 74.5 q54 0 105 -43v156q0 31 -9 41t-37 10q-14 0 -22 -1v16q91 24 147 44l5 -2v-567q0 -35 8.5 -46t35.5 -11q6 0 23 1v-16zM340 102v230q0 40 -30.5 70t-71.5 30q-57 0 -91 -51t-34 -136q0 -92 37.5 -147.5t100.5 -55.5q47 0 74 32q15 17 15 28z" />
<glyph unicode="&#x110;" horiz-adv-x="722" d="M16 662h270q188 0 293.5 -86.5t105.5 -241.5q0 -76 -29 -142.5t-81 -109.5q-100 -82 -275 -82h-284v19q57 4 72.5 20t15.5 70v206h-83v44h83v194q0 55 -14.5 70t-73.5 20v19zM206 315v-237q0 -24 11 -32.5t40 -8.5q125 0 197 41q122 71 122 249q0 168 -122 250 q-70 48 -199 48q-29 0 -39 -8t-10 -31v-227h146v-44h-146z" />
<glyph unicode="&#x111;" horiz-adv-x="500" d="M507 522h-83v-408q0 -35 8.5 -46t35.5 -11q6 0 23 1v-16l-147 -52l-4 3v64q-48 -67 -128 -67q-83 0 -134 59.5t-51 155.5q0 106 61 180.5t147 74.5q54 0 105 -43v105h-175v39h175v12q0 31 -9 41t-37 10q-14 0 -22 -1v16q91 24 147 44l5 -2v-120h83v-39zM340 102v230 q0 40 -30.5 70t-71.5 30q-57 0 -91 -51t-34 -136q0 -92 37.5 -147.5t100.5 -55.5q47 0 74 32q15 17 15 28z" />
<glyph unicode="&#x112;" horiz-adv-x="611" d="M461 719h-311v54h311v-54zM597 169l-46 -169h-539v19q57 4 72 20.5t15 74.5v436q0 56 -15.5 73t-71.5 20v19h530l4 -143h-25q-11 67 -39 86t-115 19h-131q-22 0 -28.5 -6.5t-6.5 -29.5v-220h151q63 0 83.5 18t29.5 78h23v-234h-23q-9 63 -29 80t-84 17h-151v-243 q0 -30 21 -38.5t80 -8.5h36q107 0 152 26t79 106h28z" />
<glyph unicode="&#x113;" horiz-adv-x="444" d="M381 507h-311v54h311v-54zM408 164l16 -7q-60 -167 -209 -167q-88 0 -139 61.5t-51 165.5q0 107 57 175t150 68q90 0 139 -69q29 -40 34 -114h-308q4 -63 12.5 -96t33.5 -67q42 -55 111 -55q49 0 82.5 24t71.5 81zM99 309h204q-9 63 -29.5 89t-68.5 26q-42 0 -70 -29.5 t-36 -85.5z" />
<glyph unicode="&#x114;" horiz-adv-x="611" d="M423 876h29q-18 -157 -142 -157q-69 0 -104 41.5t-35 115.5h29q20 -97 112 -97q40 0 64.5 21.5t46.5 75.5zM597 169l-46 -169h-539v19q57 4 72 20.5t15 74.5v436q0 56 -15.5 73t-71.5 20v19h530l4 -143h-25q-11 67 -39 86t-115 19h-131q-22 0 -28.5 -6.5t-6.5 -29.5v-220 h151q63 0 83.5 18t29.5 78h23v-234h-23q-9 63 -29 80t-84 17h-151v-243q0 -30 21 -38.5t80 -8.5h36q107 0 152 26t79 106h28z" />
<glyph unicode="&#x115;" horiz-adv-x="444" d="M333 664h29q-18 -157 -142 -157q-69 0 -104 41.5t-35 115.5h29q20 -97 112 -97q40 0 64.5 21.5t46.5 75.5zM408 164l16 -7q-60 -167 -209 -167q-88 0 -139 61.5t-51 165.5q0 107 57 175t150 68q90 0 139 -69q29 -40 34 -114h-308q4 -63 12.5 -96t33.5 -67q42 -55 111 -55 q49 0 82.5 24t71.5 81zM99 309h204q-9 63 -29.5 89t-68.5 26q-42 0 -70 -29.5t-36 -85.5z" />
<glyph unicode="&#x116;" horiz-adv-x="611" d="M350 784q0 -21 -14.5 -35t-35.5 -14q-20 0 -34.5 14.5t-14.5 34.5q0 21 13.5 35.5t35.5 14.5q23 0 36.5 -14t13.5 -36zM597 169l-46 -169h-539v19q57 4 72 20.5t15 74.5v436q0 56 -15.5 73t-71.5 20v19h530l4 -143h-25q-11 67 -39 86t-115 19h-131q-22 0 -28.5 -6.5 t-6.5 -29.5v-220h151q63 0 83.5 18t29.5 78h23v-234h-23q-9 63 -29 80t-84 17h-151v-243q0 -30 21 -38.5t80 -8.5h36q107 0 152 26t79 106h28z" />
<glyph unicode="&#x117;" horiz-adv-x="444" d="M290 572q0 -21 -14.5 -35t-35.5 -14q-20 0 -34.5 14.5t-14.5 34.5q0 21 13.5 35.5t35.5 14.5q23 0 36.5 -14t13.5 -36zM408 164l16 -7q-60 -167 -209 -167q-88 0 -139 61.5t-51 165.5q0 107 57 175t150 68q90 0 139 -69q29 -40 34 -114h-308q4 -63 12.5 -96t33.5 -67 q42 -55 111 -55q49 0 82.5 24t71.5 81zM99 309h204q-9 63 -29.5 89t-68.5 26q-42 0 -70 -29.5t-36 -85.5z" />
<glyph unicode="&#x118;" horiz-adv-x="611" d="M382 0h-370v19q57 4 72 20.5t15 74.5v436q0 56 -15.5 73t-71.5 20v19h530l4 -143h-25q-11 67 -39 86t-115 19h-131q-22 0 -28.5 -6.5t-6.5 -29.5v-220h151q63 0 83.5 18t29.5 78h23v-234h-23q-9 63 -29 80t-84 17h-151v-243q0 -30 21 -38.5t80 -8.5h36q107 0 152 26 t79 106h28l-46 -169h-123q-44 -35 -44 -70q0 -39 38 -39q32 0 71 36l20 -16q-28 -41 -52.5 -58.5t-58.5 -17.5q-33 0 -53.5 19.5t-20.5 54.5q0 53 54 91z" />
<glyph unicode="&#x119;" horiz-adv-x="444" d="M346 -73l20 -16q-28 -41 -52.5 -58.5t-58.5 -17.5q-33 0 -53.5 19.5t-20.5 54.5q0 47 41 81h-7q-88 0 -139 61.5t-51 165.5q0 107 57 175t150 68q90 0 139 -69q29 -40 34 -114h-308q4 -63 12.5 -96t33.5 -67q42 -55 111 -55q49 0 82.5 24t71.5 81l16 -7 q-46 -127 -144 -157q-43 -36 -43 -70q0 -39 38 -39q32 0 71 36zM99 309h204q-9 63 -29.5 89t-68.5 26q-42 0 -70 -29.5t-36 -85.5z" />
<glyph unicode="&#x11a;" horiz-adv-x="611" d="M469 886l-124 -167h-64l-123 167h35l120 -103l121 103h35zM597 169l-46 -169h-539v19q57 4 72 20.5t15 74.5v436q0 56 -15.5 73t-71.5 20v19h530l4 -143h-25q-11 67 -39 86t-115 19h-131q-22 0 -28.5 -6.5t-6.5 -29.5v-220h151q63 0 83.5 18t29.5 78h23v-234h-23 q-9 63 -29 80t-84 17h-151v-243q0 -30 21 -38.5t80 -8.5h36q107 0 152 26t79 106h28z" />
<glyph unicode="&#x11b;" horiz-adv-x="444" d="M396 674l-124 -167h-64l-123 167h35l120 -103l121 103h35zM408 164l16 -7q-60 -167 -209 -167q-88 0 -139 61.5t-51 165.5q0 107 57 175t150 68q90 0 139 -69q29 -40 34 -114h-308q4 -63 12.5 -96t33.5 -67q42 -55 111 -55q49 0 82.5 24t71.5 81zM99 309h204 q-9 63 -29.5 89t-68.5 26q-42 0 -70 -29.5t-36 -85.5z" />
<glyph unicode="&#x11c;" horiz-adv-x="722" d="M509 719h-34l-122 103l-121 -103h-34l124 167h62zM709 354v-18q-44 -4 -57 -18t-13 -62v-200q-86 -70 -254 -70q-78 0 -149.5 28t-120.5 79q-83 87 -83 234q0 166 107 263q94 86 239 86q64 0 133 -23q27 -10 44 -10q16 0 28 9.5t17 23.5h22l8 -211h-23q-32 78 -71 116 q-58 55 -146 55q-100 0 -167 -69q-77 -77 -77 -243q0 -138 72 -218t191 -80q57 0 95 18t38 43v157q0 58 -14.5 72.5t-74.5 19.5v18h256z" />
<glyph unicode="&#x11d;" horiz-adv-x="500" d="M405 507h-34l-122 103l-121 -103h-34l124 167h62zM470 388h-83q19 -43 19 -84q0 -77 -52 -116t-104 -39q-11 0 -38 3l-19 2q-20 -6 -40 -27t-20 -36q0 -23 78 -27l129 -6q55 -2 88 -31t33 -76q0 -58 -60 -105q-83 -64 -200 -64q-72 0 -122.5 28.5t-50.5 68.5 q0 28 22 55.5t76 66.5q-32 15 -42.5 26t-10.5 27q0 29 46 69q23 19 43 40q-50 25 -71.5 56t-21.5 78q0 68 48.5 115.5t118.5 47.5q40 0 80 -15l22 -8q29 -10 55 -10h77v-39zM152 338v-3q0 -72 28.5 -116.5t74.5 -44.5q34 0 54 24.5t20 65.5q0 66 -30 121q-25 47 -73 47 q-35 0 -54.5 -25t-19.5 -69zM433 -64q0 28 -27.5 38.5t-96.5 10.5q-99 0 -162 13q-30 -36 -39.5 -52.5t-9.5 -33.5q0 -33 39.5 -53t105.5 -20q85 0 137.5 26.5t52.5 70.5z" />
<glyph unicode="&#x11e;" horiz-adv-x="722" d="M495 876h29q-18 -157 -142 -157q-69 0 -104 41.5t-35 115.5h29q20 -97 112 -97q40 0 64.5 21.5t46.5 75.5zM709 354v-18q-44 -4 -57 -18t-13 -62v-200q-86 -70 -254 -70q-78 0 -149.5 28t-120.5 79q-83 87 -83 234q0 166 107 263q94 86 239 86q64 0 133 -23 q27 -10 44 -10q16 0 28 9.5t17 23.5h22l8 -211h-23q-32 78 -71 116q-58 55 -146 55q-100 0 -167 -69q-77 -77 -77 -243q0 -138 72 -218t191 -80q57 0 95 18t38 43v157q0 58 -14.5 72.5t-74.5 19.5v18h256z" />
<glyph unicode="&#x11f;" horiz-adv-x="500" d="M351 664h29q-18 -157 -142 -157q-69 0 -104 41.5t-35 115.5h29q20 -97 112 -97q40 0 64.5 21.5t46.5 75.5zM470 388h-83q19 -43 19 -84q0 -77 -52 -116t-104 -39q-11 0 -38 3l-19 2q-20 -6 -40 -27t-20 -36q0 -23 78 -27l129 -6q55 -2 88 -31t33 -76q0 -58 -60 -105 q-83 -64 -200 -64q-72 0 -122.5 28.5t-50.5 68.5q0 28 22 55.5t76 66.5q-32 15 -42.5 26t-10.5 27q0 29 46 69q23 19 43 40q-50 25 -71.5 56t-21.5 78q0 68 48.5 115.5t118.5 47.5q40 0 80 -15l22 -8q29 -10 55 -10h77v-39zM152 338v-3q0 -72 28.5 -116.5t74.5 -44.5 q34 0 54 24.5t20 65.5q0 66 -30 121q-25 47 -73 47q-35 0 -54.5 -25t-19.5 -69zM433 -64q0 28 -27.5 38.5t-96.5 10.5q-99 0 -162 13q-30 -36 -39.5 -52.5t-9.5 -33.5q0 -33 39.5 -53t105.5 -20q85 0 137.5 26.5t52.5 70.5z" />
<glyph unicode="&#x120;" horiz-adv-x="722" d="M420 784q0 -21 -14.5 -35t-35.5 -14q-20 0 -34.5 14.5t-14.5 34.5q0 21 13.5 35.5t35.5 14.5q23 0 36.5 -14t13.5 -36zM709 354v-18q-44 -4 -57 -18t-13 -62v-200q-86 -70 -254 -70q-78 0 -149.5 28t-120.5 79q-83 87 -83 234q0 166 107 263q94 86 239 86q64 0 133 -23 q27 -10 44 -10q16 0 28 9.5t17 23.5h22l8 -211h-23q-32 78 -71 116q-58 55 -146 55q-100 0 -167 -69q-77 -77 -77 -243q0 -138 72 -218t191 -80q57 0 95 18t38 43v157q0 58 -14.5 72.5t-74.5 19.5v18h256z" />
<glyph unicode="&#x121;" horiz-adv-x="500" d="M300 572q0 -21 -14.5 -35t-35.5 -14q-20 0 -34.5 14.5t-14.5 34.5q0 21 13.5 35.5t35.5 14.5q23 0 36.5 -14t13.5 -36zM470 388h-83q19 -43 19 -84q0 -77 -52 -116t-104 -39q-11 0 -38 3l-19 2q-20 -6 -40 -27t-20 -36q0 -23 78 -27l129 -6q55 -2 88 -31t33 -76 q0 -58 -60 -105q-83 -64 -200 -64q-72 0 -122.5 28.5t-50.5 68.5q0 28 22 55.5t76 66.5q-32 15 -42.5 26t-10.5 27q0 29 46 69q23 19 43 40q-50 25 -71.5 56t-21.5 78q0 68 48.5 115.5t118.5 47.5q40 0 80 -15l22 -8q29 -10 55 -10h77v-39zM152 338v-3q0 -72 28.5 -116.5 t74.5 -44.5q34 0 54 24.5t20 65.5q0 66 -30 121q-25 47 -73 47q-35 0 -54.5 -25t-19.5 -69zM433 -64q0 28 -27.5 38.5t-96.5 10.5q-99 0 -162 13q-30 -36 -39.5 -52.5t-9.5 -33.5q0 -33 39.5 -53t105.5 -20q85 0 137.5 26.5t52.5 70.5z" />
<glyph unicode="&#x122;" horiz-adv-x="722" d="M709 354v-18q-44 -4 -57 -18t-13 -62v-200q-86 -70 -254 -70q-78 0 -149.5 28t-120.5 79q-83 87 -83 234q0 166 107 263q94 86 239 86q64 0 133 -23q27 -10 44 -10q16 0 28 9.5t17 23.5h22l8 -211h-23q-32 78 -71 116q-58 55 -146 55q-100 0 -167 -69q-77 -77 -77 -243 q0 -138 72 -218t191 -80q57 0 95 18t38 43v157q0 58 -14.5 72.5t-74.5 19.5v18h256zM358 -280l-10 19q83 56 83 107q0 13 -14 13q-4 0 -13.5 -2t-15.5 -2q-58 0 -58 51q0 26 16.5 41.5t43.5 15.5q34 0 57 -24.5t23 -62.5q0 -46 -30.5 -89t-81.5 -67z" />
<glyph unicode="&#x123;" horiz-adv-x="500" d="M293 766l9 -19q-82 -57 -82 -106q0 -14 14 -14q2 0 7 2q12 2 20 2q28 0 43.5 -13.5t15.5 -37.5q0 -25 -16.5 -41t-42.5 -16q-34 0 -57 25.5t-23 63.5q0 45 31 87t81 67zM470 388h-83q19 -43 19 -84q0 -77 -52 -116t-104 -39q-11 0 -38 3l-19 2q-20 -6 -40 -27t-20 -36 q0 -23 78 -27l129 -6q55 -2 88 -31t33 -76q0 -58 -60 -105q-83 -64 -200 -64q-72 0 -122.5 28.5t-50.5 68.5q0 28 22 55.5t76 66.5q-32 15 -42.5 26t-10.5 27q0 29 46 69q23 19 43 40q-50 25 -71.5 56t-21.5 78q0 68 48.5 115.5t118.5 47.5q40 0 80 -15l22 -8q29 -10 55 -10 h77v-39zM152 338v-3q0 -72 28.5 -116.5t74.5 -44.5q34 0 54 24.5t20 65.5q0 66 -30 121q-25 47 -73 47q-35 0 -54.5 -25t-19.5 -69zM433 -64q0 28 -27.5 38.5t-96.5 10.5q-99 0 -162 13q-30 -36 -39.5 -52.5t-9.5 -33.5q0 -33 39.5 -53t105.5 -20q85 0 137.5 26.5t52.5 70.5 z" />
<glyph unicode="&#x124;" horiz-adv-x="722" d="M518 719h-34l-122 103l-121 -103h-34l124 167h62zM703 0h-279v19q58 4 73 22.5t15 82.5v191h-303v-202q0 -55 16 -73t71 -21l1 -19h-279v19q59 4 74 21.5t15 81.5v426q0 58 -15.5 74t-73.5 21v19h280v-19q-56 -5 -72.5 -21.5t-16.5 -73.5v-189h303v189q0 58 -15.5 74 t-73.5 21v19h280v-19q-56 -5 -72.5 -21.5t-16.5 -73.5v-437q0 -53 16.5 -70.5t72.5 -21.5v-19z" />
<glyph unicode="&#x125;" horiz-adv-x="500" d="M376 719h-34l-122 103l-121 -103h-34l124 167h62zM487 0h-212v15q44 5 56 20t12 67v198q0 106 -74 106q-30 0 -55 -14t-57 -49v-241q0 -52 12 -67t56 -20v-15h-216v15q43 6 53.5 20t10.5 67v471q0 32 -9.5 41.5t-41.5 9.5q-9 0 -12 -1v16l27 8q77 23 115 36l5 -3v-304 q35 45 69 64.5t78 19.5q123 0 123 -159v-199q0 -52 9.5 -65.5t50.5 -21.5v-15z" />
<glyph unicode="&#x126;" horiz-adv-x="723" d="M702 0h-279v19q58 4 73 22.5t15 82.5v191h-303v-202q0 -55 16.5 -73t71.5 -21v-19h-279v19q59 4 74 21.5t15 81.5v354h-89v44h89v28q0 58 -15.5 74t-73.5 21v19h280v-19q-56 -5 -72.5 -21.5t-16.5 -73.5v-28h303v28q0 58 -15.5 74t-73.5 21v19h280v-19 q-56 -5 -72.5 -21.5t-16.5 -73.5v-28h88v-44h-88v-365q0 -53 16.5 -70.5t72.5 -21.5v-19zM511 359v117h-303v-117h303z" />
<glyph unicode="&#x127;" horiz-adv-x="500" d="M487 0h-212v15q44 5 56 20t12 67v198q0 106 -74 106q-30 0 -55 -14t-57 -49v-241q0 -52 12 -67t56 -20v-15h-216v15q43 6 53.5 20t10.5 67v410h-65v54h65v7q0 32 -9.5 41.5t-41.5 9.5q-9 0 -12 -1v16l27 8q77 23 115 36l5 -3v-114h162v-54h-162v-136q35 45 69 64.5 t78 19.5q123 0 123 -159v-199q0 -52 9.5 -65.5t50.5 -21.5v-15z" />
<glyph unicode="&#x128;" horiz-adv-x="333" d="M302 850h29q-16 -57 -40 -81.5t-65 -24.5q-32 0 -81 24l-23 11q-24 11 -41 11q-35 0 -51 -46h-29q11 49 37 75t64 26q34 0 70 -18l24 -12q28 -15 53 -15q17 0 28.5 11t24.5 39zM315 0h-297v19q63 2 80 18.5t17 74.5v439q0 58 -16 73t-81 19v19h297v-19q-63 -3 -80.5 -19 t-17.5 -73v-439q0 -56 18 -73.5t80 -19.5v-19z" />
<glyph unicode="&#x129;" horiz-adv-x="278" d="M276 638h29q-16 -57 -40 -81.5t-65 -24.5q-32 0 -81 24l-23 11q-24 11 -41 11q-35 0 -51 -46h-29q11 49 37 75t64 26q34 0 70 -18l24 -12q28 -15 53 -15q17 0 28.5 11t24.5 39zM253 0h-237v15q52 3 65.5 18t13.5 71v227q0 35 -7 49t-26 14q-24 0 -42 -5v16l154 55l5 -4 v-351q0 -56 12.5 -71t61.5 -19v-15z" />
<glyph unicode="&#x12a;" horiz-adv-x="333" d="M322 719h-311v54h311v-54zM315 0h-297v19q63 2 80 18.5t17 74.5v439q0 58 -16 73t-81 19v19h297v-19q-63 -3 -80.5 -19t-17.5 -73v-439q0 -56 18 -73.5t80 -19.5v-19z" />
<glyph unicode="&#x12b;" horiz-adv-x="278" d="M253 0h-237v15q52 3 65.5 18t13.5 71v227q0 35 -7 49t-26 14q-24 0 -42 -5v16l154 55l5 -4v-351q0 -56 12.5 -71t61.5 -19v-15zM290 507h-311v54h311v-54z" />
<glyph unicode="&#x12c;" horiz-adv-x="333" d="M276 876h29q-18 -157 -142 -157q-69 0 -104 41.5t-35 115.5h29q20 -97 112 -97q40 0 64.5 21.5t46.5 75.5zM315 0h-297v19q63 2 80 18.5t17 74.5v439q0 58 -16 73t-81 19v19h297v-19q-63 -3 -80.5 -19t-17.5 -73v-439q0 -56 18 -73.5t80 -19.5v-19z" />
<glyph unicode="&#x12d;" horiz-adv-x="278" d="M251 664h29q-18 -157 -142 -157q-69 0 -104 41.5t-35 115.5h29q20 -97 112 -97q40 0 64.5 21.5t46.5 75.5zM253 0h-237v15q52 3 65.5 18t13.5 71v227q0 35 -7 49t-26 14q-24 0 -42 -5v16l154 55l5 -4v-351q0 -56 12.5 -71t61.5 -19v-15z" />
<glyph unicode="&#x12e;" horiz-adv-x="333" d="M174 0h-156v19q63 2 80 18.5t17 74.5v439q0 58 -16 73t-81 19v19h297v-19q-63 -3 -80.5 -19t-17.5 -73v-439q0 -56 18 -73.5t80 -19.5v-19h-95q-44 -35 -44 -70q0 -39 38 -39q32 0 71 36l20 -16q-28 -41 -52.5 -58.5t-58.5 -17.5q-33 0 -53.5 19.5t-20.5 54.5q0 53 54 91 z" />
<glyph unicode="&#x12f;" horiz-adv-x="278" d="M146 0h-130v15q52 3 65.5 18t13.5 71v227q0 35 -7 49t-26 14q-24 0 -42 -5v16l155 55l4 -4v-351q0 -56 12.5 -71t61.5 -19v-15h-61q-44 -35 -44 -70q0 -39 38 -39q32 0 71 36l20 -16q-28 -41 -52.5 -58.5t-58.5 -17.5q-33 0 -53.5 19.5t-20.5 54.5q0 53 54 91zM180 632 q0 -22 -15 -36.5t-37 -14.5q-21 0 -35.5 14.5t-14.5 36.5q0 21 15 36t36 15q22 0 36.5 -15t14.5 -36z" />
<glyph unicode="&#x130;" horiz-adv-x="333" d="M215 784q0 -21 -14.5 -35t-35.5 -14q-20 0 -34.5 14.5t-14.5 34.5q0 21 13.5 35.5t35.5 14.5q23 0 36.5 -14t13.5 -36zM315 0h-297v19q63 2 80 18.5t17 74.5v439q0 58 -16 73t-81 19v19h297v-19q-63 -3 -80.5 -19t-17.5 -73v-439q0 -56 18 -73.5t80 -19.5v-19z" />
<glyph unicode="&#x131;" horiz-adv-x="278" d="M253 0h-237v15q52 3 65.5 18t13.5 71v227q0 35 -7 49t-26 14q-24 0 -42 -5v16l154 55l5 -4v-351q0 -56 12.5 -71t61.5 -19v-15z" />
<glyph unicode="&#x134;" horiz-adv-x="373" d="M367 719h-34l-122 103l-121 -103h-34l124 167h62zM354 662v-19q-61 -5 -76.5 -20.5t-15.5 -73.5v-364q0 -199 -167 -199q-46 0 -73.5 19t-27.5 53q0 20 14.5 36t34.5 16q33 0 49 -42q2 -5 5 -14l5 -12q1 -5 4 -9.5t7 -6.5t10 -2q22 0 29.5 15.5t7.5 54.5v456 q0 59 -15 73.5t-78 19.5v19h287z" />
<glyph unicode="&#x135;" horiz-adv-x="278" d="M295 507h-34l-122 103l-121 -103h-34l124 167h62zM193 457v-457q0 -107 -43.5 -162.5t-126.5 -55.5q-41 0 -67 15.5t-26 39.5q0 16 12 27.5t29 11.5q23 0 48 -32q23 -28 42 -28q23 0 34 18q14 25 14 121v379q0 60 -32 60q-24 0 -40 -3l-5 -1v16q80 25 156 54z" />
<glyph unicode="&#x136;" horiz-adv-x="722" d="M723 0h-303v19l27 1q42 1 42 24q0 18 -32.5 56.5t-104.5 113.5l-100 103l-26 -21v-185q0 -56 16 -71.5t73 -20.5v-19h-282v19q59 3 75 22t16 84v424q0 56 -16 73t-74 21v19h282v-19q-61 -4 -75.5 -20t-14.5 -75v-200l178 164q43 40 60.5 61t17.5 38q0 16 -8.5 23t-32.5 8 l-25 1v19h259v-19q-51 -4 -77.5 -17.5t-78.5 -63.5l-186 -178l234 -256q62 -68 91.5 -88.5t64.5 -20.5v-19zM328 -280l-10 19q83 56 83 107q0 13 -14 13q-4 0 -13.5 -2t-15.5 -2q-58 0 -58 51q0 26 16.5 41.5t43.5 15.5q34 0 57 -24.5t23 -62.5q0 -46 -30.5 -89t-81.5 -67z " />
<glyph unicode="&#x137;" horiz-adv-x="500" d="M505 0h-218v15h19q21 0 21 15q0 9 -11 23l-150 198v-184q0 -26 12.5 -38t42.5 -13l20 -1v-15h-234v15q54 9 64.5 18.5t10.5 48.5v482q0 36 -9 48.5t-34 12.5q-6 0 -32 -2v16l30 8q60 16 125 36l4 -2v-420l137 122q23 21 23 35q0 10 -10.5 13.5t-39.5 4.5v14h204v-15 q-50 0 -88.5 -21.5t-127.5 -104.5l-29 -27l153 -194q54 -69 117 -73v-15zM188 -280l-10 19q83 56 83 107q0 13 -14 13q-4 0 -13.5 -2t-15.5 -2q-58 0 -58 51q0 26 16.5 41.5t43.5 15.5q34 0 57 -24.5t23 -62.5q0 -46 -30.5 -89t-81.5 -67z" />
<glyph unicode="&#x138;" horiz-adv-x="542" d="M532 0h-130q-23 13 -40 28t-36 44q-14 22 -35 62t-29 54q-28 48 -38 54q-40 -2 -54 -2v-162q0 -37 17 -48q16 -14 59 -14v-16h-241v16q48 0 60 11q17 11 17 50v305q0 39 -16 50q-14 10 -61 11v16h241v-16q-46 -2 -59 -11q-17 -11 -17 -51v-105l45 4q30 3 57 28 q30 26 52 88q12 35 34 49t60 14q31 0 54 -14t23 -38q0 -18 -15 -29.5t-33 -11.5q-25 0 -41 19.5t-24 19.5q-12 0 -18 -7t-11 -23q-22 -73 -69 -109q16 -6 31 -22q14 -15 48.5 -76.5t39.5 -69.5q44 -63 129 -83v-15z" />
<glyph unicode="&#x139;" horiz-adv-x="611" d="M131 719l147 148q23 23 42 23q35 0 35 -32q0 -23 -30 -42l-154 -97h-40zM598 174l-48 -174h-538v19q55 3 71 21t16 75v431q0 59 -14.5 76t-72.5 21v19h283v-19q-61 -4 -77.5 -20.5t-16.5 -74.5v-464q0 -28 17.5 -36.5t72.5 -8.5h70q121 0 169 61q20 27 42 74h26z" />
<glyph unicode="&#x13a;" horiz-adv-x="278" d="M29 719l147 148q23 23 42 23q35 0 35 -32q0 -23 -30 -42l-154 -97h-40zM257 0h-236v15q47 4 62 19.5t15 57.5v469q0 36 -9 50t-33 14q-21 0 -37 -2v16q95 23 158 44l5 -4v-592q0 -42 14 -55.5t61 -16.5v-15z" />
<glyph unicode="&#x13b;" horiz-adv-x="611" d="M598 174l-48 -174h-538v19q55 3 71 21t16 75v431q0 59 -14.5 76t-72.5 21v19h283v-19q-61 -4 -77.5 -20.5t-16.5 -74.5v-464q0 -28 17.5 -36.5t72.5 -8.5h70q121 0 169 61q20 27 42 74h26zM258 -280l-10 19q83 56 83 107q0 13 -14 13q-4 0 -13.5 -2t-15.5 -2 q-58 0 -58 51q0 26 16.5 41.5t43.5 15.5q34 0 57 -24.5t23 -62.5q0 -46 -30.5 -89t-81.5 -67z" />
<glyph unicode="&#x13c;" horiz-adv-x="278" d="M257 0h-236v15q47 4 62 19.5t15 57.5v469q0 36 -9 50t-33 14q-21 0 -37 -2v16q95 23 158 44l5 -4v-592q0 -42 14 -55.5t61 -16.5v-15zM98 -280l-10 19q83 56 83 107q0 13 -14 13q-4 0 -13.5 -2t-15.5 -2q-58 0 -58 51q0 26 16.5 41.5t43.5 15.5q34 0 57 -24.5t23 -62.5 q0 -46 -30.5 -89t-81.5 -67z" />
<glyph unicode="&#x13d;" horiz-adv-x="611" d="M378 440l-9 19q82 56 82 107q0 13 -14 13q-2 0 -7 -2q-12 -2 -20 -2q-28 0 -43.5 13.5t-15.5 37.5q0 25 16.5 41t42.5 16q34 0 57 -25.5t23 -63.5q0 -45 -31 -87t-81 -67zM598 174l-48 -174h-538v19q55 3 71 21t16 75v431q0 59 -14.5 76t-72.5 21v19h283v-19 q-61 -4 -77.5 -20.5t-16.5 -74.5v-464q0 -28 17.5 -36.5t72.5 -8.5h70q121 0 169 61q20 27 42 74h26z" />
<glyph unicode="&#x13e;" horiz-adv-x="381" d="M250 459l-9 19q82 56 82 107q0 13 -14 13q-2 0 -7 -2q-12 -2 -20 -2q-28 0 -43.5 13.5t-15.5 37.5q0 25 16.5 41t42.5 16q34 0 57 -25.5t23 -63.5q0 -45 -31 -87t-81 -67zM257 0h-236v15q47 4 62 19.5t15 57.5v469q0 36 -9 50t-33 14q-21 0 -37 -2v16q95 23 158 44l5 -4 v-592q0 -42 14 -55.5t61 -16.5v-15z" />
<glyph unicode="&#x13f;" horiz-adv-x="620" d="M615 174l-48 -174h-538v19q55 3 71 21t16 75v431q0 59 -14.5 76t-72.5 21v19h283v-19q-61 -4 -77.5 -20.5t-16.5 -74.5v-464q0 -28 17.5 -36.5t72.5 -8.5h70q121 0 169 61q20 27 42 74h26zM456 345q0 -22 -16.5 -38t-39.5 -16t-39 16t-16 39t16.5 39.5t39.5 16.5 q22 0 38.5 -17t16.5 -40z" />
<glyph unicode="&#x140;" horiz-adv-x="370" d="M257 0h-236v15q47 4 62 19.5t15 57.5v469q0 36 -9 50t-33 14q-21 0 -37 -2v16q95 23 158 44l5 -4v-592q0 -42 14 -55.5t61 -16.5v-15zM354 342q0 -22 -16.5 -38t-39.5 -16t-39 16t-16 39t16.5 39.5t39.5 16.5q22 0 38.5 -17t16.5 -40z" />
<glyph unicode="&#x141;" horiz-adv-x="611" d="M597 174l-49 -174h-538v19q54 2 71 21t17 71v169l-87 -53v49l87 54v221q0 55 -16 72t-71 20v19h282v-19q-57 -3 -75 -20t-18 -72v-172l155 95v-49l-155 -94v-249q0 -26 17 -34.5t71 -8.5h63q101 0 148 33q37 27 72 102h26z" />
<glyph unicode="&#x142;" horiz-adv-x="278" d="M259 429l-77 -53v-290q0 -43 13 -54.5t63 -16.5v-15h-238v15q50 4 64 17t14 57v230l-78 -54v44l78 54v199q0 38 -8.5 50.5t-33.5 12.5q-12 0 -37 -5v19q95 23 158 44l5 -3v-260l77 53v-44z" />
<glyph unicode="&#x143;" horiz-adv-x="722" d="M279 719l147 148q23 23 42 23q35 0 35 -32q0 -23 -30 -42l-154 -97h-40zM707 662v-19q-51 -5 -66 -18q-16 -14 -22.5 -38t-6.5 -80v-518h-18l-441 549v-388q0 -76 17 -99.5t76 -31.5v-19h-234v19q62 7 79.5 29.5t17.5 101.5v440q-26 32 -44 42.5t-53 10.5v19h170 l386 -483v340q0 76 -19 98q-12 13 -26.5 17.5t-52.5 8.5v19h237z" />
<glyph unicode="&#x144;" horiz-adv-x="500" d="M191 507l147 148q23 23 42 23q35 0 35 -32q0 -23 -30 -42l-154 -97h-40zM485 0h-208l1 15q37 3 49.5 21.5t12.5 68.5v199q0 101 -73 101q-25 0 -47 -12t-56 -45v-276q0 -30 13.5 -42t51.5 -15v-15h-211v15q38 3 50 18.5t12 60.5v243q0 37 -7 51t-28 14q-20 0 -29 -4v17 q70 20 137 45l8 -3v-78h1q71 81 144 81q57 0 87.5 -40t30.5 -114v-221q0 -40 12 -53t49 -17v-15z" />
<glyph unicode="&#x145;" horiz-adv-x="722" d="M707 662v-19q-51 -5 -66 -18q-16 -14 -22.5 -38t-6.5 -80v-518h-18l-441 549v-388q0 -76 17 -99.5t76 -31.5v-19h-234v19q62 7 79.5 29.5t17.5 101.5v440q-26 32 -44 42.5t-53 10.5v19h170l386 -483v340q0 76 -19 98q-12 13 -26.5 17.5t-52.5 8.5v19h237zM318 -280 l-10 19q83 56 83 107q0 13 -14 13q-4 0 -13.5 -2t-15.5 -2q-58 0 -58 51q0 26 16.5 41.5t43.5 15.5q34 0 57 -24.5t23 -62.5q0 -46 -30.5 -89t-81.5 -67z" />
<glyph unicode="&#x146;" horiz-adv-x="500" d="M485 0h-208l1 15q37 3 49.5 21.5t12.5 68.5v199q0 101 -73 101q-25 0 -47 -12t-56 -45v-276q0 -30 13.5 -42t51.5 -15v-15h-211v15q38 3 50 18.5t12 60.5v243q0 37 -7 51t-28 14q-20 0 -29 -4v17q70 20 137 45l8 -3v-78h1q71 81 144 81q57 0 87.5 -40t30.5 -114v-221 q0 -40 12 -53t49 -17v-15zM213 -280l-10 19q83 56 83 107q0 13 -14 13q-4 0 -13.5 -2t-15.5 -2q-58 0 -58 51q0 26 16.5 41.5t43.5 15.5q34 0 57 -24.5t23 -62.5q0 -46 -30.5 -89t-81.5 -67z" />
<glyph unicode="&#x147;" horiz-adv-x="722" d="M519 886l-124 -167h-64l-123 167h35l120 -103l121 103h35zM707 662v-19q-51 -5 -66 -18q-16 -14 -22.5 -38t-6.5 -80v-518h-18l-441 549v-388q0 -76 17 -99.5t76 -31.5v-19h-234v19q62 7 79.5 29.5t17.5 101.5v440q-26 32 -44 42.5t-53 10.5v19h170l386 -483v340 q0 76 -19 98q-12 13 -26.5 17.5t-52.5 8.5v19h237z" />
<glyph unicode="&#x148;" horiz-adv-x="500" d="M406 674l-124 -167h-64l-123 167h35l120 -103l121 103h35zM485 0h-208l1 15q37 3 49.5 21.5t12.5 68.5v199q0 101 -73 101q-25 0 -47 -12t-56 -45v-276q0 -30 13.5 -42t51.5 -15v-15h-211v15q38 3 50 18.5t12 60.5v243q0 37 -7 51t-28 14q-20 0 -29 -4v17q70 20 137 45 l8 -3v-78h1q71 81 144 81q57 0 87.5 -40t30.5 -114v-221q0 -40 12 -53t49 -17v-15z" />
<glyph unicode="&#x149;" horiz-adv-x="590" d="M47 459l-9 19q82 56 82 107q0 13 -14 13q-2 0 -7 -2q-12 -2 -20 -2q-28 0 -43.5 13.5t-15.5 37.5q0 25 16.5 41t42.5 16q34 0 57 -25.5t23 -63.5q0 -45 -31 -87t-81 -67zM566 0h-208l1 15q37 3 49.5 21.5t12.5 68.5v199q0 101 -73 101q-25 0 -47 -12t-56 -45v-276 q0 -30 13.5 -42t51.5 -15v-15h-211v15q38 3 50 18.5t12 60.5v243q0 37 -7 51t-28 14q-20 0 -29 -4v17q70 20 137 45l8 -3v-78h1q71 81 144 81q57 0 87.5 -40t30.5 -114v-221q0 -40 12 -53t49 -17v-15z" />
<glyph unicode="&#x14a;" horiz-adv-x="710" d="M190 662v-120q65 136 194 136q94 0 161 -50t97.5 -125t30.5 -164q0 -60 -17 -121t-48.5 -114.5t-85 -87.5t-118.5 -34q-48 0 -78 25.5t-30 67.5q0 29 17 52.5t46 23.5q30 0 47 -19.5t17 -45.5q0 -6 -4 -22.5t-4 -20.5q0 -24 22 -24q56 0 91.5 80t35.5 212 q0 146 -52 233.5t-144 87.5q-59 0 -107 -49.5t-67 -140.5v-331q0 -38 12.5 -66.5t37.5 -28.5h14v-16h-223v16q36 0 46.5 19t10.5 57v455q0 49 -13.5 73.5t-48.5 24.5h-14v17h174z" />
<glyph unicode="&#x14b;" horiz-adv-x="504" d="M424 306v-306q0 -107 -43.5 -162.5t-126.5 -55.5q-41 0 -67 15.5t-26 39.5q0 16 12 27.5t29 11.5q23 0 48 -32q23 -28 42 -28q23 0 34 18q14 25 14 121v349q0 101 -73 101q-25 0 -47 -12t-56 -45v-276q0 -30 13.5 -42t51.5 -15v-15h-211v15q38 3 50 18.5t12 60.5v243 q0 37 -7 51t-28 14q-20 0 -29 -4v17q70 20 137 45l8 -3v-78h1q71 81 144 81q57 0 87.5 -40t30.5 -114z" />
<glyph unicode="&#x14c;" horiz-adv-x="722" d="M516 719h-311v54h311v-54zM688 331q0 -154 -91 -249.5t-236 -95.5q-146 0 -236.5 96t-90.5 252q0 152 90.5 247t236.5 95t236.5 -97.5t90.5 -247.5zM574 337q0 85 -24 152.5t-67 103.5q-56 47 -123 47q-85 0 -143 -67q-32 -36 -50.5 -102.5t-18.5 -138.5q0 -182 90 -265 q49 -45 124 -45q78 0 129 48q83 80 83 267z" />
<glyph unicode="&#x14d;" horiz-adv-x="500" d="M404 507h-311v54h311v-54zM470 231q0 -105 -62.5 -173t-162.5 -68q-92 0 -154 67.5t-62 170.5q0 104 62 168t163 64q93 0 154.5 -63.5t61.5 -165.5zM380 204q0 114 -50 178q-40 50 -95 50q-52 0 -84 -42.5t-32 -116.5q0 -128 53 -205q34 -50 90 -50q55 0 86.5 49.5 t31.5 136.5z" />
<glyph unicode="&#x14e;" horiz-adv-x="722" d="M471 876h29q-18 -157 -142 -157q-69 0 -104 41.5t-35 115.5h29q20 -97 112 -97q40 0 64.5 21.5t46.5 75.5zM688 331q0 -154 -91 -249.5t-236 -95.5q-146 0 -236.5 96t-90.5 252q0 152 90.5 247t236.5 95t236.5 -97.5t90.5 -247.5zM574 337q0 85 -24 152.5t-67 103.5 q-56 47 -123 47q-85 0 -143 -67q-32 -36 -50.5 -102.5t-18.5 -138.5q0 -182 90 -265q49 -45 124 -45q78 0 129 48q83 80 83 267z" />
<glyph unicode="&#x14f;" horiz-adv-x="500" d="M362 664h29q-18 -157 -142 -157q-69 0 -104 41.5t-35 115.5h29q20 -97 112 -97q40 0 64.5 21.5t46.5 75.5zM470 231q0 -105 -62.5 -173t-162.5 -68q-92 0 -154 67.5t-62 170.5q0 104 62 168t163 64q93 0 154.5 -63.5t61.5 -165.5zM380 204q0 114 -50 178q-40 50 -95 50 q-52 0 -84 -42.5t-32 -116.5q0 -128 53 -205q34 -50 90 -50q55 0 86.5 49.5t31.5 136.5z" />
<glyph unicode="&#x150;" horiz-adv-x="722" d="M327 719l146 148q23 23 43 23q34 0 34 -30q0 -27 -29 -45l-154 -96h-40zM171 719l146 148q23 23 43 23q34 0 34 -30q0 -27 -29 -45l-154 -96h-40zM688 331q0 -154 -91 -249.5t-236 -95.5q-146 0 -236.5 96t-90.5 252q0 152 90.5 247t236.5 95t236.5 -97.5t90.5 -247.5z M574 337q0 85 -24 152.5t-67 103.5q-56 47 -123 47q-85 0 -143 -67q-32 -36 -50.5 -102.5t-18.5 -138.5q0 -182 90 -265q49 -45 124 -45q78 0 129 48q83 80 83 267z" />
<glyph unicode="&#x151;" horiz-adv-x="500" d="M230 507l146 148q23 23 43 23q34 0 34 -30q0 -27 -29 -45l-154 -96h-40zM74 507l146 148q23 23 43 23q34 0 34 -30q0 -27 -29 -45l-154 -96h-40zM470 231q0 -105 -62.5 -173t-162.5 -68q-92 0 -154 67.5t-62 170.5q0 104 62 168t163 64q93 0 154.5 -63.5t61.5 -165.5z M380 204q0 114 -50 178q-40 50 -95 50q-52 0 -84 -42.5t-32 -116.5q0 -128 53 -205q34 -50 90 -50q55 0 86.5 49.5t31.5 136.5z" />
<glyph unicode="&#x152;" horiz-adv-x="889" d="M885 168l-44 -168h-343q-30 0 -95.5 -3t-88.5 -3q-59 0 -117 25.5t-93 68.5q-74 91 -74 241q0 192 129 285q75 54 183 54q17 0 65 -3q54 -3 113 -3h318v-141h-23q-9 66 -39 85.5t-122 19.5h-53q-41 0 -55.5 -8t-14.5 -27v-225h101q76 0 102.5 19t32.5 79h21v-234h-21 q-7 58 -28.5 78.5t-74.5 20.5h-133v-236q0 -30 12 -42.5t48 -12.5h113q49 0 86 30t71 100h24zM431 133v392q0 56 -21.5 81.5t-72.5 25.5q-92 0 -143.5 -79t-51.5 -224q0 -136 42 -211q49 -87 147 -87q53 0 76.5 24t23.5 78z" />
<glyph unicode="&#x153;" horiz-adv-x="722" d="M679 145l11 -6q-39 -81 -80 -115t-99 -34q-46 0 -75.5 22t-52.5 73q-28 -52 -62 -73.5t-85 -21.5q-91 0 -148.5 64t-57.5 164q0 59 21.5 113t58.5 85q50 44 122 44q46 0 80 -17t72 -59q31 42 60 59t70 17q81 0 126 -62q30 -40 34 -121h-254q5 -113 36.5 -166.5 t92.5 -53.5q36 0 65.5 20t64.5 68zM579 307v27q0 42 -22.5 69.5t-56.5 27.5q-80 0 -81 -124h160zM343 195q0 236 -117 236q-43 0 -74 -36q-32 -37 -32 -140q0 -124 37 -188q30 -51 83 -51q50 0 76.5 46t26.5 133z" />
<glyph unicode="&#x154;" horiz-adv-x="667" d="M215 719l147 148q23 23 42 23q35 0 35 -32q0 -23 -30 -42l-154 -97h-40zM660 0h-162l-238 308l-56 -2v-194q0 -57 15.5 -73t73.5 -20v-19h-276v19q57 5 71 22t14 83v427q0 56 -14 72t-71 20v19h272q137 0 209 -59q49 -40 49 -120q0 -136 -181 -164l200 -253 q21 -26 40 -35t54 -12v-19zM204 583v-240q72 1 107 8t70 26q57 32 57 114q0 134 -183 134q-27 0 -39 -8.5t-12 -33.5z" />
<glyph unicode="&#x155;" horiz-adv-x="333" d="M66 507l147 148q23 23 42 23q35 0 35 -32q0 -23 -30 -42l-154 -97h-40zM160 458v-92q38 54 63.5 74t56.5 20q26 0 40.5 -14t14.5 -39q0 -21 -10.5 -33t-28.5 -12q-19 0 -40 20q-16 15 -26 15q-21 0 -45.5 -29t-24.5 -53v-225q0 -43 17 -58t68 -17v-15h-240v15 q48 9 59.5 20t11.5 49v250q0 33 -7.5 46.5t-26.5 13.5q-16 0 -35 -4v16q63 20 148 54z" />
<glyph unicode="&#x156;" horiz-adv-x="667" d="M660 0h-162l-238 308l-56 -2v-194q0 -57 15.5 -73t73.5 -20v-19h-276v19q57 5 71 22t14 83v427q0 56 -14 72t-71 20v19h272q137 0 209 -59q49 -40 49 -120q0 -136 -181 -164l200 -253q21 -26 40 -35t54 -12v-19zM204 583v-240q72 1 107 8t70 26q57 32 57 114 q0 134 -183 134q-27 0 -39 -8.5t-12 -33.5zM308 -280l-10 19q83 56 83 107q0 13 -14 13q-4 0 -13.5 -2t-15.5 -2q-58 0 -58 51q0 26 16.5 41.5t43.5 15.5q34 0 57 -24.5t23 -62.5q0 -46 -30.5 -89t-81.5 -67z" />
<glyph unicode="&#x157;" horiz-adv-x="333" d="M160 458v-92q38 54 63.5 74t56.5 20q26 0 40.5 -14t14.5 -39q0 -21 -10.5 -33t-28.5 -12q-19 0 -40 20q-16 15 -26 15q-21 0 -45.5 -29t-24.5 -53v-225q0 -43 17 -58t68 -17v-15h-240v15q48 9 59.5 20t11.5 49v250q0 33 -7.5 46.5t-26.5 13.5q-16 0 -35 -4v16 q63 20 148 54zM118 -280l-10 19q83 56 83 107q0 13 -14 13q-4 0 -13.5 -2t-15.5 -2q-58 0 -58 51q0 26 16.5 41.5t43.5 15.5q34 0 57 -24.5t23 -62.5q0 -46 -30.5 -89t-81.5 -67z" />
<glyph unicode="&#x158;" horiz-adv-x="667" d="M446 886l-124 -167h-64l-123 167h35l120 -103l121 103h35zM660 0h-162l-238 308l-56 -2v-194q0 -57 15.5 -73t73.5 -20v-19h-276v19q57 5 71 22t14 83v427q0 56 -14 72t-71 20v19h272q137 0 209 -59q49 -40 49 -120q0 -136 -181 -164l200 -253q21 -26 40 -35t54 -12v-19z M204 583v-240q72 1 107 8t70 26q57 32 57 114q0 134 -183 134q-27 0 -39 -8.5t-12 -33.5z" />
<glyph unicode="&#x159;" horiz-adv-x="333" d="M321 674l-124 -167h-64l-123 167h35l120 -103l121 103h35zM160 458v-92q38 54 63.5 74t56.5 20q26 0 40.5 -14t14.5 -39q0 -21 -10.5 -33t-28.5 -12q-19 0 -40 20q-16 15 -26 15q-21 0 -45.5 -29t-24.5 -53v-225q0 -43 17 -58t68 -17v-15h-240v15q48 9 59.5 20t11.5 49 v250q0 33 -7.5 46.5t-26.5 13.5q-16 0 -35 -4v16q63 20 148 54z" />
<glyph unicode="&#x15a;" horiz-adv-x="556" d="M201 719l147 148q23 23 42 23q35 0 35 -32q0 -23 -30 -42l-154 -97h-40zM469 463h-25q-17 62 -41 94q-61 78 -145 78q-46 0 -73.5 -26.5t-27.5 -68.5q0 -20 10 -39t21.5 -32.5t40.5 -33.5t47 -31l60 -35q81 -47 118 -93.5t37 -102.5q0 -83 -58 -135t-146 -52 q-65 0 -118 23q-26 11 -47 11q-12 0 -20 -9t-8 -24h-22l-29 212h22q67 -177 206 -177q53 0 86 31.5t33 80.5q0 47 -29 79q-48 52 -168 116q-122 65 -122 172q0 80 49 127.5t125 47.5q53 0 105 -22q27 -12 44 -12q26 0 32 34h21z" />
<glyph unicode="&#x15b;" horiz-adv-x="389" d="M117 507l147 148q23 23 42 23q35 0 35 -32q0 -23 -30 -42l-154 -97h-40zM156 301l104 -63q50 -30 69 -56t19 -67q0 -50 -41.5 -87.5t-98.5 -37.5q-47 0 -73 9q-27 9 -46 9q-17 0 -24 -12h-13v157h16q16 -73 46 -107t81 -34q37 0 60 21t23 53q0 46 -53 75l-54 30 q-120 67 -120 145q0 58 37.5 90.5t100.5 32.5q44 0 67 -11q18 -8 28 -8q7 0 16 10h11l5 -136h-15q-17 68 -42.5 95.5t-70.5 27.5q-34 0 -54.5 -17t-20.5 -51q0 -17 11.5 -36.5t31.5 -31.5z" />
<glyph unicode="&#x15c;" horiz-adv-x="556" d="M426 719h-34l-122 103l-121 -103h-34l124 167h62zM469 463h-25q-17 62 -41 94q-61 78 -145 78q-46 0 -73.5 -26.5t-27.5 -68.5q0 -20 10 -39t21.5 -32.5t40.5 -33.5t47 -31l60 -35q81 -47 118 -93.5t37 -102.5q0 -83 -58 -135t-146 -52q-65 0 -118 23q-26 11 -47 11 q-12 0 -20 -9t-8 -24h-22l-29 212h22q67 -177 206 -177q53 0 86 31.5t33 80.5q0 47 -29 79q-48 52 -168 116q-122 65 -122 172q0 80 49 127.5t125 47.5q53 0 105 -22q27 -12 44 -12q26 0 32 34h21z" />
<glyph unicode="&#x15d;" horiz-adv-x="389" d="M351 507h-34l-122 103l-121 -103h-34l124 167h62zM156 301l104 -63q50 -30 69 -56t19 -67q0 -50 -41.5 -87.5t-98.5 -37.5q-47 0 -73 9q-27 9 -46 9q-17 0 -24 -12h-13v157h16q16 -73 46 -107t81 -34q37 0 60 21t23 53q0 46 -53 75l-54 30q-120 67 -120 145 q0 58 37.5 90.5t100.5 32.5q44 0 67 -11q18 -8 28 -8q7 0 16 10h11l5 -136h-15q-17 68 -42.5 95.5t-70.5 27.5q-34 0 -54.5 -17t-20.5 -51q0 -17 11.5 -36.5t31.5 -31.5z" />
<glyph unicode="&#x15e;" horiz-adv-x="556" d="M225 -99l36 86q-50 3 -92 22q-26 11 -47 11q-12 0 -20 -9t-8 -24h-22l-29 212h22q67 -177 206 -177q53 0 86 31.5t33 80.5q0 47 -29 79q-48 52 -168 116q-122 65 -122 172q0 80 49 127.5t125 47.5q53 0 105 -22q27 -12 44 -12q26 0 32 34h21l22 -213h-25q-17 62 -41 94 q-61 78 -145 78q-46 0 -73.5 -26.5t-27.5 -68.5q0 -20 10 -39t21.5 -32.5t40.5 -33.5t47 -31l60 -35q81 -47 118 -93.5t37 -102.5q0 -81 -55 -132.5t-140 -54.5l-20 -51q15 3 26 3q41 0 63.5 -18t22.5 -51q0 -39 -33.5 -61.5t-91.5 -22.5q-45 0 -84 16l14 31q36 -12 65 -12 q25 0 40 12t15 32q0 19 -12 27.5t-41 8.5q-17 0 -28 -4z" />
<glyph unicode="&#x15f;" horiz-adv-x="389" d="M145 -99l37 90q-30 2 -47 8q-27 9 -46 9q-17 0 -24 -12h-13v157h16q16 -73 46 -107t81 -34q37 0 60 21t23 53q0 46 -53 75l-54 30q-120 67 -120 145q0 58 37.5 90.5t100.5 32.5q44 0 67 -11q18 -8 28 -8q7 0 16 10h11l5 -136h-15q-17 68 -42.5 95.5t-70.5 27.5 q-34 0 -54.5 -17t-20.5 -51q0 -17 11.5 -36.5t31.5 -31.5l104 -63q50 -30 69 -56t19 -67q0 -48 -38.5 -84.5t-92.5 -40.5l-21 -55q15 3 26 3q41 0 63.5 -18t22.5 -51q0 -39 -33.5 -61.5t-91.5 -22.5q-45 0 -84 16l14 31q36 -12 65 -12q25 0 40 12t15 32q0 19 -12 27.5 t-41 8.5q-17 0 -28 -4z" />
<glyph unicode="&#x160;" horiz-adv-x="556" d="M429 924l-124 -167h-64l-123 167h35l120 -103l121 103h35zM469 463h-25q-17 62 -41 94q-61 78 -145 78q-46 0 -73.5 -26.5t-27.5 -68.5q0 -20 10 -39t21.5 -32.5t40.5 -33.5t47 -31l60 -35q81 -47 118 -93.5t37 -102.5q0 -83 -58 -135t-146 -52q-65 0 -118 23 q-26 11 -47 11q-12 0 -20 -9t-8 -24h-22l-29 212h22q67 -177 206 -177q53 0 86 31.5t33 80.5q0 47 -29 79q-48 52 -168 116q-122 65 -122 172q0 80 49 127.5t125 47.5q53 0 105 -22q27 -12 44 -12q26 0 32 34h21z" />
<glyph unicode="&#x161;" horiz-adv-x="389" d="M349 674l-124 -167h-64l-123 167h35l120 -103l121 103h35zM143 301l104 -63q50 -30 69 -56t19 -67q0 -50 -41.5 -87.5t-98.5 -37.5q-47 0 -73 9q-27 9 -46 9q-17 0 -24 -12h-13v157h16q16 -73 46 -107t81 -34q37 0 60 21t23 53q0 46 -53 75l-54 30q-120 67 -120 145 q0 58 37.5 90.5t100.5 32.5q44 0 67 -11q18 -8 28 -8q7 0 16 10h11l5 -136h-15q-17 68 -42.5 95.5t-70.5 27.5q-34 0 -54.5 -17t-20.5 -51q0 -17 11.5 -36.5t31.5 -31.5z" />
<glyph unicode="&#x162;" horiz-adv-x="611" d="M286 0h-126v19q63 4 78.5 21t15.5 83v497h-60q-81 0 -109.5 -23.5t-43.5 -104.5h-24l7 170h562l7 -170h-24q-16 82 -45 105t-109 23h-59v-509q0 -57 17 -73t79 -19v-19h-131l-25 -65q15 3 26 3q41 0 63.5 -18t22.5 -51q0 -39 -33.5 -61.5t-91.5 -22.5q-45 0 -84 16l14 31 q36 -12 65 -12q25 0 40 12t15 32q0 19 -12 27.5t-41 8.5q-17 0 -28 -4l-7 5z" />
<glyph unicode="&#x163;" horiz-adv-x="278" d="M88 -99l39 94q-57 21 -57 122v301h-53q-4 3 -4 7q0 8 17 19q38 22 97 107q2 3 9.5 12.5t10.5 15.5q7 0 7 -13v-116h101v-32h-101v-286q0 -48 12 -69t40 -21q30 0 60 35l13 -11q-48 -75 -119 -76l-21 -55q15 3 26 3q41 0 63.5 -18t22.5 -51q0 -39 -33.5 -61.5t-91.5 -22.5 q-45 0 -84 16l14 31q36 -12 65 -12q25 0 40 12t15 32q0 19 -12 27.5t-41 8.5q-17 0 -28 -4z" />
<glyph unicode="&#x164;" horiz-adv-x="611" d="M461 886l-124 -167h-64l-123 167h35l120 -103l121 103h35zM593 492h-24q-16 82 -45 105t-109 23h-59v-509q0 -57 17 -73t79 -19v-19h-292v19q63 4 78.5 21t15.5 83v497h-60q-81 0 -109.5 -23.5t-43.5 -104.5h-24l7 170h562z" />
<glyph unicode="&#x165;" horiz-adv-x="315" d="M221 458l-9 19q82 56 82 107q0 13 -14 13q-2 0 -7 -2q-12 -2 -20 -2q-28 0 -43.5 13.5t-15.5 37.5q0 25 16.5 41t42.5 16q34 0 57 -25.5t23 -63.5q0 -45 -31 -87t-81 -67zM266 77l13 -11q-48 -76 -121 -76q-88 0 -88 127v301h-53q-4 3 -4 7q0 8 17 19q38 22 97 107 q2 3 9.5 12.5t10.5 15.5q7 0 7 -13v-116h51v-32h-51v-286q0 -48 12 -69t40 -21q30 0 60 35z" />
<glyph unicode="&#x166;" horiz-adv-x="613" d="M593 492h-24q-16 82 -45 105t-109 23h-59v-264h126v-44h-126v-201q0 -57 17 -73t79 -19v-19h-292v19q63 4 78.5 21t15.5 83v189h-128v44h128v264h-60q-81 0 -109.5 -23.5t-43.5 -104.5h-24l7 170h562z" />
<glyph unicode="&#x167;" horiz-adv-x="279" d="M267 82l13 -11q-47 -76 -119 -76q-90 0 -90 131v109h-60v44h60v144h-49q-8 0 -8 7q0 5 4.5 9.5t15 11.5t14.5 10q31 26 63 71l37 52q7 0 7 -12v-117h101v-32h-101v-144h97v-44h-97v-100q0 -49 13 -68.5t39 -19.5q29 0 60 35z" />
<glyph unicode="&#x168;" horiz-adv-x="722" d="M705 662v-19q-61 -6 -77.5 -29.5t-16.5 -97.5v-255q0 -77 -11 -121t-43 -81q-64 -73 -202 -73q-109 0 -170 46q-81 60 -81 217v310q0 50 -15.5 65t-74.5 19v19h283v-19q-60 -5 -75.5 -21.5t-15.5 -72.5v-312q0 -65 8 -100t36 -62q47 -45 128 -45q101 0 152 59 q23 28 30 61.5t7 99.5v263q0 78 -17 102t-77 28v19h232zM505 849h29q-16 -57 -40 -81.5t-65 -24.5q-32 0 -81 24l-23 11q-24 11 -41 11q-35 0 -51 -46h-29q11 49 37.5 75t63.5 26q34 0 70 -18l24 -12q29 -15 53 -15q17 0 28.5 11t24.5 39z" />
<glyph unicode="&#x169;" horiz-adv-x="500" d="M376 638h29q-16 -57 -40 -81.5t-65 -24.5q-32 0 -81 24l-23 11q-24 11 -41 11q-35 0 -51 -46h-29q11 49 37 75t64 26q34 0 70 -18l24 -12q28 -15 53 -15q17 0 28.5 11t24.5 39zM480 50v-14q-78 -21 -137 -45l-5 3v82h-2q-63 -86 -143 -86q-57 0 -89.5 35t-32.5 93v251 q0 37 -13 51t-49 16v14h146v-323q0 -34 20.5 -56.5t50.5 -22.5q49 0 84 31q13 12 18 22.5t5 35.5v231q0 39 -14 50.5t-60 14.5v17h158v-343q0 -35 11.5 -46t45.5 -11h6z" />
<glyph unicode="&#x16a;" horiz-adv-x="722" d="M510 719h-311v54h311v-54zM705 662v-19q-61 -6 -77.5 -29.5t-16.5 -97.5v-255q0 -77 -11 -121t-43 -81q-64 -73 -202 -73q-109 0 -170 46q-81 60 -81 217v310q0 50 -15.5 65t-74.5 19v19h283v-19q-60 -5 -75.5 -21.5t-15.5 -72.5v-312q0 -65 8 -100t36 -62 q47 -45 128 -45q101 0 152 59q23 28 30 61.5t7 99.5v263q0 78 -17 102t-77 28v19h232z" />
<glyph unicode="&#x16b;" horiz-adv-x="500" d="M405 507h-311v54h311v-54zM480 50v-14q-78 -21 -137 -45l-5 3v82h-2q-63 -86 -143 -86q-57 0 -89.5 35t-32.5 93v251q0 37 -13 51t-49 16v14h146v-323q0 -34 20.5 -56.5t50.5 -22.5q49 0 84 31q13 12 18 22.5t5 35.5v231q0 39 -14 50.5t-60 14.5v17h158v-343 q0 -35 11.5 -46t45.5 -11h6z" />
<glyph unicode="&#x16c;" horiz-adv-x="722" d="M483 876h29q-18 -157 -142 -157q-69 0 -104 41.5t-35 115.5h29q20 -97 112 -97q40 0 64.5 21.5t46.5 75.5zM705 662v-19q-61 -6 -77.5 -29.5t-16.5 -97.5v-255q0 -77 -11 -121t-43 -81q-64 -73 -202 -73q-109 0 -170 46q-81 60 -81 217v310q0 50 -15.5 65t-74.5 19v19 h283v-19q-60 -5 -75.5 -21.5t-15.5 -72.5v-312q0 -65 8 -100t36 -62q47 -45 128 -45q101 0 152 59q23 28 30 61.5t7 99.5v263q0 78 -17 102t-77 28v19h232z" />
<glyph unicode="&#x16d;" horiz-adv-x="500" d="M352 664h29q-18 -157 -142 -157q-69 0 -104 41.5t-35 115.5h29q20 -97 112 -97q40 0 64.5 21.5t46.5 75.5zM480 50v-14q-78 -21 -137 -45l-5 3v82h-2q-63 -86 -143 -86q-57 0 -89.5 35t-32.5 93v251q0 37 -13 51t-49 16v14h146v-323q0 -34 20.5 -56.5t50.5 -22.5 q49 0 84 31q13 12 18 22.5t5 35.5v231q0 39 -14 50.5t-60 14.5v17h158v-343q0 -35 11.5 -46t45.5 -11h6z" />
<glyph unicode="&#x16e;" horiz-adv-x="722" d="M465 798q0 -41 -29.5 -70t-71.5 -29q-41 0 -69.5 29t-28.5 71q0 41 29.5 70t71.5 29q40 0 69 -29.5t29 -70.5zM431 799q0 27 -19.5 46t-47.5 19q-26 0 -45 -19.5t-19 -45.5q0 -28 19 -47t45 -19q28 0 47.5 19t19.5 47zM705 662v-19q-61 -6 -77.5 -29.5t-16.5 -97.5v-255 q0 -77 -11 -121t-43 -81q-64 -73 -202 -73q-109 0 -170 46q-81 60 -81 217v310q0 50 -15.5 65t-74.5 19v19h283v-19q-60 -5 -75.5 -21.5t-15.5 -72.5v-312q0 -65 8 -100t36 -62q47 -45 128 -45q101 0 152 59q23 28 30 61.5t7 99.5v263q0 78 -17 102t-77 28v19h232z" />
<glyph unicode="&#x16f;" horiz-adv-x="500" d="M349 611q0 -41 -29.5 -70t-71.5 -29q-41 0 -69.5 29t-28.5 71q0 41 29.5 70t71.5 29q40 0 69 -29.5t29 -70.5zM315 612q0 27 -19.5 46t-47.5 19q-26 0 -45 -19.5t-19 -45.5q0 -28 19 -47t45 -19q28 0 47.5 19t19.5 47zM480 50v-14q-78 -21 -137 -45l-5 3v82h-2 q-63 -86 -143 -86q-57 0 -89.5 35t-32.5 93v251q0 37 -13 51t-49 16v14h146v-323q0 -34 20.5 -56.5t50.5 -22.5q49 0 84 31q13 12 18 22.5t5 35.5v231q0 39 -14 50.5t-60 14.5v17h158v-343q0 -35 11.5 -46t45.5 -11h6z" />
<glyph unicode="&#x170;" horiz-adv-x="722" d="M338 719l146 148q23 23 43 23q34 0 34 -30q0 -27 -29 -45l-154 -96h-40zM182 719l146 148q23 23 43 23q34 0 34 -30q0 -27 -29 -45l-154 -96h-40zM705 662v-19q-61 -6 -77.5 -29.5t-16.5 -97.5v-255q0 -77 -11 -121t-43 -81q-64 -73 -202 -73q-109 0 -170 46 q-81 60 -81 217v310q0 50 -15.5 65t-74.5 19v19h283v-19q-60 -5 -75.5 -21.5t-15.5 -72.5v-312q0 -65 8 -100t36 -62q47 -45 128 -45q101 0 152 59q23 28 30 61.5t7 99.5v263q0 78 -17 102t-77 28v19h232z" />
<glyph unicode="&#x171;" horiz-adv-x="500" d="M211 507l146 148q23 23 43 23q34 0 34 -30q0 -27 -29 -45l-154 -96h-40zM55 507l146 148q23 23 43 23q34 0 34 -30q0 -27 -29 -45l-154 -96h-40zM480 50v-14q-78 -21 -137 -45l-5 3v82h-2q-63 -86 -143 -86q-57 0 -89.5 35t-32.5 93v251q0 37 -13 51t-49 16v14h146v-323 q0 -34 20.5 -56.5t50.5 -22.5q49 0 84 31q13 12 18 22.5t5 35.5v231q0 39 -14 50.5t-60 14.5v17h158v-343q0 -35 11.5 -46t45.5 -11h6z" />
<glyph unicode="&#x172;" horiz-adv-x="722" d="M497 -73l20 -16q-28 -41 -52.5 -58.5t-58.5 -17.5q-33 0 -53.5 19.5t-20.5 54.5q0 44 37 77h-14q-109 0 -170 46q-81 60 -81 217v310q0 50 -15.5 65t-74.5 19v19h283v-19q-60 -5 -75.5 -21.5t-15.5 -72.5v-312q0 -65 8 -100t36 -62q47 -45 128 -45q101 0 152 59 q23 28 30 61.5t7 99.5v263q0 78 -17 102t-77 28v19h232v-19q-61 -6 -77.5 -29.5t-16.5 -97.5v-255q0 -77 -11 -121t-43 -81q-47 -54 -136 -68q-33 -30 -33 -61q0 -39 38 -39q32 0 71 36z" />
<glyph unicode="&#x173;" horiz-adv-x="500" d="M338 4v72h-2q-63 -86 -143 -86q-57 0 -89.5 35t-32.5 93v251q0 37 -13 51t-49 16v14h146v-323q0 -34 20.5 -56.5t50.5 -22.5q49 0 84 31q13 12 18 22.5t5 35.5v231q0 39 -14 50.5t-60 14.5v17h158v-343q0 -35 11.5 -46t45.5 -11h6v-14q-51 -14 -89 -27q-44 -35 -44 -70 q0 -39 38 -39q32 0 71 36l20 -16q-28 -41 -52.5 -58.5t-58.5 -17.5q-33 0 -53.5 19.5t-20.5 54.5q0 49 47 86z" />
<glyph unicode="&#x174;" horiz-adv-x="944" d="M627 719h-34l-122 103l-121 -103h-34l124 167h62zM932 662v-19q-40 -8 -54.5 -19.5t-28.5 -50.5q-114 -306 -204 -584h-15l-160 423l-154 -423h-15q-34 101 -101 285l-91 249q-25 72 -45.5 95.5t-58.5 24.5v19h244v-19q-37 -1 -50.5 -8t-13.5 -23q0 -17 11 -47l144 -376 l104 283l-28 75q-24 65 -41 80t-61 16v19h265v-19q-77 -2 -77 -35q0 -13 17 -58l143 -364l126 339q17 48 17 77q0 40 -70 41v19h197z" />
<glyph unicode="&#x175;" horiz-adv-x="722" d="M528 507h-34l-122 103l-121 -103h-34l124 167h62zM694 450v-15q-15 -5 -22 -14.5t-19 -39.5l-138 -346q-20 -49 -28 -49q-5 0 -8.5 6.5t-15.5 36.5l-91 236l-112 -240q-18 -39 -25 -39q-9 0 -26 44l-135 342q-15 39 -25 50t-28 13v15h180v-15q-26 -3 -36 -10t-10 -23 q0 -15 6 -30l99 -261l91 199l-20 56q-14 40 -27.5 53t-41.5 16v15h203v-15q-35 -5 -46.5 -12t-11.5 -23t17 -60l84 -224l90 222q17 42 17 67q0 12 -9.5 18.5t-34.5 11.5v15h123z" />
<glyph unicode="&#x176;" horiz-adv-x="722" d="M517 719h-34l-122 103l-121 -103h-34l124 167h62zM703 662v-19q-44 -4 -69.5 -25t-68.5 -87l-148 -228v-192q0 -57 19 -73t84 -19v-19h-306v19q68 5 84.5 21.5t16.5 82.5v171l-131 192q-68 100 -97 127.5t-65 29.5v19h279v-19l-24 -1q-47 -1 -47 -26q0 -21 18 -47 l146 -221l145 222q14 21 14 42q-1 17 -15.5 23.5t-52.5 7.5v19h218z" />
<glyph unicode="&#x177;" horiz-adv-x="500" d="M405 507h-34l-122 103l-121 -103h-34l124 167h62zM475 450v-15q-18 -2 -29 -13t-21 -38l-150 -409q-39 -106 -78.5 -149.5t-96.5 -43.5q-32 0 -51 16.5t-19 41.5q0 19 12.5 32.5t30.5 13.5q29 0 52 -13q13 -7 26 -7q21 0 50 44q14 20 27 57t13 51q0 13 -42 101l-132 282 q-13 29 -53 35v14h205v-15q-32 -1 -44.5 -7t-12.5 -20q0 -11 13 -41l112 -250l97 276q4 9 4 18q0 24 -46 24v15h133z" />
<glyph unicode="&#x178;" horiz-adv-x="722" d="M518 822q0 -20 -15 -34.5t-36 -14.5q-20 0 -34 14.5t-14 35.5q0 20 14.5 34.5t34.5 14.5t35 -15t15 -35zM319 822q0 -20 -15 -34.5t-36 -14.5q-20 0 -34 14.5t-14 35.5q0 20 14.5 34.5t34.5 14.5t35 -15t15 -35zM703 662v-19q-44 -4 -69.5 -25t-68.5 -87l-148 -228v-192 q0 -57 19 -73t84 -19v-19h-306v19q68 5 84.5 21.5t16.5 82.5v171l-131 192q-68 100 -97 127.5t-65 29.5v19h279v-19l-24 -1q-47 -1 -47 -26q0 -21 18 -47l146 -221l145 222q14 21 14 42q-1 17 -15.5 23.5t-52.5 7.5v19h218z" />
<glyph unicode="&#x179;" horiz-adv-x="612" d="M238 719l147 148q23 23 42 23q35 0 35 -32q0 -23 -30 -42l-154 -97h-40zM598 176l-25 -176h-563v15l437 609h-214q-99 0 -134 -35q-18 -19 -25.5 -37.5t-15.5 -60.5h-26l21 171h525v-15l-432 -609h252q78 0 117 28q23 16 34 37.5t26 72.5h23z" />
<glyph unicode="&#x17a;" horiz-adv-x="444" d="M154 507l147 148q23 23 42 23q35 0 35 -32q0 -23 -30 -42l-154 -97h-40zM418 136l-15 -136h-376v15l266 405h-135q-47 0 -63.5 -16.5t-23.5 -71.5h-18l4 118h346v-15l-269 -405h133q84 0 106 27q14 17 27 83z" />
<glyph unicode="&#x17b;" horiz-adv-x="612" d="M369 784q0 -21 -14.5 -35t-35.5 -14q-20 0 -34.5 14.5t-14.5 34.5q0 21 13.5 35.5t35.5 14.5q23 0 36.5 -14t13.5 -36zM598 176l-25 -176h-563v15l437 609h-214q-99 0 -134 -35q-18 -19 -25.5 -37.5t-15.5 -60.5h-26l21 171h525v-15l-432 -609h252q78 0 117 28 q23 16 34 37.5t26 72.5h23z" />
<glyph unicode="&#x17c;" horiz-adv-x="444" d="M287 572q0 -21 -14.5 -35t-35.5 -14q-20 0 -34.5 14.5t-14.5 34.5q0 21 13.5 35.5t35.5 14.5q23 0 36.5 -14t13.5 -36zM418 136l-15 -136h-376v15l266 405h-135q-47 0 -63.5 -16.5t-23.5 -71.5h-18l4 118h346v-15l-269 -405h133q84 0 106 27q14 17 27 83z" />
<glyph unicode="&#x17d;" horiz-adv-x="612" d="M464 924l-124 -167h-64l-123 167h35l120 -103l121 103h35zM598 176l-25 -176h-563v15l437 609h-214q-99 0 -134 -35q-18 -19 -25.5 -37.5t-15.5 -60.5h-26l21 171h525v-15l-432 -609h252q78 0 117 28q23 16 34 37.5t26 72.5h23z" />
<glyph unicode="&#x17e;" horiz-adv-x="444" d="M384 674l-124 -167h-64l-123 167h35l120 -103l121 103h35zM418 136l-15 -136h-376v15l266 405h-135q-47 0 -63.5 -16.5t-23.5 -71.5h-18l4 118h346v-15l-269 -405h133q84 0 106 27q14 17 27 83z" />
<glyph unicode="&#x17f;" horiz-adv-x="334" d="M76 450h27q0 61 8 94q32 139 168 139q38 0 64 -12q40 -18 40 -50q0 -17 -12.5 -29t-28.5 -12q-25 0 -45 34q-24 41 -53 41q-57 0 -57 -91v-476q0 -43 18 -58q17 -13 75 -15v-15h-260v15q51 3 65 16q18 13 18 59v328h-27v32z" />
<glyph unicode="&#x180;" horiz-adv-x="500" d="M157 509v-133q16 38 52.5 61t82.5 23q79 0 129.5 -63t50.5 -157q0 -110 -67 -180t-167 -70q-61 0 -113 20.5t-52 45.5v453h-92v31h92v26q0 37 -9 47.5t-40 10.5q-7 0 -17 -2v17l30 9l115 35l5 -2v-141h187v-31h-187zM157 318v-244q0 -23 28.5 -37.5t68.5 -14.5 q53 0 91.5 40.5t38.5 137.5q0 27 -5.5 56.5t-18 63.5t-39.5 55.5t-65 21.5q-40 0 -69.5 -23.5t-29.5 -55.5z" />
<glyph unicode="&#x188;" horiz-adv-x="500" d="M398 156l14 -9q-34 -73 -80.5 -115t-117.5 -42q-85 0 -137 64.5t-52 155.5q0 69 26.5 124.5t74.5 87.5q55 38 120 38q39 0 79 -16q3 51 34 83t82 32q27 0 48.5 -16t21.5 -42q0 -28 -25 -28q-14 0 -22 9.5t-11 21t-11.5 21t-22.5 9.5q-40 0 -40 -83q0 -10 0.5 -25.5 t0.5 -19.5q18 -23 18 -47q0 -19 -13.5 -31.5t-32.5 -12.5q-25 0 -37 18t-14.5 40t-16 40t-40.5 18q-68 0 -105 -48.5t-37 -129.5q0 -75 40.5 -133t112.5 -58q48 0 80 24t63 70z" />
<glyph unicode="&#x190;" horiz-adv-x="580" d="M526 168l36 -9q-1 -58 -60 -107q-71 -58 -197 -58q-66 0 -124 15t-103 57t-45 106q0 65 37.5 117t99.5 63q-66 31 -96 60.5t-30 85.5q0 61 42.5 104.5t100.5 62t122 19.5q59 0 107 -14q40 -11 71.5 -41.5t31.5 -65.5q0 -23 -13 -41.5t-34 -18.5q-45 0 -64 81 q-6 24 -36.5 40t-58.5 16q-165 0 -165 -166q0 -97 134 -97q9 0 51.5 5.5t53.5 5.5q16 0 31 -7.5t15 -21.5q0 -18 -26.5 -30t-47.5 -12q-8 0 -41.5 2.5t-39.5 2.5q-68 0 -104.5 -37t-36.5 -104q0 -127 190 -127q88 0 130 21.5t69 92.5z" />
<glyph unicode="&#x192;" horiz-adv-x="434" d="M62 437h114q13 137 51 203t108 66q36 0 63.5 -19.5t27.5 -48.5q0 -19 -12 -32t-30 -13q-16 0 -28.5 8.5t-12.5 24.5q0 13 4.5 23.5t4.5 15.5q0 12 -21 12q-27 0 -40 -18q-32 -44 -32 -222h119v-31h-120q-1 -117 -17.5 -271t-33.5 -197q-39 -97 -115 -97q-36 0 -61 19.5 t-25 49.5q0 21 11 33t31 12q17 0 28 -10t11 -26q0 -15 -6 -27q-5 -9 -5 -14q2 -13 21 -13q69 0 69 174q0 23 -1 80t-1 69q0 77 8 218h-110v31z" />
<glyph unicode="&#x195;" horiz-adv-x="735" d="M427 287v-161q0 -36 26 -65.5t61 -29.5q71 0 118.5 64.5t47.5 137.5q0 42 -10.5 73t-25.5 47t-30 27.5t-25.5 22.5t-10.5 25t14 23t29 9q28 0 47 -23t27.5 -59.5t11.5 -65.5t3 -57q0 -70 -21 -128t-70.5 -97.5t-121.5 -39.5q-76 0 -115 32t-39 106v172q0 106 -76 106 q-55 0 -110 -63v-241q0 -49 12 -66t56 -21v-15h-216v15q44 5 54 20.5t10 65.5v477q0 30 -10.5 38t-37.5 8q-8 0 -15 -1v16q80 23 142 44l5 -3v-304q18 23 31 36.5t45.5 30.5t69.5 17q35 0 60 -13.5t37 -30.5t18.5 -44.5t7.5 -43.5t1 -41z" />
<glyph unicode="&#x199;" horiz-adv-x="500" d="M505 0h-218v15h19q21 0 21 16q0 9 -21 36l-140 184v-184q0 -29 13.5 -39t41.5 -12l20 -1v-15h-234v15q52 9 63.5 18t11.5 47v385q0 89 64 153.5t159 64.5q38 0 65.5 -15t27.5 -41q0 -16 -12.5 -27t-27.5 -11q-22 0 -47 30t-42 30q-39 0 -71 -40t-32 -99v-249l137 122 q23 20 23 35q0 17 -50 17v15h204v-15q-45 0 -80 -18q-44 -23 -125 -98l-40 -37l155 -197q24 -30 47.5 -46t36.5 -19.5t31 -4.5v-15z" />
<glyph unicode="&#x19a;" horiz-adv-x="278" d="M257 0h-236v15q47 4 62 19.5t15 57.5v255h-77v31h77v183q0 36 -9 50t-33 14q-21 0 -37 -2v16q95 23 158 44l5 -4v-301h75v-31h-75v-260q0 -42 14 -55.5t61 -16.5v-15z" />
<glyph unicode="&#x19b;" horiz-adv-x="520" d="M516 0h-133v15q46 0 46 24q0 9 -4 18l-97 276l-112 -250q-13 -30 -13 -41q0 -14 12.5 -20t44.5 -7v-15h-205v15q40 5 53 34l132 282q42 91 42 101q0 14 -17 61l-194 -194v54l177 176q-4 8 -6 11q-29 44 -50 44q-13 0 -26 -7q-23 -13 -52 -13q-18 0 -30.5 13.5t-12.5 32.5 q0 25 19 41.5t51 16.5q45 0 77.5 -25.5t61.5 -82.5l106 108v-54l-88 -90l168 -458q10 -27 21 -38t29 -13v-15z" />
<glyph unicode="&#x19e;" horiz-adv-x="500" d="M485 -233h-208l1 15q37 3 49.5 21.5t12.5 68.5v432q0 101 -73 101q-25 0 -47 -12t-56 -45v-276q0 -30 13.5 -42t51.5 -15v-15h-211v15q38 3 50 18.5t12 60.5v243q0 37 -7 51t-28 14q-20 0 -29 -4v17q70 20 137 45l8 -3v-78h1q71 81 144 81q57 0 87.5 -40t30.5 -114v-454 q0 -40 12 -53t49 -17v-15z" />
<glyph unicode="&#x1a0;" horiz-adv-x="722" d="M552 627h-14q70 -45 110 -122.5t40 -173.5q0 -154 -91 -249.5t-236 -95.5q-146 0 -236.5 96t-90.5 252q0 152 90.5 247t236.5 95q69 0 127 -23q30 -8 55 -8q31 0 43 4.5t12 18.5q-34 19 -34 46q0 15 13.5 27.5t32.5 12.5q21 0 35 -15t14 -41q0 -55 -66 -68q-19 -3 -41 -3 zM574 337q0 85 -24 152.5t-67 103.5q-56 47 -123 47q-85 0 -143 -67q-32 -36 -50.5 -102.5t-18.5 -138.5q0 -182 90 -265q49 -45 124 -45q78 0 129 48q83 80 83 267z" />
<glyph unicode="&#x1a1;" horiz-adv-x="545" d="M471 382l-1 4q-34 25 -34 47q0 15 13.5 28t32.5 13t34 -15.5t15 -40.5q0 -56 -67 -69l-20 -4q26 -49 26 -114q0 -105 -62.5 -173t-162.5 -68q-92 0 -154 67.5t-62 170.5q0 104 62 168t163 64q57 0 103.5 -25t75.5 -70q12 1 25 6.5t13 10.5zM380 204q0 114 -50 178 q-40 50 -95 50q-52 0 -84 -42.5t-32 -116.5q0 -128 53 -205q34 -50 90 -50q55 0 86.5 49.5t31.5 136.5z" />
<glyph unicode="&#x1a5;" horiz-adv-x="500" d="M159 535v-154q63 79 144 79q73 0 120 -60t47 -153q0 -109 -60.5 -183t-149.5 -74q-31 0 -52.5 9t-48.5 34v-157q0 -47 16 -60.5t72 -14.5v-18h-242v17q44 4 57 17t13 52v582q0 98 40 158t130 60q38 0 65.5 -15t27.5 -41q0 -16 -12.5 -27t-27.5 -11q-22 0 -47 30t-42 30 q-50 0 -50 -100zM159 334v-246q0 -22 34.5 -44t69.5 -22q54 0 87.5 51t33.5 134q0 88 -33.5 140.5t-89.5 52.5q-35 0 -68.5 -22t-33.5 -44z" />
<glyph unicode="&#x1aa;" horiz-adv-x="432" d="M412 -177q0 -29 -29.5 -42.5t-62.5 -13.5q-83 0 -128 52t-45 136q0 96 24.5 275.5t27.5 256.5q-30 -24 -69 -24q-45 0 -77.5 32.5t-32.5 77.5t32.5 78t77.5 33q72 0 113.5 -57.5t41.5 -132.5q0 -95 -27 -300.5t-27 -302.5q0 -90 51 -90q18 0 43 30t47 30q16 0 28 -11 t12 -27zM201 545q-2 105 -65 105q-36 0 -59 -20.5t-23 -56.5q0 -31 22 -53.5t54 -22.5q24 0 43.5 13.5t27.5 34.5z" />
<glyph unicode="&#x1ab;" horiz-adv-x="290" d="M266 77l13 -11q-2 -29 -2 -89q0 -32 -0.5 -50t-3.5 -44.5t-9.5 -41.5t-17 -30t-28.5 -22t-42 -7q-38 0 -65.5 15t-27.5 41q0 16 12.5 27t27.5 11q22 0 47 -30t42 -30q38 0 38 155q0 17 -0.5 28.5t-1 17t-0.5 7.5q-2 -3 -12.5 -10.5t-31.5 -15.5t-42 -8q-92 0 -92 127v301 h-53q-4 2 -4 7q0 6 6 11l17 12q12 8 21 17q21 20 43 48.5t34.5 47t13.5 18.5q6 0 6 -13v-116h101v-32h-101v-286q0 -17 1 -28t5 -27.5t15.5 -25.5t29.5 -9q31 0 61 35z" />
<glyph unicode="&#x1ad;" horiz-adv-x="310" d="M17 418l-3 7q0 3 12 14l26 23q15 13 18 17q0 91 41 147.5t129 56.5q34 0 63.5 -13.5t29.5 -42.5q0 -15 -12 -26.5t-27 -11.5q-22 0 -47 30t-43 30q-50 0 -50 -100v-99h101v-32h-101v-288q0 -24 2 -39.5t14 -32t35 -16.5q32 0 61 35l13 -11q-49 -76 -120 -76 q-89 0 -89 127v301h-53z" />
<glyph unicode="&#x1af;" horiz-adv-x="766" d="M750 682l-1 4q-35 23 -35 46q0 15 13.5 28.5t33.5 13.5q19 0 34 -15t15 -41q0 -32 -22.5 -50t-57.5 -22l-34 -4q-55 -7 -70 -31t-15 -95v-255q0 -77 -11 -121t-43 -81q-64 -73 -202 -73q-109 0 -170 46q-81 60 -81 217v310q0 50 -15.5 65t-74.5 19v19h283v-19 q-60 -5 -75.5 -21.5t-15.5 -72.5v-312q0 -65 8 -100t36 -62q47 -45 128 -45q101 0 152 59q23 28 30 61.5t7 99.5v263q0 78 -17 102t-77 28v19h231q14 0 30 7t16 13z" />
<glyph unicode="&#x1b0;" horiz-adv-x="500" d="M259 450h158q20 0 40.5 5.5t20.5 13.5q0 10 -17 22t-17 33q0 14 12.5 25.5t33.5 11.5q18 0 33.5 -15.5t15.5 -40.5q0 -33 -25.5 -52.5t-67.5 -19.5h-29v-326q0 -35 11.5 -46t45.5 -11h6v-14q-78 -21 -137 -45l-5 3v82h-2q-63 -86 -143 -86q-57 0 -89.5 35t-32.5 93v251 q0 37 -13 51t-49 16v14h146v-323q0 -34 20.5 -56.5t50.5 -22.5q49 0 84 31q13 12 18 22.5t5 35.5v231q0 39 -14 50.5t-60 14.5v17z" />
<glyph unicode="&#x1b5;" horiz-adv-x="612" d="M598 176l-25 -176h-563v15l216 302h-124v43h155l190 264h-214q-99 0 -134 -35q-18 -19 -25.5 -37.5t-15.5 -60.5h-26l21 171h525v-15l-204 -287h145v-43h-175l-198 -279h252q78 0 117 28q23 16 34 37.5t26 72.5h23z" />
<glyph unicode="&#x1ba;" horiz-adv-x="381" d="M360 429l-191 -186q37 17 66 17q56 0 90 -34.5t34 -88.5q0 -58 -61 -106q-121 -67 -172 -101q-35 -23 -35 -67q0 -30 24 -50t63 -20q28 0 49.5 15t26.5 40q13 64 52 64q22 0 35 -13t13 -31q0 -16 -11 -36t-32 -34q-51 -32 -125 -32q-49 0 -91 29q-51 36 -51 98 q0 71 67 113q56 35 134 75q36 19 36 58q0 30 -23 47.5t-66 17.5q-38 0 -60.5 -10t-51.5 -38q-14 11 -20 18l211 212h-165q-25 0 -52.5 -24t-32.5 -61h-17l32 149h324v-21z" />
<glyph unicode="&#x1bb;" horiz-adv-x="500" d="M482 360v-46q-45 -1 -135 -1q-11 -16 -52 -61l-165 -176h234q36 0 55.5 15.5t40.5 51.5l14 -6l-54 -137h-391v12l178 189q60 64 87 112l-272 1v46h296q19 51 19 101q0 66 -36.5 103.5t-102.5 37.5q-59 0 -89.5 -32t-57.5 -98l-21 5q17 92 68 145.5t140 53.5 q80 0 132.5 -48.5t52.5 -127.5q0 -69 -43 -140h102z" />
<glyph unicode="&#x1be;" horiz-adv-x="500" d="M212 447l3 -62q7 1 23 1q82 0 135.5 -62t53.5 -145q0 -95 -52 -143t-149 -48q-50 0 -101.5 28.5t-51.5 74.5q0 19 13.5 31.5t32.5 12.5t30.5 -13t17.5 -32t13 -38t22 -32t38 -13q31 0 53 29.5t30 64t8 64.5q0 61 -44.5 97t-105.5 36h-20v149h-77v31h77v61h47l3 -61h78 v-31h-77z" />
<glyph unicode="&#x1c0;" horiz-adv-x="160" d="M105 0h-51v736h51v-736z" />
<glyph unicode="&#x1c1;" horiz-adv-x="280" d="M105 0h-51v736h51v-736zM225 0h-51v736h51v-736z" />
<glyph unicode="&#x1c2;" horiz-adv-x="435" d="M400 272h-157v-272h-51v272h-158v51h158v90h-158v51h158v272h51v-272h157v-51h-157v-90h157v-51z" />
<glyph unicode="&#x1c3;" horiz-adv-x="333" d="M177 176l-45 381q-2 22 -2 38q0 37 14 59t39 22q53 0 53 -76q0 -13 -3 -43l-42 -381h-14zM236 43q0 -23 -15 -37.5t-37 -14.5q-23 0 -38.5 14.5t-15.5 36.5q0 23 15.5 39t37.5 16t37.5 -15.5t15.5 -38.5z" />
<glyph unicode="&#x1f0;" horiz-adv-x="278" d="M294 674l-124 -167h-64l-123 167h35l120 -103l121 103h35zM193 457v-457q0 -107 -43.5 -162.5t-126.5 -55.5q-41 0 -67 15.5t-26 39.5q0 16 12 27.5t29 11.5q23 0 48 -32q23 -28 42 -28q23 0 34 18q14 25 14 121v379q0 60 -32 60q-24 0 -40 -3l-5 -1v16q80 25 156 54z " />
<glyph unicode="&#x1fa;" horiz-adv-x="722" d="M379 646l234 -535q22 -52 39.5 -70t54.5 -22v-19h-255v19q40 0 55 9q14 7 14 24q0 26 -19 70l-41 94h-262l-46 -114q-9 -23 -9 -42q0 -23 16.5 -32t53.5 -9v-19h-199v19q42 4 61 30.5t65 136.5l194 460q-24 8 -40 29t-16 48q0 33 23.5 56t57.5 23q32 0 55 -23.5t23 -56.5 q0 -27 -16.5 -48t-42.5 -28zM447 257l-116 275l-115 -275h231zM405 724q0 19 -14 32t-34 13q-17 0 -31 -13.5t-14 -31.5q0 -20 13.5 -34t31.5 -14q21 0 34.5 14t13.5 34zM256 798l141 121q14 12 20.5 15.5t19.5 3.5q25 0 25 -26q0 -16 -32 -35l-141 -79h-33z" />
<glyph unicode="&#x1fb;" horiz-adv-x="444" d="M330 611q0 -41 -29.5 -70t-71.5 -29q-41 0 -69.5 29t-28.5 71q0 41 29.5 70t71.5 29q40 0 69 -29.5t29 -70.5zM296 612q0 27 -19.5 46t-47.5 19q-26 0 -45 -19.5t-19 -45.5q0 -28 19 -47t45 -19q28 0 47.5 19t19.5 47zM118 719l147 148q23 23 42 23q35 0 35 -32 q0 -23 -30 -42l-154 -97h-40zM442 66v-28q-38 -48 -90 -48q-57 0 -64 73h-1q-64 -73 -145 -73q-47 0 -76 27.5t-29 76.5q0 70 70 117q48 32 180 81v54q0 45 -21.5 67.5t-56.5 22.5q-30 0 -50 -14.5t-20 -34.5q0 -9 3 -20t3 -22q0 -15 -13.5 -28t-32.5 -13q-17 0 -30 13 t-13 33q0 48 51 80q47 30 115 30q81 0 118 -45q18 -21 23 -42.5t5 -68.5v-191q0 -66 31 -66q20 0 43 19zM287 127v141q-92 -32 -128 -66q-34 -31 -34 -77q0 -38 19 -57.5t50 -19.5q33 0 58 16q21 15 28 28t7 35z" />
<glyph unicode="&#x1fc;" horiz-adv-x="889" d="M863 168l-44 -168h-509v19l17 2q45 5 58 22.5t13 68.5v148h-176q-92 -175 -92 -212q0 -23 67 -29h1v-19h-198v19q32 5 49 19.5t39 58.5l245 484q9 17 9 28q0 33 -90 33v20h564v-141h-23q-10 68 -42 86.5t-142 18.5h-84q-28 0 -28 -37v-223h104q77 0 107.5 19.5t31.5 78.5 h21v-235h-21q-7 59 -28.5 79.5t-73.5 20.5h-141v-235q0 -38 11 -47t59 -9h73q85 0 122.5 24t76.5 106h24zM398 299v319l-158 -319h158zM433 719l147 148q23 23 42 23q35 0 35 -32q0 -23 -30 -42l-154 -97h-40z" />
<glyph unicode="&#x1fd;" horiz-adv-x="667" d="M620 154l12 -5q-39 -84 -79 -116q-48 -40 -118 -40q-44 0 -74 16t-55 54q-50 -42 -81.5 -56t-70.5 -14q-51 0 -83.5 29.5t-32.5 77.5q0 21 1.5 35.5t7.5 33t17.5 31t31.5 25t49 20.5l129 36v63q0 49 -13.5 69.5t-47.5 20.5q-28 0 -48 -12.5t-20 -29.5q0 -7 1.5 -19.5 t1.5 -22.5q0 -21 -12 -33.5t-32 -12.5t-32 13t-12 35q0 46 46 77t113 31q37 0 63 -10.5t55 -36.5q34 27 59 37t60 10q76 0 114 -43t46 -140h-262q1 -75 6 -108t21 -62q13 -23 38.5 -36.5t56.5 -13.5q43 0 75.5 22t68.5 75zM355 307h166q-1 66 -19.5 94t-59.5 28 q-43 0 -63 -28t-24 -94zM274 201v52q-91 -33 -120 -58t-29 -70q0 -38 16.5 -62.5t49.5 -24.5q28 0 65 18t37 32l-1 1v2q-18 59 -18 110zM218 507l147 148q23 23 42 23q35 0 35 -32q0 -23 -30 -42l-154 -97h-40z" />
<glyph unicode="&#x1fe;" horiz-adv-x="722" d="M658 734l-88 -130q57 -53 79 -99q39 -81 39 -173q0 -154 -91.5 -250t-237.5 -96q-91 0 -175 50l-79 -116h-49l95 139q-33 30 -49.5 50.5t-29.5 48.5q-38 78 -38 172q0 152 91.5 249t236.5 97q88 0 175 -49l72 107h49zM194 123l308 452q-62 65 -141 65q-98 0 -155.5 -83.5 t-57.5 -226.5q0 -120 46 -207zM527 540l-308 -452q60 -66 142 -66q99 0 156 82.5t57 225.5q0 120 -47 210zM245 719l147 148q23 23 42 23q35 0 35 -32q0 -23 -30 -42l-154 -97h-40z" />
<glyph unicode="&#x1ff;" horiz-adv-x="500" d="M437 551l-65 -125q98 -67 98 -192q0 -104 -64 -174t-159 -70q-47 0 -93 21l-65 -123h-37l73 140q-45 36 -65 73q-31 57 -31 126q0 102 61.5 167.5t158.5 65.5q44 0 92 -18l57 109h39zM158 92l159 304q-37 36 -80 36q-53 0 -85.5 -42.5t-32.5 -112.5q0 -101 39 -185z M340 366l-161 -306q35 -42 82 -42q56 0 87.5 48.5t31.5 136.5q0 87 -40 163zM131 507l147 148q23 23 42 23q35 0 35 -32q0 -23 -30 -42l-154 -97h-40z" />
<glyph unicode="&#x221;" horiz-adv-x="671" d="M424 681v-591q0 -25 22 -59l28 44q10 16 29.5 39t42 34t47.5 11t42 -21t17 -47q0 -37 -31 -65q-41 -36 -127 -36h-34q-39 -64 -77 -140h-36q33 68 77 144q-26 6 -48 23.5t-29 42.5q-53 -70 -135 -70q-88 0 -136.5 62.5t-48.5 152.5q0 97 57 176t151 79q54 0 105 -43v156 q0 30 -9.5 41t-32.5 11q-6 0 -26 -2v16q86 22 147 44zM480 20h26q43 0 79.5 16t36.5 53q0 15 -9 27.5t-24 12.5q-18 0 -35 -10.5t-32 -31t-22.5 -33t-19.5 -34.5zM340 102v230q0 40 -31 70t-71 30q-45 0 -74.5 -32t-40 -71.5t-10.5 -83.5q0 -48 11.5 -91.5t44.5 -77.5 t82 -34q46 0 74 32q15 18 15 28z" />
<glyph unicode="&#x234;" horiz-adv-x="429" d="M182 679v-568q0 -55 22 -80l28 44q10 16 29.5 39t42 34t47.5 11t42 -21t17 -47q0 -37 -31 -65q-41 -36 -127 -36h-34q-39 -64 -77 -140h-36q33 68 77 144q-84 16 -84 123v444q0 33 -9 48.5t-39 15.5q-11 0 -31 -2v16q94 23 158 44zM238 20h26q43 0 79.5 16t36.5 53 q0 15 -9 27.5t-24 12.5q-18 0 -34 -9.5t-32.5 -32.5t-22 -31.5t-20.5 -35.5z" />
<glyph unicode="&#x235;" horiz-adv-x="672" d="M424 306v-216q0 -33 24 -57q15 26 26.5 42.5t30.5 38.5t40.5 33.5t45.5 11.5q27 0 44.5 -21.5t17.5 -48.5q0 -89 -162 -89h-24q-48 -78 -83 -150h-36q39 76 81 150h-152v15q40 3 51.5 24t11.5 66v199q0 101 -73 101q-46 0 -103 -57v-276q0 -32 16 -43.5t49 -13.5v-15 h-211v15q39 2 50.5 19.5t11.5 59.5v251q0 17 -1.5 27t-9.5 20t-24 10q-17 0 -29 -4v17q71 20 137 45l8 -3v-78h1q71 81 144 81q62 0 90 -44t28 -110zM623 90q0 16 -11 28t-27 12q-41 0 -99 -100q4 0 11 -0.5t10 -0.5q18 0 35 2.5t37 8t32 18.5t12 32z" />
<glyph unicode="&#x236;" horiz-adv-x="401" d="M154 418v-286q0 -76 22 -101l28 44q10 16 29.5 39t42 34t47.5 11t42 -21t17 -47q0 -37 -31 -65q-41 -36 -127 -36h-34q-42 -72 -77 -140h-36q30 64 76 144q-83 16 -83 123v301h-53q-4 3 -4 7q0 8 17 19q42 27 97 107q14 18 20 28q7 1 7 -13v-116h101v-32h-101zM210 20h26 q43 0 79.5 16t36.5 53q0 15 -9 27.5t-24 12.5q-18 0 -35 -10.5t-32 -31t-22.5 -33t-19.5 -34.5z" />
<glyph unicode="&#x237;" horiz-adv-x="278" d="M193 457v-457q0 -107 -43.5 -162.5t-126.5 -55.5q-41 0 -67 15.5t-26 39.5q0 16 12 27.5t29 11.5q23 0 48 -32q23 -28 42 -28q23 0 34 18q14 25 14 121v379q0 60 -32 60q-24 0 -40 -3l-5 -1v16q80 25 156 54z" />
<glyph unicode="&#x250;" horiz-adv-x="444" d="M162 387h1q64 73 145 73q47 0 76 -27.5t29 -76.5q0 -70 -70 -117q-48 -32 -180 -81v-54q0 -45 21.5 -67.5t56.5 -22.5q30 0 50 14.5t20 34.5q0 9 -3 20t-3 22q0 15 13.5 28t32.5 13q17 0 30 -13t13 -33q0 -48 -51 -80q-47 -30 -115 -30q-81 0 -118 45q-18 21 -23 42.5 t-5 68.5v191q0 66 -31 66q-20 0 -43 -19v28q38 48 90 48q57 0 64 -73zM163 323v-141q92 32 128 66q34 31 34 77q0 38 -19 57.5t-50 19.5q-33 0 -58 -16q-21 -15 -28 -28t-7 -35z" />
<glyph unicode="&#x251;" horiz-adv-x="500" d="M491 58v-16l-147 -52l-4 3v61h-2q-43 -64 -129 -64q-16 0 -34.5 3.5t-46 17t-49 36t-37 66t-15.5 101.5q0 99 61.5 172.5t145.5 73.5q57 0 106 -43l63 43h21v-346q0 -17 1 -25t5 -17t14.5 -12t28.5 -3q11 0 18 1zM340 102v230q-5 48 -35 74t-68 26q-49 0 -86.5 -45.5 t-37.5 -139.5q0 -103 41 -154t97 -51q32 0 57.5 16.5t31.5 43.5z" />
<glyph unicode="&#x252;" horiz-adv-x="500" d="M178 396h2q43 64 129 64q16 0 34.5 -3.5t46 -17t49 -36t37 -66t15.5 -101.5q0 -99 -61.5 -172.5t-145.5 -73.5q-57 0 -106 43l-63 -43h-21v346q0 17 -1 25t-5 17t-14.5 12t-28.5 3q-11 0 -18 -1v16l147 52l4 -3v-61zM178 348v-230q5 -48 35 -74t68 -26q49 0 86.5 45.5 t37.5 139.5q0 103 -41 154t-97 51q-32 0 -57.5 -16.5t-31.5 -43.5z" />
<glyph unicode="&#x253;" horiz-adv-x="500" d="M153 510v-134q12 31 47.5 57.5t87.5 26.5q85 0 132.5 -66.5t47.5 -157.5q0 -29 -7 -60.5t-25 -65t-44 -60t-68 -43.5t-94 -17q-54 0 -107.5 20t-53.5 46v409q0 89 64 153.5t159 64.5q38 0 65.5 -15t27.5 -41q0 -16 -12.5 -27t-27.5 -11q-22 0 -47 30t-42 30 q-39 0 -71 -40t-32 -99zM153 316v-243q0 -24 30 -37.5t64 -13.5q41 0 69 17.5t41 47t18 56.5t5 56q0 80 -32.5 139t-97.5 59q-32 0 -64.5 -21.5t-32.5 -59.5z" />
<glyph unicode="&#x254;" horiz-adv-x="444" d="M24 293l-14 9q43 84 82 115q51 42 115 42q83 0 136.5 -62.5t53.5 -159.5q0 -127 -84 -197q-62 -51 -135 -51q-63 0 -108.5 30.5t-45.5 72.5q0 17 14 29.5t33 12.5q35 0 48 -46l6 -22q8 -28 20 -38t39 -10q61 0 98.5 48t37.5 126q0 86 -43 140.5t-112 54.5 q-43 0 -74 -20.5t-67 -73.5z" />
<glyph unicode="&#x255;" horiz-adv-x="444" d="M84 -160l79 158q-64 25 -101 80t-37 135q0 115 67.5 181t153.5 66q64 0 107 -31q45 -33 45 -70q0 -18 -12.5 -31t-34.5 -13q-18 0 -30.5 13t-17.5 33q-6 24 -9 33.5t-10.5 20t-19 13.5t-31.5 3q-18 0 -38 -7.5t-42 -25.5t-36.5 -55.5t-14.5 -89.5q0 -54 29 -105.5 t74 -87.5q43 54 65.5 71.5t61.5 17.5t62 -20t23 -54q0 -40 -31.5 -65.5t-90.5 -25.5h-22q-45 0 -73 6l-80 -150h-36zM384 76q0 47 -51 47q-23 0 -41 -11t-28.5 -24.5t-33.5 -46.5q37 -21 68 -21q51 0 68.5 15t17.5 41z" />
<glyph unicode="&#x256;" horiz-adv-x="553" d="M424 681v-796q0 -84 46 -84q17 0 42 30t47 30q16 0 28 -11t12 -27q0 -29 -29.5 -42.5t-63.5 -13.5q-43 0 -74.5 14t-49 35t-27.5 54t-12.5 62.5t-2.5 69.5v55q-43 -67 -131 -67q-89 0 -135.5 65.5t-46.5 158.5q0 92 59 169t148 77q57 0 106 -43v156q0 30 -9 40.5 t-32 10.5q-17 0 -27 -1v16q86 22 147 44zM340 102v230q0 41 -31.5 70.5t-71.5 29.5q-64 0 -94 -57.5t-30 -127.5q0 -49 11.5 -92.5t44.5 -78t82 -34.5q27 0 58 17.5t31 42.5z" />
<glyph unicode="&#x257;" horiz-adv-x="587" d="M340 417v48q0 98 39.5 158t129.5 60q38 0 65.5 -15t27.5 -41q0 -16 -12.5 -27t-27.5 -11q-22 0 -47 30t-42 30q-30 0 -39.5 -26.5t-9.5 -83.5v-425q0 -17 1 -25t5 -17t13.5 -12t25.5 -3q15 0 22 1v-16l-147 -52l-4 3v64q-48 -67 -127 -67q-61 0 -108 34q-78 57 -78 183 q0 105 61 179t146 74q57 0 106 -43zM340 102v225q0 48 -32 76.5t-71 28.5q-49 0 -86.5 -45.5t-37.5 -139.5q0 -104 41 -154.5t98 -50.5q32 0 57 16.5t31 43.5z" />
<glyph unicode="&#x258;" horiz-adv-x="444" d="M350 277h-311q8 94 54.5 138.5t121.5 44.5q33 0 66.5 -13t65.5 -40t52 -77t20 -116q0 -105 -51 -164.5t-136 -59.5q-41 0 -76.5 14.5t-57.5 35t-40 46t-26 42t-12 29.5l16 7q12 -20 22 -33t29.5 -32.5t46 -29.5t57.5 -10q60 0 105.5 49t53.5 169zM141 309h206 q-11 63 -38.5 89t-71.5 26q-23 0 -40 -8t-26 -18t-16 -28.5t-9 -29.5t-5 -31z" />
<glyph unicode="&#x259;" horiz-adv-x="444" d="M30 286l-16 7q4 13 12 29.5t26 42t40 46t57.5 35t76.5 14.5q85 0 136 -59.5t51 -164.5q0 -66 -20 -116t-52 -77t-65.5 -40t-66.5 -13q-75 0 -121.5 44.5t-54.5 138.5h311q-8 120 -53.5 169t-105.5 49q-31 0 -57.5 -10t-46 -29.5t-29.5 -32.5t-22 -33zM341 141h-206 q3 -20 5 -31t9 -29.5t16 -28.5t26 -18t40 -8q44 0 71.5 26t38.5 89z" />
<glyph unicode="&#x25a;" horiz-adv-x="657" d="M621 293l30 -12q-9 -29 -31.5 -50t-51.5 -21q-50 0 -67 30.5t-17 83.5q0 12 0.5 34t0.5 27l-79 -47q31 -55 31 -113q0 -86 -65.5 -162t-150.5 -76q-76 0 -127.5 46t-57.5 122l289 167q-19 43 -55 71.5t-80 28.5q-69 0 -133 -51l-17 9q42 44 72 62t80 18q130 0 200 -99 l119 69l6 -4v-14q0 -1 -1 -54.5t-1 -64.5q0 -22 15.5 -37.5t37.5 -15.5q36 0 53 53zM335 296l-259 -152q0 -48 28.5 -82t76.5 -34q72 0 118 61.5t46 135.5q0 33 -10 71z" />
<glyph unicode="&#x25b;" horiz-adv-x="438" d="M377 84l12 -12q-71 -86 -179 -86q-76 0 -131 34q-26 16 -42.5 44.5t-16.5 58.5q0 31 16.5 59t44.5 43q30 16 82 24v2q-116 24 -116 107q0 52 45 84.5t119 32.5q69 0 113 -30q21 -14 32 -34t11 -36q0 -18 -13 -31t-35 -13q-18 0 -30.5 15t-17.5 34q-11 37 -19.5 49.5 t-26.5 12.5q-39 0 -64.5 -26t-25.5 -64q0 -39 35 -68q23 -20 75 -21v-30h-11q-53 0 -86.5 -29t-33.5 -75q0 -47 30 -77t77 -30q79 0 156 62z" />
<glyph unicode="&#x25c;" horiz-adv-x="438" d="M246 251v-2q52 -8 82 -24q28 -15 44.5 -43t16.5 -59q0 -30 -16.5 -58.5t-42.5 -44.5q-55 -34 -131 -34q-108 0 -179 86l12 12q78 -62 156 -62q47 0 77 30t30 77q0 46 -33.5 75t-86.5 29h-11v30q52 1 75 21q35 29 35 68q0 38 -25.5 64t-64.5 26q-18 0 -26.5 -12.5 t-19.5 -49.5q-5 -19 -17.5 -34t-30.5 -15q-22 0 -35 13t-13 31q0 16 11 36t32 34q44 30 113 30q74 0 119 -32.5t45 -84.5q0 -83 -116 -107z" />
<glyph unicode="&#x25d;" horiz-adv-x="623" d="M573 293l30 -12q-8 -29 -31 -50t-52 -21q-27 0 -44.5 9.5t-25.5 28.5t-11 37t-3 44q0 17 0.5 33t0.5 23l-75 -43q-5 -38 -38.5 -60.5t-77.5 -30.5v-2q143 -22 143 -126q0 -67 -59 -102t-131 -35q-109 0 -179 86l12 12q78 -62 156 -62q46 0 76.5 30t30.5 77 q0 53 -37.5 78.5t-93.5 25.5v30q46 1 78 23.5t32 65.5q0 38 -26 64t-64 26q-19 0 -29.5 -17.5t-14.5 -38t-17 -38t-35 -17.5q-19 0 -32.5 12.5t-13.5 31.5q0 33 28 57t61.5 33.5t66.5 9.5q60 0 108.5 -25.5t54.5 -78.5l102 59l6 -4l-1 -30q-1 -16 -1 -103q0 -22 15.5 -37.5 t37.5 -15.5q20 0 34.5 16t18.5 37z" />
<glyph unicode="&#x25e;" horiz-adv-x="479" d="M287 251v-2q143 -22 143 -126q0 -67 -59 -102t-131 -35q-110 0 -165 67t-55 181q0 106 58 173.5t161 67.5q64 0 114 -29t50 -88q0 -83 -116 -107zM205 233v30q46 1 78 23t32 66q0 38 -26 64t-64 26q-46 0 -79.5 -36.5t-47 -81.5t-13.5 -89q0 -42 13.5 -89t45.5 -85.5 t76 -38.5q47 0 81.5 30t34.5 77q0 53 -38 78.5t-93 25.5z" />
<glyph unicode="&#x25f;" horiz-adv-x="315" d="M296 210h-82v-210q0 -107 -43.5 -162.5t-126.5 -55.5q-41 0 -67 15.5t-26 39.5q0 16 12 27.5t29 11.5q23 0 48 -32q23 -28 42 -28q23 0 34 18q14 25 14 121v255h-122v31h122v137q0 43 -20 55q-16 9 -55 12v15h236v-15q-44 -4 -58 -16q-19 -16 -19 -62v-126h82v-31z" />
<glyph unicode="&#x260;" horiz-adv-x="594" d="M372 435v30q0 98 39.5 158t129.5 60q38 0 65.5 -15t27.5 -41q0 -16 -12.5 -27t-27.5 -11q-22 0 -47 30t-42 30q-18 0 -28.5 -8.5t-15 -31.5t-5.5 -41.5t-1 -57.5v-537q0 -83 -63.5 -134t-165.5 -51q-70 0 -120.5 23.5t-50.5 55.5q0 16 10.5 26.5t26.5 10.5q15 0 26.5 -9 t23.5 -25t18 -22q36 -32 84 -32q62 0 99 45q30 36 30 99v93q-65 -67 -142 -67q-80 0 -139.5 70t-59.5 165q0 103 69.5 178.5t163.5 75.5q56 0 107 -40zM373 88v225q0 52 -30 87q-38 43 -88 43q-56 0 -93.5 -54.5t-37.5 -135.5q0 -87 44.5 -148t108.5 -61q54 0 96 44z" />
<glyph unicode="&#x261;" horiz-adv-x="537" d="M455 482v-509q0 -89 -68 -137t-161 -48q-51 0 -111 19.5t-60 59.5q0 16 10.5 26.5t26.5 10.5t31 -14t27 -30t37 -30t57 -14q61 0 95 41t34 103v93q-65 -67 -142 -67q-86 0 -142.5 73.5t-56.5 161.5q0 99 67.5 176.5t165.5 77.5q60 0 119 -51l9 8q4 3 7 8l6 6q2 3 5 8.5 t4.5 8t5 9.5t5.5 10h29zM373 88v225q0 51 -33.5 90.5t-84.5 39.5q-64 0 -97.5 -60.5t-33.5 -129.5q0 -47 16 -93.5t52 -81t85 -34.5q54 0 96 44z" />
<glyph unicode="&#x262;" horiz-adv-x="570" d="M539 235v-12q-30 -2 -40 -12t-10 -42v-131q0 -15 -76.5 -32t-111.5 -17q-134 0 -207 70q-64 63 -64 168q0 99 83 165q74 58 177 58q21 0 97 -14q35 -7 40 -7q24 0 32 21h16l5 -142h-16q-24 51 -53 78q-42 36 -110 36q-78 0 -123 -42q-61 -58 -61 -169q0 -90 53 -142.5 t141 -52.5q36 0 69.5 10t33.5 29v105q0 40 -11.5 51t-54.5 12v12h191z" />
<glyph unicode="&#x263;" horiz-adv-x="500" d="M480 450v-15q-9 -1 -16.5 -5t-12.5 -8t-9.5 -12t-5.5 -12l-6 -14q-4 -10 -4 -11l-110 -299l52 -108q26 -52 26 -99t-29.5 -74t-76.5 -27q-104 0 -104 86q0 43 19 81l45 92l-145 309l-31 67q-13 28 -53 34v15h205v-15q-57 -3 -57 -26q0 -12 9 -33l116 -259l93 264 q8 24 8 30q0 24 -46 24v15h133zM267 -13l-29 -68q-11 -27 -11 -56q0 -64 41 -64q24 0 39.5 16.5t15.5 40.5q0 17 -14 47z" />
<glyph unicode="&#x264;" horiz-adv-x="500" d="M266 263l83 125q1 1 7 10l7 10q1 2 6.5 9.5t8 9.5t7.5 7t9 7t10 4.5t12 3.5t13 1q23 0 40 -17t17 -40q0 -24 -22 -64l-10 26q-4 10 -15 20.5t-25 10.5q-31 0 -63 -49l-65 -100q2 -4 14 -24l20 -32q7 -12 16.5 -30t14 -33t4.5 -26q0 -43 -32.5 -72.5t-76.5 -29.5 q-43 0 -69.5 22t-26.5 64q0 25 30 68l43 60l-90 137q-29 45 -59 45q-18 0 -29 -13t-16 -28t-7 -16q-9 25 -9 42q0 32 23.5 55.5t54.5 23.5q34 0 58.5 -21.5t48.5 -59.5zM284 85q0 9 -5.5 22.5t-10.5 22.5t-16 26t-12 19l-16 -21l-19 -27q-7 -10 -13.5 -26t-6.5 -28 q0 -21 15 -32.5t36 -11.5q23 0 35.5 16.5t12.5 39.5z" />
<glyph unicode="&#x265;" horiz-adv-x="500" d="M491 450v-15q-43 -6 -53.5 -20t-10.5 -67v-471q0 -32 9.5 -41.5t41.5 -9.5q9 0 12 1v-16l-27 -8q-77 -23 -115 -36l-5 3v304q-35 -45 -69 -64.5t-78 -19.5q-123 0 -123 159v199q0 52 -9.5 65.5t-50.5 21.5v15h212v-15q-44 -5 -56 -20t-12 -67v-198q0 -106 74 -106 q30 0 55 14t57 49v241q0 52 -12 67t-56 20v15h216z" />
<glyph unicode="&#x266;" horiz-adv-x="500" d="M487 0h-212v15q41 5 54.5 18.5t13.5 60.5v206q0 106 -77 106q-55 0 -109 -63v-246q0 -50 14 -64t54 -18v-15h-216v15q42 6 53 19.5t11 64.5v399q0 78 52 131.5t131 53.5q72 0 121.5 -20.5t49.5 -52.5q0 -16 -10.5 -26.5t-26.5 -10.5q-6 0 -12 1.5t-9.5 3.5t-8.5 8l-8 8 q-3 2 -10 11l-10 13q-32 40 -72 40q-41 0 -75 -42q-28 -33 -28 -80v-160q63 84 146 84q124 0 124 -159v-199q0 -53 10.5 -66.5t49.5 -20.5v-15z" />
<glyph unicode="&#x267;" horiz-adv-x="481" d="M427 298v-313q0 -94 -48.5 -156t-140.5 -62q-38 0 -65.5 15t-27.5 41q0 16 12.5 27t27.5 11q22 0 47 -30t42 -30q69 0 69 139v360q0 106 -77 106q-55 0 -109 -63v-241q0 -54 13.5 -68.5t54.5 -18.5v-15h-216v15q42 5 53 19.5t11 67.5v396q0 78 52 131.5t131 53.5 q72 0 121.5 -20.5t49.5 -52.5q0 -16 -10.5 -26.5t-26.5 -10.5q-5 0 -9 1t-7 1.5t-7 3.5l-6 5q-2 1 -6.5 6t-6 7t-7.5 9.5t-8 10.5q-32 41 -72 41q-42 0 -76 -42q-28 -33 -28 -80v-160q62 84 146 84q124 0 124 -162z" />
<glyph unicode="&#x268;" horiz-adv-x="278" d="M180 632q0 -22 -15 -36.5t-37 -14.5q-21 0 -35.5 14.5t-14.5 36.5q0 21 15 36t36 15q22 0 36.5 -15t14.5 -36zM253 0h-237v15q52 3 65.5 18t13.5 71v126h-79v31h79v70q0 35 -7 49t-26 14q-24 0 -42 -5v16l155 55l4 -4v-195h74v-31h-74v-125q0 -56 12.5 -71t61.5 -19v-15z " />
<glyph unicode="&#x269;" horiz-adv-x="333" d="M295 80l16 -12q-23 -31 -56 -54.5t-67 -23.5q-54 0 -75 33t-21 102v210q0 33 -7.5 46t-25.5 13q-24 0 -42 -5v16q13 4 53 18l64 23q26 8 32 8q10 0 10 -20v-330q0 -32 15.5 -46t37.5 -14q31 0 66 36z" />
<glyph unicode="&#x26a;" horiz-adv-x="258" d="M231 0h-210v18q45 1 55.5 15.5t10.5 56.5v274q0 41 -10 53.5t-56 14.5v18h210v-18q-45 -1 -54.5 -15t-9.5 -58v-264q0 -42 10.5 -59t53.5 -18v-18z" />
<glyph unicode="&#x26b;" horiz-adv-x="350" d="M311 425h29q-16 -57 -40 -81.5t-65 -24.5q-13 0 -19 1v-233q0 -42 14 -55.5t61 -16.5v-15h-236v15q47 4 62 19.5t15 57.5v261l-1 1q-24 11 -41 11q-35 0 -51 -46h-29q11 49 37.5 75t63.5 26q7 0 21 -2v143q0 36 -9 50t-33 14q-21 0 -37 -2v16q95 23 158 44l5 -4v-295 q25 -10 42 -10t28.5 11.5t24.5 39.5z" />
<glyph unicode="&#x26c;" horiz-adv-x="375" d="M351 360l11 -13q-5 -7 -14.5 -17t-43 -34t-72.5 -38v-174q0 -40 15 -53.5t60 -15.5v-15h-236v15q45 4 61 19t16 56v149q-10 -2 -29 -2q-44 0 -75.5 31t-31.5 75t32 75.5t75 31.5q9 0 29 -5v119q0 34 -9.5 47.5t-33.5 13.5q-12 0 -36 -2v16q93 23 159 44l4 -2v-391 q75 26 119 70zM148 276v141q-10 4 -16 4q-23 0 -45.5 -22t-22.5 -46q0 -30 18.5 -51.5t47.5 -24.5q6 -1 18 -1z" />
<glyph unicode="&#x26d;" horiz-adv-x="302" d="M173 681v-741q0 -39 1 -57.5t5.5 -41.5t15 -31.5t28.5 -8.5q17 0 42 30t47 30q15 0 27.5 -11t12.5 -27q0 -26 -27.5 -41t-65.5 -15q-90 0 -130 60t-40 158v579q0 34 -9.5 47.5t-34.5 13.5q-11 0 -35 -2v16q93 23 159 44z" />
<glyph unicode="&#x26e;" horiz-adv-x="549" d="M506 400l-164 -204q16 3 32 3q67 0 115.5 -53t48.5 -145q0 -59 -20.5 -105.5t-54 -73.5t-71.5 -41t-76 -14q-60 0 -106 31q-21 14 -32 34t-11 36q0 18 13 31t36 13q16 0 29.5 -14.5t18.5 -37.5q10 -40 21 -52t49 -12q17 0 36.5 7.5t41.5 25.5t36.5 55.5t14.5 89.5 q0 82 -42 121.5t-110 39.5q-10 0 -52 -19l-14 11l214 259h-277v-302q0 -41 14.5 -53t60.5 -16v-15h-236v15q42 3 59.5 17.5t17.5 54.5v477q0 34 -9.5 47.5t-33.5 13.5t-36 -2v16q102 25 158 44l5 -2v-231h324v-50z" />
<glyph unicode="&#x26f;" horiz-adv-x="778" d="M770 450v-15q-42 -1 -56 -15.5t-14 -57.5v-248q0 -37 8 -51.5t27 -14.5q15 0 32 4v-17q-68 -19 -139 -45l-8 3v74h-2q-45 -47 -79.5 -62t-73.5 -15q-79 0 -106 84q-78 -84 -163 -84q-116 0 -116 180v203q0 33 -10 45.5t-33 14.5l-26 2v15h218v-15q-42 -4 -53.5 -17.5 t-11.5 -57.5v-206q0 -60 17.5 -86t59.5 -26q35 0 59.5 14t47.5 47v252q0 48 -14.5 63.5t-57.5 16.5v15h224v-15q-44 -3 -56 -14.5t-12 -56.5v-211q0 -111 65 -111q28 0 59.5 12.5t46.5 30.5q13 15 13 17v278q0 32 -14 42.5t-54 12.5v15h222z" />
<glyph unicode="&#x270;" horiz-adv-x="803" d="M785 -233h-240v15q45 8 58 19t13 50v216q-66 -77 -147 -77q-46 0 -70.5 20.5t-39.5 63.5q-81 -84 -162 -84q-117 0 -117 178v206q0 56 -41 59l-28 2v15h218v-15q-40 -5 -52.5 -17t-12.5 -55v-208q0 -34 3.5 -55t21.5 -39.5t52 -18.5q38 0 61.5 15.5t45.5 45.5v258 q0 26 -4.5 41.5t-16.5 22t-21 8t-30 2.5v15h224v-15q-43 -3 -55.5 -14.5t-12.5 -54.5v-214q0 -110 66 -110q31 0 60.5 14t43.5 27.5t14 17.5v282q0 18 -4.5 28.5t-16 15.5t-20 6t-27.5 2v15h222v-15q-19 0 -28.5 -2t-21 -8t-16 -21t-4.5 -39v-508q0 -25 5.5 -40.5 t18.5 -22.5t25.5 -9t35.5 -3v-15z" />
<glyph unicode="&#x271;" horiz-adv-x="778" d="M706 282v-297q0 -94 -48.5 -156t-140.5 -62q-38 0 -65.5 15t-27.5 41q0 16 12.5 27t27.5 11q22 0 47 -30t42 -30q69 0 69 139v354q0 24 -2 40t-9 35t-23 29t-42 10q-39 0 -63.5 -16t-44.5 -45v-259q0 -25 5 -41t17.5 -22t21.5 -8t28 -2v-15h-224v15q4 1 16 2t14.5 1.5 t11 2.5t10.5 4.5t6.5 7.5t5.5 11l2 16q2 9 2 21v220q0 50 -17 78.5t-47 28.5q-32 0 -62 -14t-44 -27.5t-14 -18.5v-280q0 -18 4 -28.5t15.5 -15.5t20 -6.5t28.5 -2.5v-15h-222v15q39 1 54.5 13t15.5 56v254q0 41 -9.5 52.5t-25.5 11.5t-32 -4v17q69 19 140 45l7 -2v-76 q46 45 79 61.5t75 16.5q45 0 69.5 -22.5t37.5 -62.5q75 85 163 85q116 0 116 -178z" />
<glyph unicode="&#x272;" horiz-adv-x="529" d="M514 0h-208v15q24 3 34.5 7.5t19.5 22.5t9 54v205q0 50 -16.5 75.5t-58.5 25.5q-25 0 -47.5 -13.5t-53.5 -43.5v-363q0 -98 -40 -158t-130 -60q-38 0 -65.5 15t-27.5 41q0 16 12.5 27t27.5 11q22 0 47 -30t42 -30q18 0 28.5 8.5t15 31.5t5.5 41.5t1 57.5v402q0 27 -6 41 t-12 16.5t-17 2.5q-21 0 -29 -4v17q70 20 137 45l8 -3v-79q73 82 144 82q51 0 85 -35t34 -119v-225q0 -36 12.5 -49.5t48.5 -16.5v-15z" />
<glyph unicode="&#x273;" horiz-adv-x="533" d="M424 308v-368q0 -39 1 -57.5t5.5 -41.5t15 -31.5t28.5 -8.5q17 0 42 30t47 30q15 0 27.5 -11t12.5 -27q0 -26 -27.5 -41t-65.5 -15q-90 0 -130 60t-40 158v319q0 50 -16.5 75.5t-58.5 25.5t-101 -57v-277q0 -28 13.5 -41t51.5 -15v-15h-211v15q36 3 49 17.5t13 57.5v250 q0 28 -6 42.5t-12 17t-17 2.5q-21 0 -29 -4v17q70 20 137 45l8 -3v-79q75 82 144 82q49 0 84 -34t35 -118z" />
<glyph unicode="&#x274;" horiz-adv-x="602" d="M561 450v-18q-38 -4 -52 -13q-21 -18 -21 -81v-346h-14l-333 368v-254q0 -52 12 -67.5t58 -20.5v-18h-182v18q51 5 64 19.5t13 68.5v289q-21 23 -35 30t-42 7v18h133l291 -324v220q0 54 -14 68q-8 14 -61 18v18h183z" />
<glyph unicode="&#x275;" horiz-adv-x="500" d="M470 231q0 -103 -62 -172t-156 -69q-98 0 -160.5 68.5t-62.5 169.5q0 106 61.5 169t161.5 63q94 0 156 -63t62 -166zM119 247h261q0 87 -38.5 136t-89.5 49q-54 0 -93 -48.5t-40 -136.5zM380 214h-260q0 -85 40 -140.5t92 -55.5q50 0 89 55.5t39 140.5z" />
<glyph unicode="&#x276;" horiz-adv-x="720" d="M697 110l-34 -112h-270q-25 0 -77 -2t-68 -2q-48 0 -94 17.5t-72 46.5q-59 65 -59 163q0 129 100 192q59 37 148 37q11 0 49 -2q42 -3 90 -3h251v-96h-19q-6 45 -29 57.5t-98 12.5h-42q-31 0 -42 -5t-11 -18v-150h77q63 0 84 12.5t25 53.5h18v-159h-18q-5 39 -22.5 53 t-61.5 14h-102v-159q0 -20 9.5 -28.5t36.5 -8.5h89q40 0 68.5 19.5t56.5 66.5h17zM339 88v265q0 37 -16.5 54t-55.5 17q-74 0 -115.5 -52.5t-41.5 -150.5q0 -92 34 -143q40 -58 118 -58q41 0 59 16t18 52z" />
<glyph unicode="&#x277;" horiz-adv-x="667" d="M629 194q0 -82 -50.5 -140t-130.5 -58t-115 84q-35 -84 -115 -84t-130.5 58t-50.5 140q0 125 88 203t209 78q116 0 205.5 -78.5t89.5 -202.5zM533 210q0 121 -56 183t-143 62t-144 -62t-57 -183q0 -26 4 -52.5t13 -55t29 -46.5t47 -18q31 0 53.5 22t22.5 54 q0 22 -13 71.5t-13 79.5q0 61 57 61t57 -61q0 -30 -13 -79.5t-13 -71.5q0 -32 22.5 -54t53.5 -22q27 0 47 18t29 46.5t13 55t4 52.5z" />
<glyph unicode="&#x278;" horiz-adv-x="667" d="M375 599v-164q105 -9 178 -63.5t73 -151.5q0 -94 -73.5 -155.5t-177.5 -67.5v-146q0 -42 15 -54.5t60 -14.5v-15h-236v15q45 3 61 17.5t16 54.5v143q-104 6 -177.5 67.5t-73.5 155.5q0 97 73 151.5t178 63.5v161q0 40 -16 54.5t-61 17.5v15h236v-15q-45 -2 -60 -14.5 t-15 -54.5zM375 407v-382q72 10 111.5 66.5t39.5 130.5q0 78 -39 129t-112 56zM291 25v382q-73 -5 -112 -56t-39 -129q0 -74 40 -130.5t111 -66.5z" />
<glyph unicode="&#x279;" horiz-adv-x="370" d="M360 450v-15q-48 -9 -59.5 -20t-11.5 -49v-250q0 -33 7.5 -46.5t26.5 -13.5q16 0 35 4v-16q-63 -20 -148 -54l-5 2v92q-38 -54 -63.5 -74t-56.5 -20q-26 0 -40.5 14t-14.5 39q0 21 10.5 33t28.5 12q19 0 40 -20q17 -15 26 -15q21 0 45.5 29t24.5 53v225q0 43 -17 58 t-68 17v15h240z" />
<glyph unicode="&#x27a;" horiz-adv-x="370" d="M364 0h-159v84q-37 -53 -63 -73.5t-57 -20.5q-26 0 -40.5 14.5t-14.5 39.5q0 19 10 31.5t28 12.5q19 0 38.5 -17.5t29.5 -17.5q20 0 44.5 29t24.5 53v424q0 36 -9 51t-33 15q-13 0 -37 -2v16q93 23 159 44l4 -2v-597q0 -42 14.5 -53.5t60.5 -15.5v-15z" />
<glyph unicode="&#x27b;" horiz-adv-x="418" d="M289 366v-249q0 -316 50 -316q17 0 42 30t47 30q15 0 27.5 -11t12.5 -27q0 -26 -27.5 -41t-65.5 -15q-46 0 -80.5 32t-53 82t-27.5 101t-9 99q-60 -91 -121 -91q-25 0 -39.5 14.5t-14.5 39.5q0 19 10 31.5t28 12.5q19 0 38.5 -17.5t30.5 -17.5q18 0 43 29t25 53v225 q0 25 -5.5 40.5t-18.5 22.5t-25.5 9t-35.5 3v15h240v-15q-45 -8 -58 -19t-13 -50z" />
<glyph unicode="&#x27c;" horiz-adv-x="333" d="M160 458v-92q37 53 62.5 73.5t57.5 20.5q27 0 41 -14.5t14 -39.5q0 -19 -10 -31.5t-28 -12.5q-19 0 -38.5 17.5t-30.5 17.5q-18 0 -43 -29t-25 -52v-459q0 -25 5.5 -40.5t18.5 -22.5t25.5 -9t35.5 -3v-15h-240v15q45 8 58 19t13 50v483q0 21 -3 34t-9 18t-10.5 6.5 t-12.5 1.5q-16 0 -34 -4v16q79 26 148 54z" />
<glyph unicode="&#x27d;" horiz-adv-x="370" d="M160 315v-375q0 -39 1 -57.5t5.5 -41.5t15 -31.5t28.5 -8.5q17 0 42 30t47 30q15 0 27.5 -11t12.5 -27q0 -26 -27.5 -41t-65.5 -15q-90 0 -130 60t-40 158v349q0 21 -3 34t-9 18t-10.5 6.5t-12.5 1.5q-16 0 -34 -4v16q79 26 148 54l5 -2v-92q38 55 63 74.5t58 19.5 q25 0 39.5 -14.5t14.5 -39.5q0 -19 -10 -31.5t-28 -12.5q-19 0 -38.5 17.5t-30.5 17.5q-19 0 -43.5 -29t-24.5 -53z" />
<glyph unicode="&#x27e;" horiz-adv-x="315" d="M74 76v176q0 98 40 158t130 60q38 0 65.5 -15t27.5 -41q0 -16 -12.5 -27t-27.5 -11q-22 0 -47 30t-42 30q-18 0 -28.5 -8.5t-15 -31.5t-5.5 -41.5t-1 -57.5v-221q0 -37 11.5 -48.5t52.5 -14.5v-13h-212v13q41 3 52.5 14t11.5 49z" />
<glyph unicode="&#x27f;" horiz-adv-x="350" d="M332 0h-212v13q41 3 52.5 14.5t11.5 48.5v221q0 39 -1 57.5t-5.5 41.5t-15 31.5t-28.5 8.5q-17 0 -42 -30t-47 -30q-15 0 -27.5 11t-12.5 27q0 26 27.5 41t65.5 15q90 0 130 -60t40 -158v-176q0 -38 11.5 -49t52.5 -14v-13z" />
<glyph unicode="&#x280;" horiz-adv-x="475" d="M470 0h-120l-144 209h-37v-106q0 -47 14.5 -65t53.5 -20v-18h-216v18q40 1 56 23q11 15 11 57v257q0 51 -14 67q-16 20 -53 24v18h222q76 0 123 -34t47 -88q0 -86 -121 -120l114 -170q24 -34 54 -34h10v-18zM169 242h17q50 0 79 16q55 28 55 84q0 41 -27.5 65.5 t-75.5 24.5q-20 0 -48 -7v-183z" />
<glyph unicode="&#x281;" horiz-adv-x="475" d="M470 446h-10q-30 0 -54 -34l-114 -170q121 -34 121 -120q0 -54 -47 -88t-123 -34h-222v18q37 4 53 24q14 16 14 67v257q0 42 -11 57q-16 22 -56 23v18h216v-18q-39 -2 -53.5 -20t-14.5 -65v-106h37l144 209h120v-18zM169 222v-183q28 -7 48 -7q48 0 75.5 24.5t27.5 65.5 q0 56 -55 84q-29 16 -79 16h-17z" />
<glyph unicode="&#x282;" horiz-adv-x="389" d="M156 300l104 -63q50 -30 69 -56t19 -67q0 -50 -41.5 -87.5t-98.5 -37.5q-47 0 -73 9q-27 9 -46 9h-6q-2 -64 -2 -96q0 -95 38 -95q17 0 42 30t47 30q15 0 27.5 -11t12.5 -27q0 -26 -27.5 -41t-65.5 -15q-64 0 -84.5 28t-20.5 88q0 14 1 46.5t1 51.5v156h16 q16 -73 46 -107t81 -34q37 0 60 21t23 53q0 46 -53 75l-54 30q-120 67 -120 145q0 58 37.5 90.5t100.5 32.5q44 0 67 -11q18 -8 28 -8q7 0 16 10h11l5 -136h-15q-17 68 -42.5 95.5t-70.5 27.5q-34 0 -54.5 -17t-20.5 -51q0 -17 11.5 -36.5t31.5 -31.5z" />
<glyph unicode="&#x283;" horiz-adv-x="322" d="M111 -109v574q0 218 168 218q38 0 65.5 -15t27.5 -41q0 -16 -12.5 -27t-27.5 -11q-22 0 -47 30t-42 30t-27.5 -10.5t-14.5 -31t-5 -34.5t-1 -36v-582q0 -83 -43.5 -135.5t-128.5 -52.5q-38 0 -65.5 15t-27.5 41q0 16 12.5 27t27.5 11q22 0 47 -30t42 -30q52 0 52 90z" />
<glyph unicode="&#x284;" horiz-adv-x="304" d="M109 31v400q0 41 3 73t13.5 67.5t28.5 58.5t49.5 38t75.5 15q34 0 63.5 -13.5t29.5 -42.5q0 -15 -12 -26.5t-27 -11.5q-22 0 -46.5 30t-43.5 30q-50 0 -50 -120v-498h77v-31h-77q0 -62 -14.5 -108.5t-54 -78t-101.5 -31.5q-38 0 -65.5 14.5t-27.5 40.5q0 15 11 27t29 12 q22 0 47 -30t42 -30q12 0 20.5 4t14 13.5t9 18.5t4.5 27.5t1.5 32.5t0.5 40v48h-77v31h77z" />
<glyph unicode="&#x285;" horiz-adv-x="400" d="M278 252v-312q0 -39 1 -57.5t5.5 -41.5t15 -31.5t28.5 -8.5q17 0 42 30t47 30q15 0 27.5 -11t12.5 -27q0 -26 -27.5 -41t-65.5 -15q-90 0 -130 60t-40 158v312q0 39 -1 57.5t-5.5 41.5t-15 31.5t-28.5 8.5q-17 0 -42 -30t-47 -30q-15 0 -27.5 11t-12.5 27q0 26 27.5 41 t65.5 15q90 0 130 -60t40 -158z" />
<glyph unicode="&#x286;" horiz-adv-x="437" d="M161 11v459q0 213 168 213q33 0 63 -13.5t30 -42.5q0 -15 -12 -26.5t-27 -11.5q-24 0 -48.5 30t-41.5 30q-48 0 -48 -105v-572q46 -34 70.5 -86.5t24.5 -110.5q0 -6 -2 -18h-26v14q0 106 -67 169q-15 -173 -143 -173q-51 0 -88 37.5t-37 88.5t37 88t89 37q37 0 58 -7z M161 -114v98q-24 9 -59 9q-40 0 -70 -29.5t-30 -70.5q0 -40 30 -70.5t70 -30.5q59 0 59 94z" />
<glyph unicode="&#x287;" horiz-adv-x="278" d="M225 32h53q4 -3 4 -7q0 -8 -17 -19q-38 -22 -97 -107q-2 -3 -9.5 -12.5t-10.5 -15.5q-7 0 -7 13v116h-101v32h101v286q0 48 -12 69t-40 21q-30 0 -60 -35l-13 11q48 76 121 76q88 0 88 -127v-301z" />
<glyph unicode="&#x288;" horiz-adv-x="270" d="M154 418v-560q0 -57 15 -57q13 0 21.5 9.5t13 21t14.5 21t24 9.5q16 0 28.5 -11t12.5 -28q0 -26 -28 -41t-66 -15t-62.5 10.5t-36.5 32.5t-16 46.5t-4 60.5v501h-53q-4 2 -4 7q0 6 6 11l17 12q12 8 21 17q40 41 90 114q7 0 7 -13v-116h101v-32h-101z" />
<glyph unicode="&#x289;" horiz-adv-x="500" d="M480 49v-13q-78 -21 -137 -45l-5 3v82h-2q-63 -86 -143 -86q-57 0 -89.5 35t-32.5 93v112h-62v31h62v108q0 37 -13 51t-49 16v14h146v-189h178v107q0 39 -14 50.5t-60 14.5v17h158v-189h62v-31h-62v-123q0 -35 11.5 -46.5t45.5 -11.5h6zM333 137v93h-178v-103 q0 -34 20.5 -56.5t50.5 -22.5q49 0 84 31q13 12 18 22.5t5 35.5z" />
<glyph unicode="&#x28a;" horiz-adv-x="537" d="M490 430h-38q-16 0 -28.5 -11.5t-12.5 -25.5q0 -20 10 -30q8 -7 21.5 -24.5t29.5 -54t16 -71.5q0 -93 -64 -158t-156 -65q-91 0 -155.5 65t-64.5 154q0 37 17 75.5t29 54t21 24.5q10 10 10 28q0 17 -12.5 28t-28.5 11h-38v20h140q-50 -141 -50 -246q0 -32 7 -75 q8 -51 42 -85t83 -34t83 34t42 85q7 43 7 76q0 106 -50 245h140v-20z" />
<glyph unicode="&#x28b;" horiz-adv-x="500" d="M193 457v-331q0 -36 26 -65.5t61 -29.5q71 0 118.5 64.5t47.5 137.5q0 51 -16 86.5t-35 49t-35 28.5t-16 30q0 14 14.5 23.5t28.5 9.5q28 0 47 -23t27.5 -59.5t11.5 -65.5t3 -57q0 -69 -21 -127t-70.5 -98t-121.5 -40q-75 0 -114.5 32t-39.5 106v206q0 19 -1 29 t-9.5 20.5t-24.5 10.5q-14 0 -42 -4v16q80 24 156 54z" />
<glyph unicode="&#x28c;" horiz-adv-x="500" d="M454 0h-196v15q26 2 36 8t10 19q0 16 -9 38l-102 256l-99 -259q-6 -15 -6 -30q0 -28 47 -32v-15h-139v15q23 2 34 15t31 63l128 321q20 50 28 50q7 0 18 -26l128 -308q32 -76 47 -94.5t44 -20.5v-15z" />
<glyph unicode="&#x28d;" horiz-adv-x="722" d="M694 0h-180v15q26 3 36 10t10 23q0 15 -6 30l-99 261l-91 -199l20 -56q14 -40 27.5 -53t41.5 -16v-15h-203v15q35 5 46.5 12t11.5 23t-17 60l-84 224l-90 -222q-17 -42 -17 -67q0 -12 9.5 -18.5t34.5 -11.5v-15h-123v15q15 5 22 14.5t19 39.5l138 346q20 49 28 49 q5 0 8.5 -6.5t15.5 -36.5l91 -236l112 240q18 39 25 39q9 0 26 -44l135 -342q15 -39 25 -50t28 -13v-15z" />
<glyph unicode="&#x28e;" horiz-adv-x="444" d="M459 0h-205v15q32 1 44.5 7t12.5 20q0 11 -13 41l-112 250l-97 -276q-4 -9 -4 -18q0 -24 46 -24v-15h-133v15q18 2 29 13t21 38l150 409q39 106 78.5 149.5t96.5 43.5q32 0 51 -16.5t19 -41.5q0 -19 -12.5 -32.5t-30.5 -13.5q-29 0 -52 13q-13 7 -26 7q-21 0 -50 -44 q-14 -20 -27 -57t-13 -51q0 -13 42 -101l132 -282q13 -29 53 -35v-14z" />
<glyph unicode="&#x28f;" horiz-adv-x="587" d="M564 464v-18q-36 -3 -53 -16.5t-55 -62.5l-119 -155v-106q0 -21 1.5 -33t8 -26.5t21 -21.5t37.5 -7v-18h-216v18q23 0 38 6.5t20.5 20.5t7 24t1.5 27v110l-104 133q-54 69 -76.5 87t-52.5 20v18h210v-18l-21 -1q-19 -1 -23.5 -4.5t-4.5 -13.5q0 -9 19 -32l115 -151 l116 151q12 17 12 34q0 9 -6.5 12.5t-33.5 4.5v18h158z" />
<glyph unicode="&#x290;" horiz-adv-x="528" d="M400 140l18 -4q-18 -220 -18 -250q0 -37 9 -53.5t31 -16.5q17 0 42 30t47 30q15 0 27.5 -11t12.5 -27q0 -26 -27.5 -41t-65.5 -15q-61 0 -82.5 35.5t-21.5 95.5q0 18 2 49.5t2 37.5h-349v15l266 405h-142q-20 0 -34 -5t-21.5 -10.5t-12.5 -19.5t-7 -23t-5 -30h-18l4 118 h346v-15l-269 -405h133q82 0 106 27q14 15 27 83z" />
<glyph unicode="&#x291;" horiz-adv-x="507" d="M134 30h114q78 120 129 127q18 2 25 2q39 0 62 -20t23 -54q0 -39 -30 -62t-90 -23h-99q-43 -73 -78 -150h-36q32 74 76 150h-203v15l266 405h-141q-25 0 -40 -4.5t-23 -19.5t-10.5 -25.5t-7.5 -38.5h-18l4 118h346v-15zM286 30h82q86 0 86 56q0 47 -51 47q-13 0 -26 -3 q-33 -8 -91 -100z" />
<glyph unicode="&#x292;" horiz-adv-x="413" d="M360 400l-164 -204q16 3 32 3q67 0 115.5 -53t48.5 -145q0 -112 -68 -173t-156 -61q-58 0 -104 31q-21 14 -32 34t-11 36q0 18 13 31t36 13q18 0 30.5 -15.5t16.5 -34.5q10 -42 22 -54t49 -12q17 0 36.5 7.5t41.5 25.5t36.5 55.5t14.5 89.5q0 82 -42 121.5t-110 39.5 q-10 0 -52 -19l-14 11l214 259h-199q-50 0 -64 -18.5t-20 -67.5h-18l24 150h324v-50z" />
<glyph unicode="&#x293;" horiz-adv-x="431" d="M398 435l-178 -268q2 0 7 0.5t9 0.5q64 0 119 -46.5t55 -125.5q0 -84 -40 -138.5t-100 -75.5l46 -87h-37l-43 77q-21 -5 -77 -5q-147 0 -147 90q0 35 23 57t65 22t72.5 -27t79.5 -99q68 38 68 164q0 67 -43 114t-110 47q-14 0 -56 -19l-14 11l191 293h-138 q-50 0 -64 -19.5t-20 -68.5h-18l4 118h346v-15zM221 -202q-69 104 -104 104q-17 0 -26 -12.5t-9 -31.5q0 -32 29.5 -47t63.5 -15q39 0 46 2z" />
<glyph unicode="&#x294;" horiz-adv-x="450" d="M160 102v254q57 0 101 46t44 106q0 57 -24 107.5t-68 50.5q-24 0 -42.5 -19.5t-23.5 -44.5q-13 -64 -52 -64q-22 0 -35 13t-13 31q0 16 11 36t32 34q46 31 113 31q56 0 97 -17t61.5 -45t29.5 -56t9 -58q0 -78 -46 -118.5t-110 -52.5v-234q0 -56 15 -70.5t64 -16.5v-15 h-237v15q50 3 62 19t12 68z" />
<glyph unicode="&#x295;" horiz-adv-x="450" d="M204 102v234q-64 12 -110 52.5t-46 118.5q0 30 9 58t29.5 56t61.5 45t97 17q67 0 113 -31q21 -14 32 -34t11 -36q0 -18 -13 -31t-35 -13q-39 0 -52 64q-5 25 -23.5 44.5t-42.5 19.5q-44 0 -68 -50.5t-24 -107.5q0 -60 44 -106t101 -46v-254q0 -52 12 -68t62 -19v-15h-237 v15q49 2 64 16.5t15 70.5z" />
<glyph unicode="&#x296;" horiz-adv-x="450" d="M244 560v-227q64 -12 110 -52.5t46 -118.5q0 -30 -9 -58t-29.5 -56t-61.5 -45t-97 -17q-67 0 -113 31q-21 14 -32 34t-11 36q0 18 13 31t35 13q39 0 52 -64q5 -25 23.5 -44.5t42.5 -19.5q44 0 68 50.5t24 107.5q0 60 -44 106t-101 46v247q0 52 -12 68t-62 19v15h237v-15 q-49 -2 -64 -16.5t-15 -70.5z" />
<glyph unicode="&#x297;" horiz-adv-x="450" d="M410 -39v-38q0 -61 -51.5 -107t-113.5 -46q-63 0 -114 46t-51 108v378q0 70 55.5 114t127.5 44q53 0 90 -32.5t37 -84.5q0 -21 -10.5 -41t-29.5 -20q-11 0 -20 8.5t-9 19.5q0 10 7 25.5t7 24.5q0 27 -19 46t-46 19q-38 0 -72 -28.5t-34 -66.5v-398q0 -46 32.5 -81 t78.5 -35q53 0 82.5 34.5t29.5 86.5q0 8 -2 24h25z" />
<glyph unicode="&#x298;" horiz-adv-x="723" d="M421 331q0 -26 -18 -44.5t-44 -18.5t-45 18.5t-19 44.5t18.5 44.5t45.5 18.5q26 0 44 -18.5t18 -44.5zM690 330q0 -148 -89.5 -247.5t-237.5 -99.5q-139 0 -234.5 96.5t-95.5 251.5t93 251.5t239 96.5t235.5 -99t89.5 -250zM597 333q0 137 -65 227.5t-173 90.5 q-101 0 -167 -85t-66 -233q0 -138 62 -227.5t174 -89.5q96 0 165.5 92.5t69.5 224.5z" />
<glyph unicode="&#x299;" horiz-adv-x="460" d="M309 245v-1q135 -24 135 -119q0 -58 -51 -91.5t-138 -33.5h-240v18q44 0 60 16.5t16 54.5v281q0 36 -16 53.5t-60 22.5v18h203q198 0 198 -117q0 -47 -27 -69.5t-80 -32.5zM172 260h53q60 0 86 20t26 64q0 88 -131 88h-16q-18 0 -18 -22v-150zM172 226v-162 q0 -19 10.5 -25.5t38.5 -6.5q133 0 133 93q0 27 -9 46t-22.5 29.5t-36 16.5t-43 7.5t-50.5 1.5h-21z" />
<glyph unicode="&#x29a;" horiz-adv-x="479" d="M163 249v2q-116 24 -116 107q0 59 50 88t114 29q103 0 161 -67.5t58 -173.5q0 -114 -55 -181t-165 -67q-72 0 -131 35t-59 102q0 104 143 126zM245 263v-30q-55 0 -93 -25.5t-38 -78.5q0 -47 34.5 -77t81.5 -30q44 0 76 38.5t45.5 85.5t13.5 89q0 44 -13.5 89t-47 81.5 t-79.5 36.5q-38 0 -64 -26t-26 -64q0 -44 32 -66t78 -23z" />
<glyph unicode="&#x29b;" horiz-adv-x="600" d="M485 171v-133q0 -15 -77.5 -32t-105.5 -17q-122 0 -197.5 59.5t-75.5 176.5q0 100 78 162.5t180 62.5q22 0 43.5 -3t54.5 -10.5t43 -9.5q2 43 28 69.5t68 26.5q23 0 41 -13t18 -34q0 -23 -21 -23q-18 0 -28.5 24.5t-27.5 24.5q-33 0 -33 -68q0 -21 5 -126h-17 q-46 115 -165 115q-88 0 -135 -60t-47 -150t53 -143.5t143 -53.5q30 0 66 9t36 30v109q0 38 -12 46.5t-55 11.5v13h193v-13q-32 -2 -42.5 -11.5t-10.5 -39.5z" />
<glyph unicode="&#x29c;" horiz-adv-x="572" d="M560 0h-216v18q45 2 56 16t11 60v126h-242v-126q0 -41 12.5 -57.5t54.5 -18.5v-18h-215v18q45 3 56 17t11 62v282q0 41 -11.5 52.5t-55.5 14.5v18h215v-18q-43 -3 -55 -14.5t-12 -52.5v-126h242v126q0 42 -11 52.5t-56 14.5v18h216v-18q-44 -3 -56 -15t-12 -52v-289 q0 -40 13.5 -55.5t54.5 -16.5v-18z" />
<glyph unicode="&#x29d;" horiz-adv-x="387" d="M284 632q0 -22 -15 -36.5t-37 -14.5q-20 0 -35 15.5t-15 35.5t15 35.5t35 15.5q21 0 36.5 -15t15.5 -36zM412 -233h-40q-13 18 -29 36l-38 42l-31 34q-46 -112 -167 -112q-51 0 -90.5 33.5t-39.5 84.5q0 48 39 81.5t87 33.5q27 0 96 -20v359q0 55 -35 55q-14 0 -42 -4v16 q80 24 156 54l5 -3v-537q69 -66 129 -153zM199 -94v38q-42 21 -92 21q-36 0 -65.5 -20.5t-29.5 -54.5q0 -40 32 -64t74 -24q81 0 81 104z" />
<glyph unicode="&#x29e;" horiz-adv-x="519" d="M499 -189l-30 -8q-60 -16 -125 -36l-4 2v420l-137 -122q-23 -21 -23 -35q0 -10 10.5 -13.5t39.5 -4.5v-14h-204v15q50 0 88.5 21.5t127.5 104.5l29 27l-153 194q-54 69 -117 73v15h218v-15h-19q-21 0 -21 -15q0 -9 11 -23l150 -198v184q0 26 -12.5 38t-42.5 13l-20 1v15 h234v-15q-54 -9 -64.5 -18.5t-10.5 -48.5v-482q0 -36 9 -48.5t34 -12.5q6 0 32 2v-16z" />
<glyph unicode="&#x29f;" horiz-adv-x="470" d="M441 127l-35 -127h-385v18q38 1 49 14.5t11 50.5v294q0 41 -9.5 53.5t-50.5 15.5v18h193v-18q-41 -2 -50.5 -16.5t-9.5 -53.5v-312q0 -20 12.5 -26t52.5 -6h50q89 0 123 43q14 19 30 52h19z" />
<glyph unicode="&#x2a0;" horiz-adv-x="600" d="M362 426l3 37q4 55 34 87t72 32q53 0 85 -18q34 -19 34 -53q0 -13 -8.5 -23t-25.5 -10q-30 0 -45 28q-17 33 -40 33q-46 0 -46 -87v-593q0 -32 12 -43.5t51 -15.5v-17h-236v17q53 4 71 19t18 57v188q-68 -74 -157 -74q-70 0 -115 60t-45 155q0 108 63.5 181.5t156.5 73.5 q55 0 118 -34zM341 127v206q0 98 -93 98q-64 0 -101 -51t-37 -139q0 -52 15.5 -96.5t40.5 -66.5q30 -27 75 -27q53 0 88 32q12 11 12 44z" />
<glyph unicode="&#x2a1;" horiz-adv-x="450" d="M161 193v161q58 0 101.5 46.5t43.5 105.5q0 30 -8 64.5t-30 64t-53 29.5q-23 0 -38 -13t-22 -32t-13 -38t-17.5 -32t-30.5 -13t-32.5 12.5t-13.5 31.5q0 45 50 74t99 29q90 0 147 -44.5t57 -131.5q0 -72 -42 -116t-115 -57v-141h78v-31h-78v-69q0 -40 15 -58t65 -20v-15 h-237v15q50 3 62 19t12 68v60h-77v31h77z" />
<glyph unicode="&#x2a2;" horiz-adv-x="450" d="M205 193v141q-73 13 -115 57t-42 116q0 87 57 131.5t147 44.5q49 0 99 -29t50 -74q0 -19 -13.5 -31.5t-32.5 -12.5t-30.5 13t-17.5 32t-13 38t-22 32t-38 13q-31 0 -53 -29.5t-30 -64t-8 -64.5q0 -59 43.5 -105.5t101.5 -46.5v-161h77v-31h-77v-60q0 -52 12 -68t62 -19 v-15h-237v15q50 2 65 20t15 58v69h-78v31h78z" />
<glyph unicode="&#x2a3;" horiz-adv-x="802" d="M775 126l-15 -136h-416l-4 3v64q-48 -67 -128 -67q-83 0 -134 59.5t-51 155.5q0 106 61 180.5t147 74.5q54 0 105 -43v156q0 31 -9 41t-37 10q-14 0 -22 -1v16q91 24 147 44l5 -2v-241h336v-15l-269 -405h133q84 0 106 27q14 17 27 83zM650 410h-135q-47 0 -63.5 -16.5 t-23.5 -71.5h-4v-208q0 -30 5 -41zM340 102v230q0 40 -30.5 70t-71.5 30q-57 0 -91 -51t-34 -136q0 -92 37.5 -147.5t100.5 -55.5q47 0 74 32q15 17 15 28z" />
<glyph unicode="&#x2a4;" horiz-adv-x="743" d="M690 400l-164 -204q16 3 32 3q68 0 116 -55t48 -148q0 -59 -21 -105t-55 -72t-71.5 -39t-76.5 -13q-58 0 -104 31q-21 14 -32 34t-11 36q0 18 12.5 31t33.5 13q41 0 55 -67q5 -26 17.5 -37.5t48.5 -11.5q17 0 36.5 7.5t41.5 25.5t36.5 55.5t14.5 89.5q0 82 -42 121.5 t-110 39.5q-16 0 -42 -23q-12 -11 -25 -26l-22 -26l-25 -33l-27 -35l-14 1v64q-14 -19 -25 -30.5t-40 -24t-66 -12.5q-26 0 -54 9.5t-58.5 31.5t-50 68t-19.5 109q0 104 61 178t146 74q57 0 106 -43v156q0 19 -1.5 27.5t-11.5 16t-31 7.5q-16 0 -24 -1v16q86 22 147 44l5 -2 v-231h266v-50zM643 386h-219v-261zM340 104v224q0 47 -32 75.5t-71 28.5q-49 0 -86.5 -45.5t-37.5 -139.5q0 -104 41 -154.5t101 -50.5q31 0 58 21t27 41z" />
<glyph unicode="&#x2a5;" horiz-adv-x="864" d="M491 20h114q78 120 129 127q18 2 25 2q39 0 62 -20t23 -54q0 -39 -30 -62t-90 -23h-99q-43 -73 -78 -150h-36q32 74 76 150h-243l-4 3v64q-48 -67 -128 -67q-83 0 -134 59.5t-51 155.5q0 106 61 180.5t147 74.5q54 0 105 -43v156q0 31 -9 41t-37 10q-14 0 -22 -1v16 q91 24 147 44l5 -2v-241h336v-15zM643 20h82q86 0 86 56q0 47 -51 47q-12 0 -26 -3q-33 -8 -91 -100zM650 410h-141q-25 0 -40 -4.5t-23 -19.5t-10.5 -25.5t-7.5 -38.5h-4v-208q0 -30 5 -41zM340 102v230q0 40 -30.5 70t-71.5 30q-57 0 -91 -51t-34 -136q0 -92 37.5 -147.5 t100.5 -55.5q47 0 74 32q15 17 15 28z" />
<glyph unicode="&#x2a6;" horiz-adv-x="536" d="M303 302l104 -63q50 -30 69 -56t19 -67q0 -50 -41.5 -88t-98.5 -38q-44 0 -73 10q-27 9 -46 9q-6 0 -9 1q-31 -20 -69 -20q-88 0 -88 127v301h-53q-4 3 -4 7q0 8 17 19q38 22 97 107q14 21 20 28q7 0 7 -13v-116h120q30 10 62 10q44 0 67 -11q18 -8 28 -8q7 0 16 10h11 l5 -136h-15q-17 68 -42.5 95.5t-70.5 27.5q-34 0 -54.5 -17t-20.5 -51q0 -17 11.5 -36.5t31.5 -31.5zM266 77l13 -11l-16 -23q32 -31 79 -31q37 0 60 21.5t23 53.5q0 46 -53 75l-54 30q-120 67 -120 145q0 50 28 81h-72v-286q0 -48 12 -69t40 -21q30 0 60 35z" />
<glyph unicode="&#x2a7;" horiz-adv-x="483" d="M154 450h125q0 82 16 129q36 104 152 104q38 0 65.5 -15t27.5 -41q0 -16 -12.5 -27t-27.5 -11q-22 0 -47 30t-42 30q-48 0 -48 -102v-593q0 -82 -44 -134.5t-128 -52.5q-38 0 -65.5 15t-27.5 41q0 16 12.5 27t27.5 11q22 0 47 -30t42 -30q52 0 52 90v143 q-71 -44 -117 -44q-92 0 -92 126v302h-53q-4 2 -4 6q0 7 6 12t18 13t20 16q8 7 14.5 14l14.5 16l11 14l13 17l10 16l14 18l13 19q7 0 7 -13v-116zM279 63v355h-125v-287q0 -89 51 -89q39 0 74 21z" />
<glyph unicode="&#x2a8;" horiz-adv-x="650" d="M154 418v-286q0 -48 12 -69t40 -21q41 0 93 24q-49 63 -49 153q0 115 67.5 181t153.5 66q64 0 107 -31q45 -33 45 -70q0 -18 -12.5 -31t-34.5 -13q-36 0 -48 46q-6 24 -9 33.5t-10.5 20t-19 13.5t-31.5 3q-18 0 -38 -7.5t-42 -25.5t-36.5 -55.5t-14.5 -89.5 q0 -76 56 -146q52 33 84 45t74 12q40 0 70 -24.5t30 -64.5q0 -42 -32 -66.5t-91 -24.5q-88 0 -130 15q-33 12 -68 39q-50 -30 -85.5 -42t-76.5 -12q-88 0 -88 127v301h-53q-4 3 -4 7q0 8 17 19q38 22 97 107q2 3 9.5 12.5t10.5 15.5q7 0 7 -13v-116h101v-32h-101zM609 82 q0 27 -21.5 44.5t-47.5 17.5q-34 0 -58 -10t-79 -44q64 -64 119 -64q51 0 69 15.5t18 40.5z" />
<glyph unicode="&#x2ae;" horiz-adv-x="619" d="M612 450v-14q-43 -6 -53.5 -20t-10.5 -67v-471q0 -32 9.5 -41.5t41.5 -9.5q9 0 12 1v-16l-27 -8q-77 -23 -115 -36l-5 3v304q-34 -45 -68.5 -64.5t-78.5 -19.5q-123 0 -123 159v182q0 52 -10.5 78t-39.5 26q-17 0 -42 -30t-47 -30q-15 0 -27.5 11t-12.5 27 q0 26 27.5 40.5t65.5 14.5q90 0 130 -60t40 -157v-101q0 -106 74 -106q30 0 55 14t57 49v241q0 52 -12 67t-56 20v14h216z" />
<glyph unicode="&#x2af;" horiz-adv-x="679" d="M548 349v-458q0 -90 52 -90q17 0 42 30t47 30q15 0 27.5 -11t12.5 -27q0 -26 -27.5 -41t-65.5 -15q-85 0 -128.5 52.5t-43.5 135.5v120q-34 -45 -68.5 -64.5t-78.5 -19.5q-123 0 -123 159v182q0 52 -10.5 78t-39.5 26q-17 0 -42 -30t-47 -30q-15 0 -27.5 11t-12.5 27 q0 26 27.5 40.5t65.5 14.5q90 0 130 -60t40 -157v-101q0 -106 74 -106q30 0 55 14t57 49v241q0 52 -12 67t-56 20v14h216v-14q-43 -6 -53.5 -20t-10.5 -67z" />
<glyph unicode="&#x2b0;" horiz-adv-x="378" d="M365 336h-159v11q33 4 42.5 15t9.5 47v153q0 79 -57 79q-40 0 -83 -48v-181q0 -38 9.5 -50t41.5 -15v-11h-162v11q32 4 40 14.5t8 48.5v356q0 24 -6.5 31t-31.5 7q-6 0 -9 -1v12l106 33l4 -2v-228q47 62 108 62q95 0 95 -115v-149q0 -41 7 -52.5t37 -16.5v-11z" />
<glyph unicode="&#x2b1;" horiz-adv-x="378" d="M365 336h-159v11q31 4 41.5 14t10.5 45v155q0 80 -58 80q-41 0 -82 -48v-185q0 -37 10 -47.5t41 -13.5v-11h-162v11q32 5 40 14.5t8 48.5v299q0 58 39.5 98.5t98.5 40.5q53 0 90.5 -15.5t37.5 -39.5q0 -11 -8 -19t-20 -8q-5 0 -9 1.5t-7 2.5t-7 5t-6 7l-7 8q-5 6 -8 9 q-24 30 -53 30q-31 0 -57 -32q-21 -24 -21 -59v-120q47 62 109 62q94 0 94 -119v-149q0 -39 7.5 -49.5t36.5 -15.5v-11z" />
<glyph unicode="&#x2b2;" horiz-adv-x="300" d="M244 813q0 -16 -11 -27t-28 -11q-16 0 -27 11t-11 27t11 27.5t27 11.5q17 0 28 -11t11 -28zM243 681v-347q0 -80 -32.5 -122.5t-95.5 -42.5q-31 0 -51 11.5t-20 30.5q0 12 9 20.5t22 8.5q17 0 37 -24q16 -21 31 -21q19 0 26 13q11 21 11 92v288q0 45 -25 45q-6 0 -30 -2 l-4 -1v12q59 18 119 41z" />
<glyph unicode="&#x2b3;" horiz-adv-x="252" d="M121 680v-69q28 40 47 55t43 15q19 0 30 -10.5t11 -29.5q0 -33 -29 -33q-15 0 -30 15q-14 11 -20 11q-16 0 -34 -22t-18 -40v-168q0 -32 12.5 -43.5t50.5 -13.5v-11h-179v11q36 7 44.5 15.5t8.5 36.5v188q0 25 -6 35t-20 10q-10 0 -26 -3v12q54 17 111 40z" />
<glyph unicode="&#x2b4;" horiz-adv-x="277" d="M257 680v-11q-36 -7 -44.5 -15.5t-8.5 -36.5v-188q0 -25 6 -35t20 -10q10 0 26 3v-12q-54 -17 -111 -40l-4 1v69q-28 -40 -47 -55t-43 -15q-19 0 -30 10.5t-11 29.5q0 33 29 33q15 0 30 -15q14 -11 20 -11q16 0 34 22t18 40v168q0 32 -12.5 43.5t-50.5 13.5v11h179z" />
<glyph unicode="&#x2b5;" horiz-adv-x="325" d="M204 620v-199q0 -227 37 -227q13 0 31.5 22.5t35.5 22.5q11 0 20.5 -8t9.5 -21q0 -19 -21 -30.5t-49 -11.5q-45 0 -75.5 42.5t-41 93t-10.5 101.5q-28 -40 -47 -55t-43 -15q-41 0 -41 40q0 33 29 33q14 0 28.5 -13t21.5 -13q16 0 34 22t18 40v174q0 29 -15 39.5t-48 11.5 v11h179v-11q-34 -6 -43.5 -14.5t-9.5 -34.5z" />
<glyph unicode="&#x2b6;" horiz-adv-x="390" d="M379 667h-8q-27 0 -45 -25l-94 -130q100 -25 100 -88q0 -39 -39 -64t-102 -25h-185v13q32 3 44 18q12 12 12 49v193q0 30 -9 42q-13 16 -47 17v13h180v-13q-32 -2 -44.5 -15t-12.5 -47v-84h31l120 159h99v-13zM129 497v-134q28 -5 40 -5q40 0 63 18t23 48q0 40 -46 62 q-22 11 -65 11h-15z" />
<glyph unicode="&#x2b7;" horiz-adv-x="520" d="M512 680v-11q-11 -4 -16.5 -11t-14.5 -29l-104 -261q-15 -37 -21 -37q-5 0 -18 33l-68 177l-85 -180q-13 -30 -18 -30q-7 0 -20 34l-101 257q-12 29 -19.5 37.5t-20.5 9.5v11h135v-11q-19 -2 -26.5 -7.5t-7.5 -17.5q0 -13 4 -22l74 -197l69 150l-15 42q-11 30 -21 40 t-31 12v11h153v-11q-27 -4 -35.5 -9t-8.5 -17t13 -45l63 -169l68 167q12 32 12 51q0 16 -33 22v11h93z" />
<glyph unicode="&#x2b8;" horiz-adv-x="370" d="M361 680v-12q-14 -2 -22.5 -9.5t-15.5 -28.5l-113 -309q-29 -80 -59 -112.5t-73 -32.5q-24 0 -38 12t-14 31q0 14 9.5 24.5t22.5 10.5q23 0 39 -10q10 -5 20 -5q15 0 37 33q10 15 20 43.5t10 38.5t-31 76l-100 213q-10 22 -39 25v12h154v-12q-43 -1 -43 -20q0 -11 10 -31 l84 -189l73 209q3 7 3 13q0 18 -35 18v12h101z" />
<glyph unicode="&#x2b9;" horiz-adv-x="208" d="M90 432l93 212q10 23 19.5 31.5t25.5 8.5q29 0 29 -32q0 -14 -19 -41l-131 -190z" />
<glyph unicode="&#x2ba;" horiz-adv-x="305" d="M19 432l93 212q10 23 19.5 31.5t25.5 8.5q29 0 29 -32q0 -14 -19 -41l-131 -190zM157 432l93 212q10 23 19.5 31.5t25.5 8.5q29 0 29 -32q0 -14 -19 -41l-131 -190z" />
<glyph unicode="&#x2bb;" horiz-adv-x="333" d="M191 686l9 -19q-44 -28 -63 -57.5t-19 -48.5q0 -14 14 -14q2 0 10 2t14 2q24 0 43 -11.5t19 -38.5q0 -29 -18 -43.5t-40 -14.5q-11 0 -23 3.5t-26 13t-23 30t-9 49.5q0 47 41 92t71 55z" />
<glyph unicode="&#x2bc;" horiz-adv-x="333" d="M106 443l-9 19q44 28 63 57.5t19 48.5q0 14 -14 14q-2 0 -10 -2t-14 -2q-24 0 -43 11.5t-19 38.5q0 29 18 43.5t40 14.5q11 0 23 -3.5t26 -13t23 -30t9 -49.5q0 -47 -41 -92t-71 -55z" />
<glyph unicode="&#x2bd;" horiz-adv-x="333" d="M200 462l-9 -19q-30 10 -71 55t-41 92q0 29 9 49.5t23 30t26 13t23 3.5q22 0 40 -14.5t18 -43.5q0 -27 -19 -38.5t-43 -11.5q-6 0 -14 2t-10 2q-14 0 -14 -14q0 -19 19 -48.5t63 -57.5z" />
<glyph unicode="&#x2be;" horiz-adv-x="198" d="M35 680h30q41 0 69.5 -28.5t28.5 -68.5q0 -41 -28.5 -69.5t-69.5 -28.5h-30v37h30q25 0 43 18t18 43t-17.5 42.5t-43.5 17.5h-30v37z" />
<glyph unicode="&#x2bf;" horiz-adv-x="198" d="M163 485h-30q-41 0 -69.5 28.5t-28.5 69.5q0 40 28.5 68.5t69.5 28.5h30v-37h-30q-26 0 -43.5 -17.5t-17.5 -42.5t18 -43t43 -18h30v-37z" />
<glyph unicode="&#x2c0;" horiz-adv-x="326" d="M93 446h12q54 0 88.5 30t34.5 75q0 46 -19.5 86t-55.5 40q-17 0 -32 -16t-19 -34q-11 -52 -41 -52q-17 0 -27.5 10.5t-10.5 24.5q0 32 34 55q37 25 90 25q156 0 156 -151q0 -69 -44 -116t-105 -47q-13 0 -18 1l-6 -82h-37v151z" />
<glyph unicode="&#x2c1;" horiz-adv-x="326" d="M196 295l-6 82q-5 -1 -18 -1q-61 0 -105 47t-44 116q0 151 156 151q53 0 90 -25q34 -23 34 -55q0 -14 -10.5 -24.5t-27.5 -10.5q-30 0 -41 52q-4 18 -19 34t-32 16q-36 0 -55.5 -40t-19.5 -86q0 -45 34.5 -75t88.5 -30h12v-151h-37z" />
<glyph unicode="&#x2c2;" horiz-adv-x="317" d="M285 419l-252 153v30l252 153v-68l-163 -100l163 -100v-68z" />
<glyph unicode="&#x2c3;" horiz-adv-x="317" d="M285 572l-252 -153v68l163 100l-163 100v68l252 -153v-30z" />
<glyph unicode="&#x2c4;" horiz-adv-x="317" d="M327 461h-68l-100 163l-100 -163h-68l153 252h30z" />
<glyph unicode="&#x2c5;" horiz-adv-x="317" d="M327 713l-153 -252h-30l-153 252h68l100 -163l100 163h68z" />
<glyph unicode="&#x2c6;" horiz-adv-x="333" d="M322 507h-34l-122 103l-121 -103h-34l124 167h62z" />
<glyph unicode="&#x2c7;" horiz-adv-x="333" d="M322 674l-124 -167h-64l-123 167h35l120 -103l121 103h35z" />
<glyph unicode="&#x2c8;" horiz-adv-x="278" d="M159 448h-40v265h40v-265z" />
<glyph unicode="&#x2c9;" horiz-adv-x="334" d="M322 547h-311v54h311v-54z" />
<glyph unicode="&#x2ca;" horiz-adv-x="333" d="M93 509l136 136q34 34 59 34q32 0 32 -36q0 -17 -35 -39l-152 -95h-40z" />
<glyph unicode="&#x2cb;" horiz-adv-x="333" d="M249 509h-40l-152 95q-35 22 -35 39q0 36 32 36q25 0 59 -34z" />
<glyph unicode="&#x2cc;" horiz-adv-x="278" d="M159 -195h-40v265h40v-265z" />
<glyph unicode="&#x2cd;" horiz-adv-x="334" d="M323 -159h-312v55h312v-55z" />
<glyph unicode="&#x2ce;" horiz-adv-x="333" d="M249 -192h-40l-154 96q-30 19 -30 43q0 32 36 32q21 0 43 -23z" />
<glyph unicode="&#x2cf;" horiz-adv-x="333" d="M84 -192l147 148q23 23 42 23q35 0 35 -32q0 -23 -30 -42l-154 -97h-40z" />
<glyph unicode="&#x2d0;" horiz-adv-x="333" d="M244 460l-55 -161h-45l-55 161h155zM244 19h-155l55 161h45z" />
<glyph unicode="&#x2d1;" horiz-adv-x="333" d="M244 460l-55 -161h-45l-55 161h155z" />
<glyph unicode="&#x2d2;" horiz-adv-x="333" d="M72 365h45q60 0 102.5 -42.5t42.5 -102.5t-42.5 -102.5t-102.5 -42.5h-45v55h45q37 0 63.5 26t26.5 64t-26.5 64t-63.5 26h-45v55z" />
<glyph unicode="&#x2d3;" horiz-adv-x="333" d="M261 75h-45q-60 0 -102.5 42.5t-42.5 102.5t42.5 102.5t102.5 42.5h45v-55h-45q-38 0 -64 -26t-26 -64t26 -64t64 -26h45v-55z" />
<glyph unicode="&#x2d4;" horiz-adv-x="333" d="M281 18h-230v40h95v147h40v-147h95v-40z" />
<glyph unicode="&#x2d5;" horiz-adv-x="333" d="M281 165h-95v-147h-40v147h-95v40h230v-40z" />
<glyph unicode="&#x2d6;" horiz-adv-x="333" d="M263 100h-77v-74h-38v74h-77v44h77v74h38v-74h77v-44z" />
<glyph unicode="&#x2d7;" horiz-adv-x="333" d="M263 100h-192v44h192v-44z" />
<glyph unicode="&#x2d8;" horiz-adv-x="335" d="M279 664h29q-18 -157 -142 -157q-69 0 -104 41.5t-35 115.5h29q20 -97 112 -97q40 0 64.5 21.5t46.5 75.5z" />
<glyph unicode="&#x2d9;" horiz-adv-x="333" d="M217 572q0 -21 -14.5 -35t-35.5 -14q-20 0 -34.5 14.5t-14.5 34.5q0 21 13.5 35.5t35.5 14.5q23 0 36.5 -14t13.5 -36z" />
<glyph unicode="&#x2da;" horiz-adv-x="333" d="M266 611q0 -41 -29.5 -70t-71.5 -29q-41 0 -69.5 29t-28.5 71q0 41 29.5 70t71.5 29q40 0 69 -29.5t29 -70.5zM232 612q0 27 -19.5 46t-47.5 19q-26 0 -45 -19.5t-19 -45.5q0 -28 19 -47t45 -19q28 0 47.5 19t19.5 47z" />
<glyph unicode="&#x2db;" horiz-adv-x="333" d="M229 -73l20 -16q-28 -41 -52.5 -58.5t-58.5 -17.5q-33 0 -53.5 19.5t-20.5 54.5q0 53 54 91h46q-44 -35 -44 -70q0 -39 38 -39q32 0 71 36z" />
<glyph unicode="&#x2dc;" horiz-adv-x="333" d="M302 638h29q-16 -57 -40 -81.5t-65 -24.5q-32 0 -81 24l-23 11q-24 11 -41 11q-35 0 -51 -46h-29q11 49 37 75t64 26q34 0 70 -18l24 -12q28 -15 53 -15q17 0 28.5 11t24.5 39z" />
<glyph unicode="&#x2dd;" horiz-adv-x="333" d="M153 507l146 148q23 23 43 23q34 0 34 -30q0 -27 -29 -45l-154 -96h-40zM-3 507l146 148q23 23 43 23q34 0 34 -30q0 -27 -29 -45l-154 -96h-40z" />
<glyph unicode="&#x2de;" horiz-adv-x="298" d="M243 322l20 -56q-10 -34 -24 -52q-22 -28 -60 -28q-27 0 -56 49q-28 48 -52 100q-4 -7 -10 -13.5t-12.5 -11t-14.5 -9l-13 -7.5l-11 -5q-6 -3 -7 -3l-3 48q2 1 9.5 6.5t13.5 9.5t14.5 12t16.5 18q17 22 27 63q1 -2 7.5 -22t12.5 -36t15.5 -39t20.5 -43.5t22 -35.5 q16 -21 30 -21q21 0 36 27q9 17 18 49z" />
<glyph unicode="&#x2df;" horiz-adv-x="333" d="M284 628l-83 -85l81 -81l-34 -37l-83 83l-81 -83l-32 35l80 83l-84 85l36 34l81 -83l86 83z" />
<glyph unicode="&#x2e0;" horiz-adv-x="378" d="M335 684v-10q-7 0 -13 -3.5t-9.5 -6t-7.5 -10.5l-5 -10q-2 -3 -5.5 -12.5t-3.5 -10.5l-76 -191q5 -11 17 -33t18.5 -36t12.5 -34.5t6 -38.5q0 -32 -19 -50.5t-51 -18.5q-71 0 -71 58q0 42 40 122l-65 157q-30 73 -42 93q-14 24 -37 25v10h133v-10q-31 0 -31 -21 q0 -10 14.5 -49t37 -93t23.5 -56q3 8 23 57.5t34 88t14 50.5q0 23 -31 23v10h94zM223 280q0 20 -42 93q-2 -6 -10.5 -26t-12.5 -34t-4 -28q0 -17 8 -30.5t24 -13.5t26.5 11t10.5 28z" />
<glyph unicode="&#x2e1;" horiz-adv-x="215" d="M197 336h-176v11q35 3 46 15t11 43v352q0 27 -6.5 37.5t-24.5 10.5q-16 0 -28 -2v12q76 19 118 33l4 -3v-444q0 -31 10.5 -41.5t45.5 -12.5v-11z" />
<glyph unicode="&#x2e2;" horiz-adv-x="291" d="M233 573h-11q-23 91 -80 91q-23 0 -39.5 -13t-16.5 -35q0 -32 45 -60q8 -5 39 -23t45 -29q46 -34 46 -74q0 -46 -34 -74q-29 -25 -80 -25q-23 0 -45 7q-20 7 -40 9q-12 -2 -15 -11h-11v115h12q18 -104 98 -104q26 0 43 15t17 40q0 24 -25 46q-16 12 -57 35t-60 41 q-28 28 -28 64q0 42 32 68q31 25 73 25q9 0 40 -9q27 -8 31 -8q9 0 12 11h9v-102z" />
<glyph unicode="&#x2e3;" horiz-adv-x="380" d="M372 336h-160v12q19 1 25.5 4.5t6.5 14.5q0 6 -5 14l-72 98l-63 -84q-16 -26 -16 -33q0 -14 32 -14v-12h-115v12q19 1 28.5 8.5t28.5 31.5l91 118l-75 114q-19 29 -31 38.5t-30 9.5h-7v12h164v-12q-34 -1 -34 -17q0 -10 9 -24l39 -63l42 60q11 15 11 27q0 16 -32 17v12 h126v-12q-41 -2 -64 -35l-66 -95l101 -143q33 -47 66 -47v-12z" />
<glyph unicode="&#x2e4;" horiz-adv-x="341" d="M166 415v166q-50 9 -85.5 40.5t-35.5 91.5q0 53 35 95t118 42q51 0 87 -24q34 -23 34 -54q0 -14 -10.5 -24.5t-27.5 -10.5q-30 0 -40 50q-4 19 -18.5 34.5t-32.5 15.5q-34 0 -53 -39.5t-19 -83.5q0 -46 34.5 -82t78.5 -36v-181q0 -40 9.5 -52.5t47.5 -14.5v-12h-184v12 q39 2 50.5 13t11.5 54z" />
<glyph unicode="&#x2e5;" horiz-adv-x="413" d="M373 0h-50v612h-275v50h325v-662z" />
<glyph unicode="&#x2e6;" horiz-adv-x="405" d="M365 0h-50v431h-275v50h275v181h50v-662z" />
<glyph unicode="&#x2e7;" horiz-adv-x="405" d="M365 0h-50v306h-275v50h275v306h50v-662z" />
<glyph unicode="&#x2e8;" horiz-adv-x="405" d="M365 0h-50v181h-275v50h275v431h50v-662z" />
<glyph unicode="&#x2e9;" horiz-adv-x="405" d="M365 0h-325v50h275v612h50v-662z" />
<glyph unicode="&#x2ec;" horiz-adv-x="333" d="M311 70l-132 -217h-26l-132 217h69l76 -120l76 120h69z" />
<glyph unicode="&#x2ed;" horiz-adv-x="405" d="M395 611h-385v54h385v-54zM395 507h-385v54h385v-54z" />
<glyph unicode="&#x300;" horiz-adv-x="0" d="M-147 507h-40l-154 96q-30 19 -30 43q0 32 36 32q21 0 43 -23z" />
<glyph unicode="&#x301;" horiz-adv-x="0" d="M-371 507l145 148q22 23 43 23q36 0 36 -32q0 -24 -30 -43l-154 -96h-40z" />
<glyph unicode="&#x302;" horiz-adv-x="0" d="M-75 507h-34l-122 103l-121 -103h-34l124 167h62z" />
<glyph unicode="&#x303;" horiz-adv-x="0" d="M-94 638h29q-16 -57 -40 -81.5t-65 -24.5q-32 0 -81 24q-46 22 -64 22q-35 0 -51 -46h-29q11 49 37 75t64 26q34 0 70 -18q55 -28 77 -28q17 0 28.5 11.5t24.5 39.5z" />
<glyph unicode="&#x304;" horiz-adv-x="0" d="M-74 547h-311v54h311v-54z" />
<glyph unicode="&#x305;" horiz-adv-x="0" d="M20 770h-500v50h500v-50z" />
<glyph unicode="&#x306;" horiz-adv-x="0" d="M-121 664h29q-18 -157 -142 -157q-69 0 -104 41.5t-35 115.5h29q20 -97 112 -97q40 0 64.5 21.5t46.5 75.5z" />
<glyph unicode="&#x307;" horiz-adv-x="0" d="M-181 572q0 -21 -14.5 -35t-35.5 -14q-20 0 -34.5 14.5t-14.5 34.5q0 21 13.5 35.5t35.5 14.5q23 0 36.5 -14t13.5 -36z" />
<glyph unicode="&#x308;" horiz-adv-x="0" d="M-81 572q0 -20 -15 -34.5t-36 -14.5q-20 0 -34 14.5t-14 35.5q0 20 14.5 34.5t34.5 14.5t35 -15t15 -35zM-280 572q0 -20 -15 -34.5t-36 -14.5q-20 0 -34 14.5t-14 35.5q0 20 14.5 34.5t34.5 14.5t35 -15t15 -35z" />
<glyph unicode="&#x309;" horiz-adv-x="0" d="M-261 581h12q33 0 54.5 20t21.5 50q0 31 -11.5 54t-33.5 23q-14 0 -22 -10t-10.5 -22t-9.5 -22t-19 -10t-20 8.5t-8 19.5q0 24 24 41q25 18 61 18q104 0 104 -108q0 -49 -29.5 -82.5t-70.5 -33.5h-8l-2 -35h-33v89z" />
<glyph unicode="&#x30a;" horiz-adv-x="0" d="M-130 611q0 -41 -29.5 -70t-71.5 -29q-41 0 -69.5 29t-28.5 71q0 41 29.5 70t71.5 29q40 0 69 -29.5t29 -70.5zM-164 612q0 27 -19.5 46t-47.5 19q-26 0 -45 -19.5t-19 -45.5q0 -28 19 -47t45 -19q28 0 47.5 19t19.5 47z" />
<glyph unicode="&#x30b;" horiz-adv-x="0" d="M-245 507l146 148q23 23 43 23q34 0 34 -30q0 -27 -29 -45l-154 -96h-40zM-401 507l146 148q23 23 43 23q34 0 34 -30q0 -27 -29 -45l-154 -96h-40z" />
<glyph unicode="&#x30c;" horiz-adv-x="0" d="M-74 674l-124 -167h-64l-123 167h35l120 -103l121 103h35z" />
<glyph unicode="&#x30d;" horiz-adv-x="0" d="M-195 500h-55v200h55v-200z" />
<glyph unicode="&#x30e;" horiz-adv-x="0" d="M-133 500h-55v200h55v-200zM-272 500h-54v200h54v-200z" />
<glyph unicode="&#x30f;" horiz-adv-x="0" d="M-22 507h-40l-154 96q-29 18 -29 45q0 30 34 30q20 0 43 -23zM-178 507h-40l-154 96q-29 18 -29 45q0 30 34 30q20 0 43 -23z" />
<glyph unicode="&#x310;" horiz-adv-x="0" d="M-181 717q0 -21 -14.5 -35t-35.5 -14q-20 0 -34.5 14.5t-14.5 34.5q0 21 13.5 35.5t35.5 14.5q23 0 36.5 -14t13.5 -36zM-121 664h29q-18 -157 -142 -157q-69 0 -104 41.5t-35 115.5h29q20 -97 112 -97q40 0 64.5 21.5t46.5 75.5z" />
<glyph unicode="&#x311;" horiz-adv-x="0" d="M-92 507h-29q-22 54 -46.5 75.5t-64.5 21.5q-92 0 -112 -97h-29q0 74 35 115.5t104 41.5q124 0 142 -157z" />
<glyph unicode="&#x312;" horiz-adv-x="0" d="M-187 745l9 -19q-44 -28 -63 -57.5t-19 -48.5q0 -14 14 -14q2 0 10 2t14 2q24 0 43 -11.5t19 -38.5q0 -29 -18 -43.5t-40 -14.5q-11 0 -23 3.5t-26 13t-23 30t-9 49.5q0 47 41 92t71 55z" />
<glyph unicode="&#x313;" horiz-adv-x="0" d="M-272 502l-9 19q44 28 63 57.5t19 48.5q0 14 -14 14q-2 0 -10 -2t-14 -2q-24 0 -43 11.5t-19 38.5q0 29 18 43.5t40 14.5q11 0 23 -3.5t26 -13t23 -30t9 -49.5q0 -47 -41 -92t-71 -55z" />
<glyph unicode="&#x314;" horiz-adv-x="0" d="M-178 521l-9 -19q-30 10 -71 55t-41 92q0 29 9 49.5t23 30t26 13t23 3.5q22 0 40 -14.5t18 -43.5q0 -27 -19 -38.5t-43 -11.5q-6 0 -14 2t-10 2q-14 0 -14 -14q0 -19 19 -48.5t63 -57.5z" />
<glyph unicode="&#x315;" horiz-adv-x="0" d="M-58 502l-9 19q44 28 63 57.5t19 48.5q0 14 -14 14q-2 0 -10 -2t-14 -2q-24 0 -43 11.5t-19 38.5q0 29 18 43.5t40 14.5q11 0 23 -3.5t26 -13t23 -30t9 -49.5q0 -47 -41 -92t-71 -55z" />
<glyph unicode="&#x316;" horiz-adv-x="0" d="M-127 -224h-40l-154 96q-30 19 -30 43q0 32 36 32q21 0 43 -23z" />
<glyph unicode="&#x317;" horiz-adv-x="0" d="M-371 -224l145 148q22 23 43 23q36 0 36 -32q0 -24 -30 -43l-154 -96h-40z" />
<glyph unicode="&#x318;" horiz-adv-x="0" d="M-210 -283h-40v95h-147v40h147v95h40v-230z" />
<glyph unicode="&#x319;" horiz-adv-x="0" d="M-80 -188h-147v-95h-40v230h40v-95h147v-40z" />
<glyph unicode="&#x31a;" horiz-adv-x="0" d="M-80 531h-55v149h-245v55h300v-204z" />
<glyph unicode="&#x31b;" horiz-adv-x="0" d="M-36 345v22q27 6 27 15q0 2 -17.5 17t-17.5 34q0 15 13.5 28t32.5 13t34 -15.5t15 -40.5q0 -38 -33 -57q-19 -11 -54 -16z" />
<glyph unicode="&#x31c;" horiz-adv-x="0" d="M-232 -266h-30q-40 0 -69 29t-29 69t28.5 68.5t69.5 28.5h30v-37h-30q-26 0 -43.5 -17.5t-17.5 -42.5q0 -26 17.5 -43.5t43.5 -17.5h30v-37z" />
<glyph unicode="&#x31d;" horiz-adv-x="0" d="M-115 -240h-230v40h95v147h40v-147h95v-40z" />
<glyph unicode="&#x31e;" horiz-adv-x="0" d="M-115 -93h-95v-147h-40v147h-95v40h230v-40z" />
<glyph unicode="&#x31f;" horiz-adv-x="0" d="M-134 -168h-77v-82h-38v82h-77v44h77v71h38v-71h77v-44z" />
<glyph unicode="&#x320;" horiz-adv-x="0" d="M-134 -168h-192v44h192v-44z" />
<glyph unicode="&#x321;" horiz-adv-x="0" d="M1 75v-223q0 -58 -31 -98.5t-77 -40.5q-53 0 -90.5 15.5t-37.5 39.5q0 11 8 19t20 8q7 0 14 -3.5t9.5 -6t10 -11.5t9.5 -11q27 -31 54 -31q56 0 56 91v252h55z" />
<glyph unicode="&#x322;" horiz-adv-x="0" d="M1 75v-252q0 -91 56 -91q27 0 54 31q3 3 8 9l7 9q3 3 7.5 7t9.5 5.5t11 1.5q12 0 20 -8t8 -19q0 -24 -37.5 -39.5t-90.5 -15.5q-46 0 -77 40.5t-31 98.5v223h55z" />
<glyph unicode="&#x323;" horiz-adv-x="0" d="M-181 -168q0 -21 -14.5 -35t-35.5 -14q-20 0 -34.5 14.5t-14.5 34.5q0 21 13.5 35.5t35.5 14.5q23 0 36.5 -14t13.5 -36z" />
<glyph unicode="&#x324;" horiz-adv-x="0" d="M-81 -168q0 -21 -15 -35.5t-36 -14.5q-20 0 -34 14.5t-14 35.5q0 20 14.5 34.5t34.5 14.5t35 -14.5t15 -34.5zM-280 -168q0 -21 -15 -35.5t-36 -14.5q-20 0 -34 14.5t-14 35.5q0 20 14.5 34.5t34.5 14.5t35 -14.5t15 -34.5z" />
<glyph unicode="&#x325;" horiz-adv-x="0" d="M-130 -168q0 -41 -29.5 -70.5t-71.5 -29.5q-41 0 -69.5 29t-28.5 71q0 41 29.5 70t71.5 29q40 0 69 -29.5t29 -69.5zM-164 -168q0 27 -19.5 46t-47.5 19q-26 0 -45 -19.5t-19 -45.5q0 -28 19 -47t45 -19q28 0 47.5 19t19.5 47z" />
<glyph unicode="&#x326;" horiz-adv-x="0" d="M-272 -353l-9 19q44 28 63 57.5t19 48.5q0 14 -14 14q-2 0 -10 -2t-14 -2q-24 0 -43 11.5t-19 38.5q0 29 18 43.5t40 14.5q11 0 23 -3.5t26 -13t23 -30t9 -49.5q0 -47 -41 -92t-71 -55z" />
<glyph unicode="&#x327;" horiz-adv-x="0" d="M-212 0l-25 -65q15 3 26 3q41 0 63.5 -18t22.5 -51q0 -39 -33.5 -61.5t-91.5 -22.5q-45 0 -84 16l14 31q36 -12 65 -12q25 0 40 12t15 32q0 19 -12 27.5t-41 8.5q-17 0 -28 -4l-7 5l41 99h35z" />
<glyph unicode="&#x328;" horiz-adv-x="0" d="M-157 -73l20 -16q-28 -41 -52.5 -58.5t-58.5 -17.5q-33 0 -53.5 19.5t-20.5 54.5q0 53 54 91h46q-44 -35 -44 -70q0 -39 38 -39q32 0 71 36z" />
<glyph unicode="&#x329;" horiz-adv-x="0" d="M-210 -234h-40v132h40v-132z" />
<glyph unicode="&#x32a;" horiz-adv-x="0" d="M-73 -235h-55v82h-202v-82h-55v137h312v-137z" />
<glyph unicode="&#x32b;" horiz-adv-x="0" d="M-75 -110v-35q0 -38 -23.5 -60t-63.5 -22q-23 0 -43 10t-25 24q-15 -34 -61 -34q-41 0 -65 22.5t-24 59.5v35h40v-36q0 -41 47 -41q23 0 33 9.5t10 31.5v36h40v-35q0 -20 13 -31t33 -11q49 0 49 42v35h40z" />
<glyph unicode="&#x32c;" horiz-adv-x="0" d="M-74 -73l-124 -167h-64l-123 167h35l120 -103l121 103h35z" />
<glyph unicode="&#x32d;" horiz-adv-x="0" d="M-74 -240h-34l-122 103l-121 -103h-34l124 167h62z" />
<glyph unicode="&#x32e;" horiz-adv-x="0" d="M-118 -68h29q-18 -157 -142 -157q-69 0 -104 41.5t-35 115.5h29q20 -97 112 -97q40 0 64.5 21.5t46.5 75.5z" />
<glyph unicode="&#x32f;" horiz-adv-x="0" d="M-89 -216h-29q-22 54 -46.5 75.5t-64.5 21.5q-92 0 -112 -97h-29q0 74 35 115.5t104 41.5q124 0 142 -157z" />
<glyph unicode="&#x330;" horiz-adv-x="0" d="M-94 -113h29q-16 -57 -40 -81.5t-65 -24.5q-32 0 -81 24q-46 22 -64 22q-35 0 -51 -46h-29q11 49 37 75t64 26q34 0 70 -18q55 -28 77 -28q17 0 28.5 11.5t24.5 39.5z" />
<glyph unicode="&#x331;" horiz-adv-x="0" d="M-74 -195h-311v54h311v-54z" />
<glyph unicode="&#x332;" horiz-adv-x="0" d="M20 -191h-500v50h500v-50z" />
<glyph unicode="&#x333;" horiz-adv-x="0" d="M20 -300h-500v50h500v-50zM20 -191h-500v50h500v-50z" />
<glyph unicode="&#x334;" horiz-adv-x="0" d="M-100 320h29q-16 -57 -40 -81.5t-65 -24.5q-32 0 -81 24q-46 22 -64 22q-35 0 -51 -46h-29q11 49 37 75t64 26q34 0 70 -18q55 -28 77 -28q17 0 28.5 11.5t24.5 39.5z" />
<glyph unicode="&#x335;" horiz-adv-x="0" d="M-78 230h-306v44h306v-44z" />
<glyph unicode="&#x336;" horiz-adv-x="0" d="M20 230h-500v44h500v-44z" />
<glyph unicode="&#x337;" horiz-adv-x="0" d="M-41 580l-285 -654h-54l285 654h54z" />
<glyph unicode="&#x338;" horiz-adv-x="0" d="M31 662l-357 -818h-54l357 818h54z" />
<glyph unicode="&#x339;" horiz-adv-x="0" d="M-280 -71h30q41 0 69.5 -28.5t28.5 -68.5t-29 -69t-69 -29h-30v37h30q26 0 43.5 17.5t17.5 43.5q0 25 -17.5 42.5t-43.5 17.5h-30v37z" />
<glyph unicode="&#x33a;" horiz-adv-x="0" d="M-73 -190h-312v137h55v-82h202v82h55v-137z" />
<glyph unicode="&#x33b;" horiz-adv-x="0" d="M-147 -227h-166v174h166v-174zM-187 -187v94h-86v-94h86z" />
<glyph unicode="&#x33c;" horiz-adv-x="0" d="M-79 -91v-51q-36 22 -69 22q-39 0 -71 -69h-20q-14 25 -21 36t-23 22t-38 11q-24 0 -59 -22v51q39 26 65 26q53 0 85 -53q37 53 86 53q27 0 65 -26z" />
<glyph unicode="&#x33d;" horiz-adv-x="0" d="M-135 688l-67 -68l65 -65l-26 -30l-67 67l-66 -65l-26 28l64 65l-68 68l29 27l67 -67l68 67z" />
<glyph unicode="&#x33e;" horiz-adv-x="0" d="M-177 829v-29q-46 -16 -46 -51q0 -18 22 -64q24 -49 24 -81q0 -41 -24.5 -65t-81.5 -40v29q28 13 39.5 24.5t11.5 28.5q0 22 -28 77q-18 36 -18 70q0 38 26 64t75 37z" />
<glyph unicode="&#x33f;" horiz-adv-x="0" d="M20 770h-500v50h500v-50zM20 878h-500v50h500v-50z" />
<glyph unicode="&#x346;" horiz-adv-x="0" d="M-68 538h-54v89h-173v-89h-55v143h282v-143z" />
<glyph unicode="&#x34c;" horiz-adv-x="0" d="M-85 777h29q-16 -57 -40 -81.5t-65 -24.5q-32 0 -81 24l-23 11q-24 11 -41 11q-35 0 -51 -46h-29q11 49 37.5 75t63.5 26q34 0 70 -18l24 -12q29 -15 53 -15q17 0 28.5 11t24.5 39zM-85 638h29q-16 -57 -40 -81.5t-65 -24.5q-32 0 -81 24l-23 11q-24 11 -41 11 q-35 0 -51 -46h-29q11 49 37.5 75t63.5 26q34 0 70 -18l24 -12q29 -15 53 -15q17 0 28.5 11t24.5 39z" />
<glyph unicode="&#x359;" horiz-adv-x="0" d="M-87 -157q0 -13 -17 -22q-5 -3 -41 -12.5t-65 -26.5q25 -14 62.5 -24t43.5 -14q15 -7 15 -23q0 -11 -7 -18.5t-20 -7.5q-14 0 -43 31.5t-56 46.5q0 -27 10.5 -66t10.5 -47q0 -9 -8.5 -18t-17.5 -9q-10 0 -18.5 9t-8.5 18q0 8 10 47t10 66q-21 -11 -50 -40t-34 -32 q-9 -6 -18 -6q-12 0 -19 6.5t-7 15.5q0 20 14 27q7 4 47 15t60 23q-20 12 -61 23.5t-49 16.5q-13 8 -13 21q0 11 7 20.5t18 9.5q5 0 15 -5q7 -4 37.5 -34t52.5 -42q0 28 -10 68t-10 48q0 10 8.5 18.5t18.5 8.5q9 0 17.5 -8.5t8.5 -18.5q0 -8 -10.5 -47.5t-10.5 -67.5 q30 16 56.5 44t31.5 31q10 5 15 5q11 0 18 -9.5t7 -20.5z" />
<glyph unicode="&#x35c;" horiz-adv-x="0" d="M266 -76h29q0 -40 -25.5 -70t-62 -46t-86 -26t-86.5 -12.5t-74 -2.5t-74 2.5t-86.5 12.5t-86 26t-62 46t-25.5 70h29q6 -29 44 -50t91 -30.5t94.5 -13t75.5 -3.5t75.5 3.5t94.5 13t91 30.5t44 50z" />
<glyph unicode="&#x360;" horiz-adv-x="0" d="M336 618h29q-18 -101 -172 -101q-107 0 -265 39q-92 22 -155 22h-8q-117 1 -131 -46h-29q18 101 172 101q69 0 158 -21q162 -40 262 -40h8q117 -1 131 46z" />
<glyph unicode="&#x361;" horiz-adv-x="0" d="M295 507h-29q-6 29 -44 50t-91 30.5t-94.5 13t-75.5 3.5t-75.5 -3.5t-94.5 -13t-91 -30.5t-44 -50h-29q0 40 25.5 70t62 46t86 26t86.5 12.5t74 2.5t74 -2.5t86.5 -12.5t86 -26t62 -46t25.5 -70z" />
<glyph unicode="&#x362;" horiz-adv-x="0" d="M355 -160v-15q-46 -19 -113 -95l-19 19l27 33q6 8 6 14q0 9 -12 9h-639v55h640q3 0 7.5 3.5t4.5 7.5q0 3 -7 12l-27 33l20 19q65 -75 112 -95z" />
<glyph unicode="&#x37e;" horiz-adv-x="278" d="M191 403q0 -23 -16.5 -39t-38.5 -16q-23 0 -39.5 16.5t-16.5 38.5q0 24 16 40t40 16q22 0 38.5 -16.5t16.5 -39.5zM107 -141l-10 19q83 54 83 106q0 5 -4 9.5t-10 4.5q-3 0 -13 -2t-15 -2q-58 0 -58 52q0 24 17 40t42 16q34 0 57 -24.5t23 -64.5q0 -47 -30 -88t-82 -66z " />
<glyph unicode="&#x384;" horiz-adv-x="277" d="M113 507l59 132q11 23 38 23q11 0 20.5 -7.5t9.5 -21.5q0 -13 -27 -45l-66 -81h-34z" />
<glyph unicode="&#x385;" horiz-adv-x="333" d="M113 507l59 132q11 23 38 23q11 0 20.5 -7.5t9.5 -21.5q0 -13 -27 -45l-66 -81h-34zM316 557q0 -20 -15 -35t-35 -15t-34.5 15t-14.5 35q0 19 14.5 34t34.5 15t35 -14.5t15 -34.5zM117 557q0 -20 -15 -35t-35 -15t-34.5 15t-14.5 35q0 19 15 34t34 15q20 0 35 -14.5 t15 -34.5z" />
<glyph unicode="&#x386;" horiz-adv-x="722" d="M707 0h-255v19l45 4q10 1 17 9.5t7 19.5q0 26 -19 70l-41 94h-262l-46 -114q-9 -23 -9 -42q0 -23 16.5 -32t53.5 -9v-19h-199v19q42 4 61 30.5t65 136.5l206 488h20l246 -563q22 -52 39.5 -70t54.5 -22v-19zM447 257l-116 275l-115 -275h231zM113 528l59 132q11 23 38 23 q11 0 20.5 -7.5t9.5 -21.5q0 -13 -27 -45l-66 -81h-34z" />
<glyph unicode="&#x387;" horiz-adv-x="278" d="M192 403q0 -23 -16 -39t-39 -16t-39.5 16.5t-16.5 38.5q0 24 16 40t40 16q22 0 38.5 -16.5t16.5 -39.5z" />
<glyph unicode="&#x388;" horiz-adv-x="750" d="M8 528l59 132q11 23 38 23q11 0 20.5 -7.5t9.5 -21.5q0 -13 -27 -45l-66 -81h-34zM737 169l-46 -169h-539v19q57 4 72 20.5t15 74.5v436q0 56 -15.5 73t-71.5 20v19h529l5 -143h-25q-8 49 -28 68.5t-74.5 28t-182.5 8.5q-22 0 -28.5 -6.5t-6.5 -29.5v-220h151 q63 0 83.5 18t29.5 78h23v-234h-23q-9 63 -29 80t-84 17h-151v-243q0 -30 21 -38.5t80 -8.5q132 0 182.5 25.5t84.5 106.5h28z" />
<glyph unicode="&#x389;" horiz-adv-x="850" d="M8 528l59 132q11 23 38 23q11 0 20.5 -7.5t9.5 -21.5q0 -13 -27 -45l-66 -81h-34zM836 0h-279v19q58 4 73 22.5t15 82.5v191h-303v-202q0 -55 16 -73t71 -21l1 -19h-279v19q59 4 74 21.5t15 81.5v426q0 58 -15.5 74t-73.5 21v19h280v-19q-56 -5 -72.5 -21.5t-16.5 -73.5 v-189h303v189q0 58 -15.5 74t-73.5 21v19h280v-19q-56 -5 -72.5 -21.5t-16.5 -73.5v-437q0 -53 16.5 -70.5t72.5 -21.5v-19z" />
<glyph unicode="&#x38a;" horiz-adv-x="470" d="M8 528l59 132q11 23 38 23q11 0 20.5 -7.5t9.5 -21.5q0 -13 -27 -45l-66 -81h-34zM449 0h-297v19q63 2 80 18.5t17 74.5v439q0 58 -16 73t-81 19v19h297v-19q-63 -3 -80.5 -19t-17.5 -73v-439q0 -56 18 -73.5t80 -19.5v-19z" />
<glyph unicode="&#x38c;" horiz-adv-x="722" d="M8 528l59 132q11 23 38 23q11 0 20.5 -7.5t9.5 -21.5q0 -13 -27 -45l-66 -81h-34zM688 331q0 -154 -91 -249.5t-236 -95.5q-146 0 -236.5 96t-90.5 252q0 152 90.5 247t236.5 95t236.5 -97.5t90.5 -247.5zM574 337q0 85 -24 152.5t-67 103.5q-56 47 -123 47 q-85 0 -143 -67q-32 -36 -50.5 -102.5t-18.5 -138.5q0 -182 90 -265q49 -45 124 -45q78 0 129 48q83 80 83 267z" />
<glyph unicode="&#x38e;" horiz-adv-x="840" d="M818 658v-19q-17 5 -32 5q-103 0 -178.5 -102t-75.5 -238v-193q0 -57 19 -73t84 -19v-19h-306v19q68 5 84.5 21.5t16.5 82.5v172q-22 175 -73 251.5t-132 77.5q-24 0 -73 -18l-8 16q26 23 63 37.5t71 14.5q192 0 230 -239h2q21 104 92.5 170t151.5 66q39 0 64 -13zM8 528 l59 132q11 23 38 23q11 0 20.5 -7.5t9.5 -21.5q0 -13 -27 -45l-66 -81h-34z" />
<glyph unicode="&#x38f;" horiz-adv-x="744" d="M715 0h-286l7 161q62 15 101.5 85t39.5 153q0 109 -54.5 175t-150.5 66t-150.5 -72t-54.5 -169q0 -78 38.5 -149t101.5 -89l9 -161h-287v171h25q1 -45 14.5 -60.5t47.5 -15.5h151l-2 37q-106 30 -159 94t-53 171q0 109 87.5 194t231.5 85t231.5 -81.5t87.5 -197.5 q0 -204 -215 -265l-2 -37h154q59 0 62 74h25v-169zM8 528l59 132q11 23 38 23q11 0 20.5 -7.5t9.5 -21.5q0 -13 -27 -45l-66 -81h-34z" />
<glyph unicode="&#x390;" horiz-adv-x="340" d="M286 107l15 -8q-52 -109 -113 -109q-59 0 -59 88v266q0 49 -33 49q-23 0 -42 -4v18q63 19 155 53l4 -4v-377q0 -23 20 -23q16 0 25.5 9.5t27.5 41.5zM113 507l59 132q11 23 38 23q11 0 20.5 -7.5t9.5 -21.5q0 -13 -27 -45l-66 -81h-34zM316 557q0 -20 -15 -35t-35 -15 t-34.5 15t-14.5 35q0 19 14.5 34t34.5 15t35 -14.5t15 -34.5zM117 557q0 -20 -15 -35t-35 -15t-34.5 15t-14.5 35q0 19 15 34t34 15q20 0 35 -14.5t15 -34.5z" />
<glyph unicode="&#x391;" horiz-adv-x="722" d="M707 0h-255v19l45 4q10 1 17 9.5t7 19.5q0 26 -19 70l-41 94h-262l-46 -114q-9 -23 -9 -42q0 -23 16.5 -32t53.5 -9v-19h-199v19q42 4 61 30.5t65 136.5l206 488h20l246 -563q22 -52 39.5 -70t54.5 -22v-19zM447 257l-116 275l-115 -275h231z" />
<glyph unicode="&#x392;" horiz-adv-x="667" d="M422 349v-1q80 -14 125.5 -56.5t45.5 -113.5q0 -83 -65 -130.5t-174 -47.5h-337v19q59 2 77.5 19.5t18.5 74.5v437q0 58 -17 73.5t-79 19.5v19h280q129 0 195.5 -43.5t66.5 -123.5q0 -65 -34.5 -98.5t-102.5 -47.5zM215 366h63q179 0 179 124q0 72 -49.5 103.5 t-168.5 31.5q-24 0 -24 -32v-227zM215 326v-244q0 -25 13.5 -35t48.5 -10q96 0 148.5 30t52.5 112q0 85 -52 116t-146 31h-65z" />
<glyph unicode="&#x393;" horiz-adv-x="587" d="M577 494h-25q-8 75 -36.5 102.5t-103.5 27.5h-175q-21 0 -28.5 -8t-7.5 -32v-471q0 -58 16 -74.5t75 -19.5v-19h-281v19q57 4 72.5 22t15.5 83v427q0 55 -15 71.5t-72 20.5v19h560z" />
<glyph unicode="&#x394;" horiz-adv-x="722" d="M675 0h-627l299 674h20zM524 92l-193 440l-195 -440h388z" />
<glyph unicode="&#x395;" horiz-adv-x="611" d="M597 169l-46 -169h-539v19q57 4 72 20.5t15 74.5v436q0 56 -15.5 73t-71.5 20v19h530l4 -143h-25q-8 49 -28 68.5t-74.5 28t-182.5 8.5q-22 0 -28.5 -6.5t-6.5 -29.5v-220h151q63 0 83.5 18t29.5 78h23v-234h-23q-9 63 -29 80t-84 17h-151v-243q0 -30 21 -38.5t80 -8.5 q132 0 182.5 25.5t84.5 106.5h28z" />
<glyph unicode="&#x396;" horiz-adv-x="612" d="M598 176l-25 -176h-563v15l437 609h-214q-99 0 -134 -35q-18 -19 -25.5 -37.5t-15.5 -60.5h-26l21 171h525v-15l-432 -609h252q78 0 117 28q23 16 34 37.5t26 72.5h23z" />
<glyph unicode="&#x397;" horiz-adv-x="722" d="M703 0h-279v19q58 4 73 22.5t15 82.5v191h-303v-202q0 -55 16 -73t71 -21l1 -19h-279v19q59 4 74 21.5t15 81.5v426q0 58 -15.5 74t-73.5 21v19h280v-19q-56 -5 -72.5 -21.5t-16.5 -73.5v-189h303v189q0 58 -15.5 74t-73.5 21v19h280v-19q-56 -5 -72.5 -21.5t-16.5 -73.5 v-437q0 -53 16.5 -70.5t72.5 -21.5v-19z" />
<glyph unicode="&#x398;" horiz-adv-x="722" d="M688 331q0 -154 -91 -249.5t-236 -95.5q-146 0 -236.5 96t-90.5 252q0 152 90.5 247t236.5 95t236.5 -97.5t90.5 -247.5zM574 337q0 85 -24 152.5t-67 103.5q-56 47 -123 47q-85 0 -143 -67q-32 -36 -50.5 -102.5t-18.5 -138.5q0 -182 90 -265q49 -45 124 -45 q78 0 129 48q83 80 83 267zM501 236h-25q-7 31 -20 46.5t-38 15.5h-105q-27 0 -39 -14t-24 -48h-25q10 37 10 87q0 68 -11 118h25q11 -33 23 -45.5t40 -12.5h106q46 0 58 58h25q-11 -44 -11 -80q0 -76 11 -125z" />
<glyph unicode="&#x399;" horiz-adv-x="333" d="M315 0h-297v19q63 2 80 18.5t17 74.5v439q0 58 -16 73t-81 19v19h297v-19q-63 -3 -80.5 -19t-17.5 -73v-439q0 -56 18 -73.5t80 -19.5v-19z" />
<glyph unicode="&#x39a;" horiz-adv-x="731" d="M723 0h-303v19l27 1q42 1 42 24q0 18 -32.5 56.5t-104.5 113.5l-100 103l-26 -21v-185q0 -56 16 -71.5t73 -20.5v-19h-282v19q59 3 75 22t16 84v424q0 56 -16 73t-74 21v19h282v-19q-61 -4 -75.5 -20t-14.5 -75v-200l178 164q43 40 60.5 61t17.5 38q0 16 -8.5 23t-32.5 8 l-25 1v19h259v-19q-51 -4 -77.5 -17.5t-78.5 -63.5l-186 -178l234 -256q62 -68 91.5 -88.5t64.5 -20.5v-19z" />
<glyph unicode="&#x39b;" horiz-adv-x="702" d="M687 0h-255v19q4 0 12 0.5t12 0.5t10.5 0.5t10 1.5t8 2.5t7 4t5 6t3.5 7.5t1 10q0 22 -19 70l-160 411h-2l-167 -431q-9 -23 -9 -42q0 -23 16.5 -32t53.5 -9v-19h-199v19q43 4 63 31.5t63 135.5l196 488h20l236 -563q21 -51 38.5 -69.5t55.5 -22.5v-19z" />
<glyph unicode="&#x39c;" horiz-adv-x="889" d="M864 0h-280v19q59 4 74.5 22.5t15.5 81.5v449l-255 -572h-14l-252 549v-398q0 -81 17 -105t76 -27v-19h-234v19q44 3 63 13t26.5 35.5t7.5 83.5v398q0 57 -17 73.5t-78 20.5v19h198l231 -502l221 502h199v-19q-54 -1 -70.5 -19t-16.5 -74v-438q0 -53 16.5 -71t71.5 -22 v-19z" />
<glyph unicode="&#x39d;" horiz-adv-x="722" d="M707 662v-19q-51 -5 -66 -18q-16 -14 -22.5 -38t-6.5 -80v-518h-18l-441 549v-388q0 -76 17 -99.5t76 -31.5v-19h-234v19q62 7 79.5 29.5t17.5 101.5v440q-26 32 -44 42.5t-53 10.5v19h170l386 -483v340q0 76 -19 98q-12 13 -26.5 17.5t-52.5 8.5v19h237z" />
<glyph unicode="&#x39e;" horiz-adv-x="643" d="M590 493h-25q-8 49 -25 68t-56 19h-325q-39 0 -56.5 -18.5t-24.5 -70.5h-25v171h537v-169zM503 218h-23q0 77 -69 77h-185q-32 0 -45 -19t-18 -58h-23v233h23q0 -41 16 -58.5t49 -17.5h186q35 0 50 17.5t16 58.5h23v-233zM614 0h-585v171h25q0 -43 23 -64.5t62 -21.5h358 q92 0 92 86h25v-171z" />
<glyph unicode="&#x39f;" horiz-adv-x="722" d="M688 331q0 -154 -91 -249.5t-236 -95.5q-146 0 -236.5 96t-90.5 252q0 152 90.5 247t236.5 95t236.5 -97.5t90.5 -247.5zM574 337q0 85 -24 152.5t-67 103.5q-56 47 -123 47q-85 0 -143 -67q-32 -36 -50.5 -102.5t-18.5 -138.5q0 -182 90 -265q49 -45 124 -45 q78 0 129 48q83 80 83 267z" />
<glyph unicode="&#x3a0;" horiz-adv-x="722" d="M703 0h-279v19q58 4 73 22.5t15 82.5v464q0 21 -7 28.5t-29 7.5h-231q-20 0 -28 -6.5t-8 -26.5v-478q0 -55 16 -73t71 -21l1 -19h-279v19q59 4 74 21.5t15 81.5v426q0 58 -15.5 74t-73.5 21v19h685v-19q-56 -5 -72.5 -21.5t-16.5 -73.5v-437q0 -53 16.5 -70.5t72.5 -21.5 v-19z" />
<glyph unicode="&#x3a1;" horiz-adv-x="557" d="M16 662h259q142 0 217 -63q50 -42 50 -119q0 -80 -57 -131q-42 -38 -86 -49.5t-128 -11.5q-29 0 -69 3v-179q0 -57 16.5 -73.5t77.5 -19.5v-19h-280v19q58 4 71 21t13 82v429q0 56 -14.5 72t-69.5 20v19zM202 589v-258q34 -3 61 -3q81 0 125.5 39.5t44.5 107.5 q0 81 -46 115.5t-150 34.5q-21 0 -28 -7.5t-7 -28.5z" />
</font>
</defs>
</svg>
